G04 #@! TF.GenerationSoftware,KiCad,Pcbnew,(6.0.8)*
G04 #@! TF.CreationDate,2024-01-04T17:55:54-08:00*
G04 #@! TF.ProjectId,jesnet_proto_1,6a65736e-6574-45f7-9072-6f746f5f312e,rev?*
G04 #@! TF.SameCoordinates,Original*
G04 #@! TF.FileFunction,Profile,NP*
%FSLAX46Y46*%
G04 Gerber Fmt 4.6, Leading zero omitted, Abs format (unit mm)*
G04 Created by KiCad (PCBNEW (6.0.8)) date 2024-01-04 17:55:54*
%MOMM*%
%LPD*%
G01*
G04 APERTURE LIST*
G04 #@! TA.AperFunction,Profile*
%ADD10C,0.130000*%
G04 #@! TD*
G04 APERTURE END LIST*
D10*
X79776143Y-78217062D02*
X79785368Y-81342958D01*
X112917831Y-62457526D02*
G75*
G03*
X136519760Y-70633576I11629199J-4583864D01*
G01*
X166710000Y-48820000D02*
X166700000Y-50010000D01*
X149360000Y-61150000D02*
X149360000Y-61550000D01*
X164060000Y-58150000D02*
X160390000Y-58150000D01*
X147071172Y-48633575D02*
G75*
G03*
X144985464Y-24582147I-12250002J11053845D01*
G01*
X149360000Y-64670000D02*
X149360000Y-65150000D01*
X86665819Y-27036703D02*
G75*
G03*
X78696173Y-21769731I-12692619J-10542597D01*
G01*
X91608663Y-28669731D02*
X117150246Y-28669731D01*
X149360000Y-53840000D02*
X152360000Y-56840000D01*
X63808939Y-24582563D02*
X78696173Y-21769731D01*
X152360000Y-68150000D02*
X164060000Y-68150000D01*
X62774173Y-61696731D02*
X62774173Y-49696731D01*
X97757576Y-61696731D02*
X97770000Y-63410000D01*
X71820000Y-61696731D02*
X62774173Y-61696731D01*
X149360000Y-49840000D02*
X149360000Y-50360000D01*
X107039992Y-62010001D02*
G75*
G03*
X102288462Y-62170000I-2367252J-332809D01*
G01*
X103073857Y-78410000D02*
X107073857Y-78410000D01*
X164560000Y-47340000D02*
G75*
G03*
X164060000Y-46840000I-500000J0D01*
G01*
X112917836Y-62457528D02*
X107040000Y-62010000D01*
X166710000Y-48820000D02*
X168010000Y-47520000D01*
X152360000Y-56840000D02*
X154220000Y-56840000D01*
X177010000Y-65720000D02*
X175710000Y-67020000D01*
X154220000Y-56840000D02*
X154220000Y-58150000D01*
X76419998Y-60459998D02*
G75*
G03*
X72649242Y-73217062I8126912J-9337982D01*
G01*
X149360000Y-53410000D02*
X147100000Y-53410000D01*
X79785369Y-81342956D02*
G75*
G03*
X93788294Y-78410000I4900001J11499566D01*
G01*
X117150247Y-28669731D02*
G75*
G03*
X122099305Y-27072396I2749483J-53229D01*
G01*
X130098223Y-21770097D02*
G75*
G03*
X122099305Y-27072396I4722977J-15809603D01*
G01*
X149360000Y-53410000D02*
X149360000Y-53840000D01*
X164565000Y-50050000D02*
X164560000Y-47340000D01*
X152360000Y-58150000D02*
X154220000Y-58150000D01*
X97770000Y-63410000D02*
X95402713Y-63410000D01*
X164060000Y-46840000D02*
X152360000Y-46840000D01*
X149360000Y-61150000D02*
X152360000Y-58150000D01*
X76420000Y-55770000D02*
X76420000Y-60460000D01*
X63808939Y-24582563D02*
G75*
G03*
X62774173Y-49696731I10163949J-12997181D01*
G01*
X86665835Y-27036681D02*
G75*
G03*
X91608663Y-28669731I2192965J-1659319D01*
G01*
X160390000Y-56840000D02*
X164060000Y-56840000D01*
X70476143Y-73217062D02*
X70476143Y-78217062D01*
X97757572Y-61696733D02*
G75*
G03*
X79300000Y-54080000I-12967292J-5251127D01*
G01*
X107073857Y-78410000D02*
X107073857Y-74410000D01*
X175710000Y-47520000D02*
X177010000Y-48820000D01*
X166710000Y-64700000D02*
X166710000Y-65720000D01*
X107073857Y-74410000D02*
X103073857Y-74410000D01*
X102290000Y-63430000D02*
X103073857Y-63410000D01*
X93788294Y-78410000D02*
X103073857Y-78410000D01*
X164560000Y-58650000D02*
G75*
G03*
X164060000Y-58150000I-500000J0D01*
G01*
X175710000Y-47520000D02*
X168010000Y-47520000D01*
X164565000Y-50050000D02*
X166700000Y-50010000D01*
X72649242Y-73217062D02*
X70476143Y-73217062D01*
X149360000Y-64670000D02*
X147080000Y-64670000D01*
X164060000Y-56840000D02*
G75*
G03*
X164560000Y-56340000I0J500000D01*
G01*
X164060000Y-68150000D02*
G75*
G03*
X164560000Y-67650000I0J500000D01*
G01*
X149360000Y-61550000D02*
X147110000Y-61550000D01*
X79300000Y-54080000D02*
X79300000Y-58560000D01*
X147080000Y-64670000D02*
X147071173Y-70633576D01*
X168010000Y-67020000D02*
X175710000Y-67020000D01*
X164560000Y-67650000D02*
X164560000Y-64720000D01*
X149360000Y-65150000D02*
X152360000Y-68150000D01*
X102288462Y-62170000D02*
X102290000Y-63430000D01*
X95402701Y-63410007D02*
G75*
G03*
X79300000Y-58560000I-10719701J-6434293D01*
G01*
X168010000Y-67020000D02*
X166710000Y-65720000D01*
X130098230Y-21770120D02*
X144985464Y-24582147D01*
X149360000Y-49840000D02*
X152360000Y-46840000D01*
X166680000Y-56030000D02*
X166680000Y-58650000D01*
X149360000Y-50360000D02*
X147070000Y-50370000D01*
X70476143Y-78217062D02*
X79776143Y-78217062D01*
X147100000Y-53410000D02*
X147110000Y-61550000D01*
X164560000Y-56030000D02*
X166680000Y-56030000D01*
X164560000Y-64720000D02*
X166710000Y-64700000D01*
X164560000Y-56030000D02*
X164560000Y-56340000D01*
X103073857Y-74410000D02*
X103073857Y-63410000D01*
X147071173Y-70633576D02*
X136519760Y-70633576D01*
X177010000Y-65720000D02*
X177010000Y-48820000D01*
X164560000Y-58650000D02*
X166680000Y-58650000D01*
X76420002Y-55770003D02*
G75*
G03*
X71820000Y-61696731I7704098J-10727997D01*
G01*
X160390000Y-56840000D02*
X160390000Y-58150000D01*
X147070000Y-50370000D02*
X147071173Y-48633576D01*
M02*
