G04 #@! TF.GenerationSoftware,KiCad,Pcbnew,(6.0.8)*
G04 #@! TF.CreationDate,2024-01-04T17:55:54-08:00*
G04 #@! TF.ProjectId,jesnet_proto_1,6a65736e-6574-45f7-9072-6f746f5f312e,rev?*
G04 #@! TF.SameCoordinates,Original*
G04 #@! TF.FileFunction,Soldermask,Top*
G04 #@! TF.FilePolarity,Negative*
%FSLAX46Y46*%
G04 Gerber Fmt 4.6, Leading zero omitted, Abs format (unit mm)*
G04 Created by KiCad (PCBNEW (6.0.8)) date 2024-01-04 17:55:54*
%MOMM*%
%LPD*%
G01*
G04 APERTURE LIST*
G04 Aperture macros list*
%AMRoundRect*
0 Rectangle with rounded corners*
0 $1 Rounding radius*
0 $2 $3 $4 $5 $6 $7 $8 $9 X,Y pos of 4 corners*
0 Add a 4 corners polygon primitive as box body*
4,1,4,$2,$3,$4,$5,$6,$7,$8,$9,$2,$3,0*
0 Add four circle primitives for the rounded corners*
1,1,$1+$1,$2,$3*
1,1,$1+$1,$4,$5*
1,1,$1+$1,$6,$7*
1,1,$1+$1,$8,$9*
0 Add four rect primitives between the rounded corners*
20,1,$1+$1,$2,$3,$4,$5,0*
20,1,$1+$1,$4,$5,$6,$7,0*
20,1,$1+$1,$6,$7,$8,$9,0*
20,1,$1+$1,$8,$9,$2,$3,0*%
%AMHorizOval*
0 Thick line with rounded ends*
0 $1 width*
0 $2 $3 position (X,Y) of the first rounded end (center of the circle)*
0 $4 $5 position (X,Y) of the second rounded end (center of the circle)*
0 Add line between two ends*
20,1,$1,$2,$3,$4,$5,0*
0 Add two circle primitives to create the rounded ends*
1,1,$1,$2,$3*
1,1,$1,$4,$5*%
%AMRotRect*
0 Rectangle, with rotation*
0 The origin of the aperture is its center*
0 $1 length*
0 $2 width*
0 $3 Rotation angle, in degrees counterclockwise*
0 Add horizontal line*
21,1,$1,$2,0,0,$3*%
%AMFreePoly0*
4,1,119,-0.339809,0.384763,-0.043763,0.310219,0.240453,0.198771,0.508261,0.052213,0.547715,0.004641,0.551673,-0.057035,0.518621,-0.109259,0.461186,-0.132081,0.401305,-0.116785,0.392844,-0.106583,0.292557,-0.052076,-0.358621,-1.042371,-0.433622,-1.017371,-0.248651,0.160729,-0.413034,0.199606,-0.704842,0.228717,-0.997936,0.218932,-1.287154,0.170424,-1.389636,0.138838,-1.150396,-1.020809,
-1.221108,-1.056165,-1.921987,-0.094570,-2.081488,-0.195591,-2.306275,-0.383927,-2.504145,-0.600369,-2.671612,-0.841105,-2.703201,-0.902531,-1.699285,-1.556244,-1.724286,-1.631244,-2.917349,-1.440354,-2.965088,-1.665003,-2.987524,-1.957400,-2.971046,-2.250194,-2.915944,-2.538227,-2.901999,-2.580050,-1.734419,-2.333378,-1.699064,-2.404089,-2.674210,-3.110229,-2.531876,-3.323993,-2.338455,-3.544419,
-2.117549,-3.737292,-1.873049,-3.899216,-1.857260,-3.906885,-1.202182,-2.900870,-1.127181,-2.925870,-1.318518,-4.121730,-1.042662,-4.173792,-0.749828,-4.189543,-0.457487,-4.166380,-0.183908,-4.107532,-0.432119,-2.932667,-0.361409,-2.897311,0.349598,-3.879178,0.365677,-3.870858,0.605998,-3.702792,0.821948,-3.504384,1.009724,-3.279131,1.145616,-3.063390,0.145235,-2.411980,0.170236,-2.336979,
1.360466,-2.527417,1.373764,-2.483889,1.421553,-2.194552,1.430610,-1.901436,1.400774,-1.609700,1.347307,-1.386109,0.196163,-1.623594,0.160808,-1.552884,1.119618,-0.854033,1.092585,-0.804587,1.082360,-0.796150,1.066915,-0.736307,1.089595,-0.678815,1.141737,-0.645634,1.203424,-0.649438,1.251092,-0.688775,1.398314,-0.956217,1.510469,-1.240156,1.585748,-1.536015,1.622939,-1.839028,
1.621441,-2.144310,1.581281,-2.446944,1.503103,-2.742050,1.388169,-3.024875,1.238331,-3.290861,1.056002,-3.535720,0.844122,-3.755508,0.606105,-3.946683,0.345786,-4.106161,0.067360,-4.231377,-0.224685,-4.320310,-0.525646,-4.371527,-0.830668,-4.384203,-1.134841,-4.358136,-1.433258,-4.293743,-1.721113,-4.192063,-1.993768,-4.054734,-2.246828,-3.883970,-2.476215,-3.682522,-2.678233,-3.453636,
-2.849625,-3.201001,-2.987631,-2.928689,-3.090026,-2.641087,-3.155161,-2.342829,-3.181984,-2.038724,-3.170065,-1.733670,-3.119596,-1.432583,-3.031389,-1.140319,-2.906866,-0.861583,-2.748034,-0.600868,-2.557452,-0.362376,-2.338191,-0.149950,-2.093786,0.032986,-1.828174,0.183485,-1.545635,0.299120,-1.250723,0.378032,-0.948191,0.418944,-0.642914,0.421200,-0.339809,0.384763,-0.339809,0.384763,
$1*%
%AMFreePoly1*
4,1,76,0.112462,-0.840764,0.182681,-0.849137,0.350697,-0.908965,0.469995,-0.984674,1.047367,-0.214844,1.400920,-0.568398,0.634524,-1.143195,0.721466,-1.282331,0.780119,-1.450761,0.787383,-1.515517,1.750000,-1.378000,1.750000,-1.878000,0.787026,-1.740432,0.774867,-1.826952,0.711533,-1.993678,0.632159,-2.113147,1.400920,-2.689718,1.047367,-3.043271,0.469964,-2.273400,0.330484,-2.356547,
0.160862,-2.411660,0.112579,-2.416054,0.250000,-3.378000,-0.250000,-3.378000,-0.112437,-2.415058,-0.193538,-2.404237,-0.360702,-2.342069,-0.486374,-2.259832,-1.073953,-3.043271,-1.427507,-2.689718,-0.642850,-2.101225,-0.726222,-1.963562,-0.782518,-1.794329,-0.787792,-1.740542,-1.750000,-1.878000,-1.750000,-1.628000,-0.605177,-1.628000,-0.584556,-1.784631,-0.524099,-1.930588,-0.427925,-2.055925,
-0.302589,-2.152099,-0.156631,-2.212556,0.000000,-2.233177,0.156631,-2.212556,0.302589,-2.152099,0.427925,-2.055925,0.524099,-1.930588,0.584556,-1.784631,0.605177,-1.628000,0.584556,-1.471369,0.524099,-1.325412,0.427925,-1.200075,0.302589,-1.103901,0.156631,-1.043444,0.000000,-1.022823,-0.156631,-1.043444,-0.302588,-1.103901,-0.427925,-1.200075,-0.524099,-1.325412,-0.584556,-1.471369,
-0.605177,-1.628000,-1.750000,-1.628000,-1.750000,-1.378000,-0.787128,-1.515553,-0.777569,-1.439886,-0.716569,-1.272292,-0.642411,-1.157220,-1.427507,-0.568398,-1.073953,-0.214844,-0.488672,-0.995218,-0.340623,-0.904138,-0.171788,-0.846662,-0.112510,-0.840431,-0.250000,0.122000,0.250000,0.122000,0.112462,-0.840764,0.112462,-0.840764,$1*%
G04 Aperture macros list end*
%ADD10C,3.260000*%
%ADD11RoundRect,0.250000X-0.625000X0.375000X-0.625000X-0.375000X0.625000X-0.375000X0.625000X0.375000X0*%
%ADD12C,2.200000*%
%ADD13C,0.787400*%
%ADD14R,1.200000X0.750000*%
%ADD15RoundRect,0.140000X0.170000X-0.140000X0.170000X0.140000X-0.170000X0.140000X-0.170000X-0.140000X0*%
%ADD16RoundRect,0.140000X-0.170000X0.140000X-0.170000X-0.140000X0.170000X-0.140000X0.170000X0.140000X0*%
%ADD17C,0.700000*%
%ADD18FreePoly0,315.000000*%
%ADD19FreePoly1,270.000000*%
%ADD20R,0.600000X0.450000*%
%ADD21R,0.750000X1.200000*%
%ADD22R,1.350000X1.350000*%
%ADD23O,1.350000X1.350000*%
%ADD24RoundRect,0.140000X-0.140000X-0.170000X0.140000X-0.170000X0.140000X0.170000X-0.140000X0.170000X0*%
%ADD25C,1.200000*%
%ADD26FreePoly0,45.000000*%
%ADD27FreePoly1,0.000000*%
%ADD28R,1.400000X1.200000*%
%ADD29RoundRect,0.140000X0.140000X0.170000X-0.140000X0.170000X-0.140000X-0.170000X0.140000X-0.170000X0*%
%ADD30R,0.375000X0.500000*%
%ADD31R,0.300000X0.650000*%
%ADD32RoundRect,0.150000X0.587500X0.150000X-0.587500X0.150000X-0.587500X-0.150000X0.587500X-0.150000X0*%
%ADD33C,2.000000*%
%ADD34R,1.000000X0.750000*%
%ADD35RoundRect,0.237500X-0.237500X0.250000X-0.237500X-0.250000X0.237500X-0.250000X0.237500X0.250000X0*%
%ADD36O,2.250000X3.250000*%
%ADD37RoundRect,0.250000X0.475000X-0.250000X0.475000X0.250000X-0.475000X0.250000X-0.475000X-0.250000X0*%
%ADD38RoundRect,0.150000X-0.150000X0.587500X-0.150000X-0.587500X0.150000X-0.587500X0.150000X0.587500X0*%
%ADD39RoundRect,0.237500X-0.250000X-0.237500X0.250000X-0.237500X0.250000X0.237500X-0.250000X0.237500X0*%
%ADD40R,0.450000X0.600000*%
%ADD41RoundRect,0.150000X-0.150000X0.825000X-0.150000X-0.825000X0.150000X-0.825000X0.150000X0.825000X0*%
%ADD42R,0.500000X0.375000*%
%ADD43R,0.650000X0.300000*%
%ADD44O,1.700000X2.250000*%
%ADD45R,1.700000X2.250000*%
%ADD46RoundRect,0.237500X0.250000X0.237500X-0.250000X0.237500X-0.250000X-0.237500X0.250000X-0.237500X0*%
%ADD47RotRect,1.350000X1.350000X102.000000*%
%ADD48HorizOval,1.350000X0.000000X0.000000X0.000000X0.000000X0*%
%ADD49RoundRect,0.237500X0.237500X-0.250000X0.237500X0.250000X-0.237500X0.250000X-0.237500X-0.250000X0*%
%ADD50RoundRect,0.150000X0.150000X-0.650000X0.150000X0.650000X-0.150000X0.650000X-0.150000X-0.650000X0*%
%ADD51O,1.400000X1.600000*%
%ADD52R,1.400000X1.600000*%
%ADD53R,0.400000X1.350000*%
%ADD54R,1.200000X1.550000*%
%ADD55R,1.500000X1.550000*%
%ADD56O,1.250000X0.950000*%
%ADD57O,0.890000X1.550000*%
%ADD58RoundRect,0.150000X0.150000X-0.587500X0.150000X0.587500X-0.150000X0.587500X-0.150000X-0.587500X0*%
%ADD59O,1.700000X2.000000*%
%ADD60RoundRect,0.150000X0.825000X0.150000X-0.825000X0.150000X-0.825000X-0.150000X0.825000X-0.150000X0*%
%ADD61R,2.000000X1.500000*%
%ADD62R,2.000000X3.800000*%
%ADD63R,1.200000X0.900000*%
%ADD64FreePoly0,225.000000*%
%ADD65FreePoly1,180.000000*%
%ADD66C,1.700000*%
%ADD67O,1.600000X2.500000*%
%ADD68O,1.250000X2.500000*%
%ADD69RoundRect,0.250001X-0.499999X-0.924999X0.499999X-0.924999X0.499999X0.924999X-0.499999X0.924999X0*%
%ADD70RoundRect,0.050000X0.387500X0.050000X-0.387500X0.050000X-0.387500X-0.050000X0.387500X-0.050000X0*%
%ADD71RoundRect,0.050000X0.050000X0.387500X-0.050000X0.387500X-0.050000X-0.387500X0.050000X-0.387500X0*%
%ADD72RoundRect,0.144000X1.456000X1.456000X-1.456000X1.456000X-1.456000X-1.456000X1.456000X-1.456000X0*%
%ADD73RoundRect,0.250000X0.250000X0.475000X-0.250000X0.475000X-0.250000X-0.475000X0.250000X-0.475000X0*%
%ADD74C,1.600000*%
%ADD75O,1.600000X2.600000*%
%ADD76HorizOval,2.800000X0.577898X0.161352X-0.577898X-0.161352X0*%
%ADD77O,0.800000X2.000000*%
%ADD78C,0.800000*%
%ADD79O,0.800000X3.000000*%
%ADD80O,2.000000X0.800000*%
%ADD81O,3.000000X0.800000*%
%ADD82HorizOval,2.800000X-0.577898X-0.161352X0.577898X0.161352X0*%
%ADD83O,0.800000X2.500000*%
%ADD84C,1.000000*%
G04 APERTURE END LIST*
D10*
X157390000Y-63100000D02*
G75*
G03*
X157390000Y-63100000I-1630000J0D01*
G01*
X173260000Y-61810000D02*
G75*
G03*
X173260000Y-61810000I-1630000J0D01*
G01*
X157400000Y-51770000D02*
G75*
G03*
X157400000Y-51770000I-1630000J0D01*
G01*
X173250000Y-51970000D02*
G75*
G03*
X173250000Y-51970000I-1630000J0D01*
G01*
D11*
X67480000Y-34667500D03*
X67480000Y-37467500D03*
D12*
X104400000Y-32770000D03*
D13*
X149420000Y-63770000D03*
X77420000Y-59610000D03*
D14*
X124230000Y-53760000D03*
X122330000Y-53760000D03*
D15*
X102740000Y-35740000D03*
X102740000Y-34780000D03*
X100170000Y-30860000D03*
X100170000Y-29900000D03*
D16*
X95500000Y-45430000D03*
X95500000Y-46390000D03*
D13*
X100600000Y-63410000D03*
D15*
X90985000Y-61130000D03*
X90985000Y-60170000D03*
D17*
X155760000Y-63100000D03*
D18*
X157710000Y-62250000D03*
D19*
X157388000Y-63100000D03*
D20*
X108020000Y-31350000D03*
X110120000Y-31350000D03*
D21*
X148430000Y-35670000D03*
X148430000Y-33770000D03*
D22*
X105495000Y-76900000D03*
D23*
X103495000Y-76900000D03*
X101495000Y-76900000D03*
X99495000Y-76900000D03*
X97495000Y-76900000D03*
X95495000Y-76900000D03*
D24*
X97880000Y-29830000D03*
X98840000Y-29830000D03*
D13*
X159680000Y-56810000D03*
X157330000Y-56850000D03*
D25*
X72290000Y-74940000D03*
D14*
X77450000Y-42560000D03*
X75550000Y-42560000D03*
D26*
X170780000Y-59860000D03*
D17*
X171630000Y-61810000D03*
D27*
X171630000Y-60182000D03*
D28*
X93940000Y-31760000D03*
X96140000Y-31760000D03*
X96140000Y-30060000D03*
X93940000Y-30060000D03*
D29*
X94400000Y-33390000D03*
X93440000Y-33390000D03*
D30*
X142002500Y-62710000D03*
D31*
X142540000Y-62785000D03*
D30*
X143077500Y-62710000D03*
X143077500Y-61010000D03*
D31*
X142540000Y-60935000D03*
D30*
X142002500Y-61010000D03*
D32*
X71917500Y-38407500D03*
X71917500Y-36507500D03*
X70042500Y-37457500D03*
D33*
X100960000Y-71570000D03*
D34*
X114800000Y-51275000D03*
X108800000Y-51275000D03*
X114800000Y-47525000D03*
X108800000Y-47525000D03*
D13*
X164600000Y-59290000D03*
D35*
X75870000Y-29647500D03*
X75870000Y-31472500D03*
D13*
X166710000Y-60460000D03*
X164610000Y-52930000D03*
D14*
X75780000Y-77260000D03*
X73880000Y-77260000D03*
D33*
X160460000Y-63150000D03*
D13*
X154970000Y-58150000D03*
X166740000Y-61590000D03*
D36*
X65160000Y-41923500D03*
X61260000Y-41923500D03*
D13*
X149410000Y-52460000D03*
X158460000Y-58160000D03*
X166730000Y-52910000D03*
D25*
X100440000Y-67490000D03*
D13*
X166720000Y-54100000D03*
X99460000Y-61630000D03*
D37*
X64580000Y-28140000D03*
X64580000Y-26240000D03*
D13*
X166710000Y-51840000D03*
X147050000Y-51060000D03*
D16*
X109950000Y-37420000D03*
X109950000Y-38380000D03*
X111160000Y-37420000D03*
X111160000Y-38380000D03*
D13*
X164590000Y-51840000D03*
D17*
X155770000Y-51770000D03*
D18*
X157720000Y-50920000D03*
D19*
X157398000Y-51770000D03*
D15*
X107180000Y-48600000D03*
X107180000Y-47640000D03*
D13*
X156150000Y-56840000D03*
X164600000Y-54100000D03*
X147060000Y-62370000D03*
D38*
X68430000Y-29900000D03*
X66530000Y-29900000D03*
X67480000Y-31775000D03*
D13*
X98360000Y-61660000D03*
D39*
X70337500Y-40227500D03*
X72162500Y-40227500D03*
D13*
X158460000Y-56830000D03*
X159670000Y-58190000D03*
X166730000Y-55340000D03*
D33*
X151160000Y-63150000D03*
D40*
X120080000Y-67070000D03*
X120080000Y-69170000D03*
D21*
X142140000Y-27540000D03*
X142140000Y-25640000D03*
D13*
X149410000Y-62380000D03*
D41*
X98380000Y-67975000D03*
X97110000Y-67975000D03*
X95840000Y-67975000D03*
X94570000Y-67975000D03*
X94570000Y-72925000D03*
X95840000Y-72925000D03*
X97110000Y-72925000D03*
X98380000Y-72925000D03*
D15*
X103880000Y-35740000D03*
X103880000Y-34780000D03*
D14*
X86030000Y-59930000D03*
X87930000Y-59930000D03*
D13*
X156140000Y-58160000D03*
X166700000Y-50630000D03*
X98380000Y-63410000D03*
X164590000Y-60460000D03*
X164610000Y-55310000D03*
D42*
X111680000Y-29582500D03*
D43*
X111605000Y-30120000D03*
D42*
X111680000Y-30657500D03*
X113380000Y-30657500D03*
D43*
X113455000Y-30120000D03*
D42*
X113380000Y-29582500D03*
D44*
X70600000Y-44880000D03*
D45*
X68060000Y-44880000D03*
D46*
X138352500Y-63890000D03*
X136527500Y-63890000D03*
D16*
X107600000Y-37420000D03*
X107600000Y-38380000D03*
D13*
X99510000Y-63430000D03*
D29*
X101190000Y-32340000D03*
X100230000Y-32340000D03*
D46*
X139952500Y-27290000D03*
X138127500Y-27290000D03*
D47*
X70074899Y-24683110D03*
D48*
X72031194Y-24267287D03*
D49*
X75920000Y-75432500D03*
X75920000Y-73607500D03*
D50*
X99635000Y-55020000D03*
X100905000Y-55020000D03*
X102175000Y-55020000D03*
X103445000Y-55020000D03*
X103445000Y-47820000D03*
X102175000Y-47820000D03*
X100905000Y-47820000D03*
X99635000Y-47820000D03*
D51*
X113420000Y-32890000D03*
X115420000Y-32890000D03*
X117420000Y-32890000D03*
D52*
X119420000Y-32890000D03*
X121420000Y-32890000D03*
X123420000Y-32890000D03*
D53*
X141380000Y-66510000D03*
X142030000Y-66510000D03*
X142680000Y-66510000D03*
X143330000Y-66510000D03*
X143980000Y-66510000D03*
D54*
X139780000Y-69210000D03*
D55*
X143680000Y-69210000D03*
D56*
X140180000Y-66510000D03*
X145180000Y-66510000D03*
D55*
X141680000Y-69210000D03*
D54*
X145580000Y-69210000D03*
D57*
X139180000Y-69210000D03*
X146180000Y-69210000D03*
D58*
X70650000Y-31765000D03*
X72550000Y-31765000D03*
X71600000Y-29890000D03*
D33*
X160460000Y-51840000D03*
D22*
X64713000Y-58674000D03*
D23*
X66364000Y-58674000D03*
X68015000Y-58674000D03*
X64713000Y-60325000D03*
X66364000Y-60325000D03*
X68015000Y-60325000D03*
D46*
X68402500Y-27857500D03*
X66577500Y-27857500D03*
D59*
X125070000Y-28180000D03*
D60*
X112565000Y-43805000D03*
X112565000Y-42535000D03*
X112565000Y-41265000D03*
X112565000Y-39995000D03*
X107615000Y-39995000D03*
X107615000Y-41265000D03*
X107615000Y-42535000D03*
X107615000Y-43805000D03*
D13*
X149400000Y-51070000D03*
D29*
X96610000Y-33370000D03*
X95650000Y-33370000D03*
D61*
X122670000Y-66890000D03*
X122670000Y-69190000D03*
D62*
X128970000Y-69190000D03*
D61*
X122670000Y-71490000D03*
D63*
X63930000Y-32130000D03*
X63930000Y-35430000D03*
D13*
X147090000Y-63710000D03*
D29*
X94600000Y-44390000D03*
X93640000Y-44390000D03*
D16*
X96700000Y-45430000D03*
X96700000Y-46390000D03*
X93310000Y-45440000D03*
X93310000Y-46400000D03*
D13*
X101640000Y-63430000D03*
D35*
X148460000Y-37547500D03*
X148460000Y-39372500D03*
D13*
X164600000Y-61670000D03*
D17*
X171620000Y-51970000D03*
D64*
X172470000Y-53920000D03*
D65*
X171620000Y-53598000D03*
D46*
X72462500Y-33947500D03*
X70637500Y-33947500D03*
X83902500Y-59950000D03*
X82077500Y-59950000D03*
D66*
X129230000Y-59150000D03*
X120430000Y-75100000D03*
D13*
X166720000Y-63940000D03*
X157320000Y-58160000D03*
X101670000Y-61630000D03*
X78570000Y-58980000D03*
X166720000Y-59270000D03*
D16*
X94390000Y-45430000D03*
X94390000Y-46390000D03*
D67*
X90470000Y-38155000D03*
X81770000Y-38155000D03*
D68*
X83720000Y-49655000D03*
X86120000Y-49655000D03*
X88520000Y-49655000D03*
D22*
X162920000Y-50780000D03*
D23*
X162920000Y-52780000D03*
D13*
X164590000Y-50780000D03*
D69*
X107215000Y-34390000D03*
X110465000Y-34390000D03*
D12*
X142680000Y-54630000D03*
D70*
X102977500Y-43200000D03*
X102977500Y-42800000D03*
X102977500Y-42400000D03*
X102977500Y-42000000D03*
X102977500Y-41600000D03*
X102977500Y-41200000D03*
X102977500Y-40800000D03*
X102977500Y-40400000D03*
X102977500Y-40000000D03*
X102977500Y-39600000D03*
X102977500Y-39200000D03*
X102977500Y-38800000D03*
X102977500Y-38400000D03*
X102977500Y-38000000D03*
D71*
X102140000Y-37162500D03*
X101740000Y-37162500D03*
X101340000Y-37162500D03*
X100940000Y-37162500D03*
X100540000Y-37162500D03*
X100140000Y-37162500D03*
X99740000Y-37162500D03*
X99340000Y-37162500D03*
X98940000Y-37162500D03*
X98540000Y-37162500D03*
X98140000Y-37162500D03*
X97740000Y-37162500D03*
X97340000Y-37162500D03*
X96940000Y-37162500D03*
D70*
X96102500Y-38000000D03*
X96102500Y-38400000D03*
X96102500Y-38800000D03*
X96102500Y-39200000D03*
X96102500Y-39600000D03*
X96102500Y-40000000D03*
X96102500Y-40400000D03*
X96102500Y-40800000D03*
X96102500Y-41200000D03*
X96102500Y-41600000D03*
X96102500Y-42000000D03*
X96102500Y-42400000D03*
X96102500Y-42800000D03*
X96102500Y-43200000D03*
D71*
X96940000Y-44037500D03*
X97340000Y-44037500D03*
X97740000Y-44037500D03*
X98140000Y-44037500D03*
X98540000Y-44037500D03*
X98940000Y-44037500D03*
X99340000Y-44037500D03*
X99740000Y-44037500D03*
X100140000Y-44037500D03*
X100540000Y-44037500D03*
X100940000Y-44037500D03*
X101340000Y-44037500D03*
X101740000Y-44037500D03*
X102140000Y-44037500D03*
D72*
X99540000Y-40600000D03*
D15*
X101260000Y-30870000D03*
X101260000Y-29910000D03*
D13*
X100550000Y-61610000D03*
X154950000Y-56830000D03*
D22*
X174620000Y-58135000D03*
D23*
X174620000Y-56135000D03*
D13*
X166710000Y-62730000D03*
D67*
X126675000Y-38125000D03*
X117975000Y-38125000D03*
D68*
X119925000Y-49625000D03*
X122325000Y-49625000D03*
X124725000Y-49625000D03*
D12*
X65880000Y-54630000D03*
D13*
X164590000Y-63980000D03*
D22*
X162850000Y-62130000D03*
D23*
X162850000Y-64130000D03*
D33*
X151170000Y-51840000D03*
D13*
X77340000Y-55230000D03*
X164580000Y-62770000D03*
D15*
X95830000Y-52880000D03*
X95830000Y-51920000D03*
D73*
X129990000Y-24390000D03*
X128090000Y-24390000D03*
D13*
X147080000Y-52400000D03*
D16*
X108750000Y-37410000D03*
X108750000Y-38370000D03*
D15*
X96870000Y-52880000D03*
X96870000Y-51920000D03*
D44*
X132155000Y-59780000D03*
D45*
X134695000Y-59780000D03*
D13*
X78470000Y-54500000D03*
D49*
X73890000Y-40230000D03*
X73890000Y-38405000D03*
D74*
X134500000Y-31775000D03*
D33*
X134500000Y-39750000D03*
D75*
X127750000Y-31350000D03*
X141250000Y-42650000D03*
D74*
X134500000Y-42225000D03*
D76*
X140430000Y-31520000D03*
X128570000Y-42480000D03*
D33*
X134500000Y-34250000D03*
D77*
X133230000Y-26400000D03*
D78*
X133230000Y-26400000D03*
X134500000Y-26400000D03*
D79*
X134500000Y-26400000D03*
D77*
X135770000Y-26400000D03*
D78*
X135770000Y-26400000D03*
X145100000Y-35730000D03*
D80*
X145100000Y-35730000D03*
D81*
X145100000Y-37000000D03*
D78*
X145100000Y-37000000D03*
X145100000Y-38270000D03*
D80*
X145100000Y-38270000D03*
D74*
X85490000Y-64975000D03*
D33*
X85490000Y-72950000D03*
D82*
X91420000Y-64720000D03*
D74*
X85490000Y-75425000D03*
D33*
X85490000Y-67450000D03*
D75*
X78740000Y-64550000D03*
X92240000Y-75850000D03*
D82*
X79560000Y-75680000D03*
D78*
X86760000Y-80800000D03*
D77*
X86760000Y-80800000D03*
D78*
X85490000Y-80800000D03*
D83*
X85490000Y-80487000D03*
D78*
X84220000Y-80800000D03*
D77*
X84220000Y-80800000D03*
D78*
X74890000Y-71470000D03*
D80*
X74890000Y-71470000D03*
D81*
X74890000Y-70200000D03*
D78*
X74890000Y-70200000D03*
X74890000Y-68930000D03*
D80*
X74890000Y-68930000D03*
D78*
X74640000Y-33090000D03*
X74230000Y-26010000D03*
X82470000Y-42920000D03*
X61238441Y-34840752D03*
D84*
X104890000Y-59220000D03*
M02*
