%TF.GenerationSoftware,KiCad,Pcbnew,(6.0.8)*%
%TF.CreationDate,2023-07-21T17:03:27-07:00*%
%TF.ProjectId,jesnet_proto_1,6a65736e-6574-45f7-9072-6f746f5f312e,rev?*%
%TF.SameCoordinates,Original*%
%TF.FileFunction,Drillmap*%
%TF.FilePolarity,Positive*%
%FSLAX45Y45*%
G04 Gerber Fmt 4.5, Leading zero omitted, Abs format (unit mm)*
G04 Created by KiCad (PCBNEW (6.0.8)) date 2023-07-21 17:03:27*
%MOMM*%
%LPD*%
G01*
G04 APERTURE LIST*
%ADD10C,0.130000*%
%ADD11C,0.200000*%
%ADD12C,0.078740*%
%ADD13C,0.100000*%
%ADD14C,0.120000*%
%ADD15C,0.160000*%
%ADD16C,0.170000*%
%ADD17C,0.220000*%
G04 APERTURE END LIST*
D10*
X7977614Y-7821706D02*
X7978537Y-8134296D01*
X11291783Y-6245753D02*
G75*
G03*
X13651976Y-7063358I1162920J-458386D01*
G01*
X16671000Y-4882000D02*
X16670000Y-5001000D01*
X14936000Y-6115000D02*
X14936000Y-6155000D01*
X16406000Y-5815000D02*
X16039000Y-5815000D01*
X14707117Y-4863358D02*
G75*
G03*
X14498546Y-2458215I-1225000J1105385D01*
G01*
X14936000Y-6467000D02*
X14936000Y-6515000D01*
X8666582Y-2703670D02*
G75*
G03*
X7869617Y-2176973I-1269262J-1054260D01*
G01*
X9160866Y-2866973D02*
X11715025Y-2866973D01*
X14936000Y-5384000D02*
X15236000Y-5684000D01*
X6380894Y-2458256D02*
X7869617Y-2176973D01*
X15236000Y-6815000D02*
X16406000Y-6815000D01*
X6277417Y-6169673D02*
X6277417Y-4969673D01*
X9775758Y-6169673D02*
X9777000Y-6341000D01*
X7182000Y-6169673D02*
X6277417Y-6169673D01*
X14936000Y-4984000D02*
X14936000Y-5036000D01*
X10700684Y-6141523D02*
G75*
G03*
X10228846Y-6169673I-231064J-95447D01*
G01*
X10307386Y-7841000D02*
X10707386Y-7841000D01*
X16456000Y-4734000D02*
G75*
G03*
X16406000Y-4684000I-50000J0D01*
G01*
X11291784Y-6245753D02*
X10700679Y-6141525D01*
X16671000Y-4882000D02*
X16801000Y-4752000D01*
X15236000Y-5684000D02*
X15422000Y-5684000D01*
X17701000Y-6572000D02*
X17571000Y-6702000D01*
X15422000Y-5684000D02*
X15422000Y-5815000D01*
X7642000Y-6046000D02*
G75*
G03*
X7264924Y-7321706I812691J-933798D01*
G01*
X14936000Y-5341000D02*
X14710000Y-5341000D01*
X7978537Y-8134296D02*
G75*
G03*
X9378829Y-7841000I490000J1149957D01*
G01*
X11715025Y-2866973D02*
G75*
G03*
X12209930Y-2707240I274948J-5323D01*
G01*
X13009822Y-2177010D02*
G75*
G03*
X12209930Y-2707240I472298J-1580960D01*
G01*
X14936000Y-5341000D02*
X14936000Y-5384000D01*
X16456500Y-5005000D02*
X16456000Y-4734000D01*
X15236000Y-5815000D02*
X15422000Y-5815000D01*
X9777000Y-6341000D02*
X9540271Y-6341000D01*
X16406000Y-4684000D02*
X15236000Y-4684000D01*
X14936000Y-6115000D02*
X15236000Y-5815000D01*
X7642000Y-5577000D02*
X7642000Y-6046000D01*
X6380894Y-2458256D02*
G75*
G03*
X6277417Y-4969673I1016395J-1299718D01*
G01*
X8666584Y-2703668D02*
G75*
G03*
X9160866Y-2866973I219297J-165932D01*
G01*
X16039000Y-5684000D02*
X16406000Y-5684000D01*
X7047614Y-7321706D02*
X7047614Y-7821706D01*
X9775757Y-6169673D02*
G75*
G03*
X7930000Y-5408000I-1296729J-525113D01*
G01*
X10707386Y-7841000D02*
X10707386Y-7441000D01*
X17571000Y-4752000D02*
X17701000Y-4882000D01*
X16671000Y-6470000D02*
X16671000Y-6572000D01*
X10707386Y-7441000D02*
X10307386Y-7441000D01*
X10229000Y-6343000D02*
X10307386Y-6341000D01*
X9378829Y-7841000D02*
X10307386Y-7841000D01*
X16456000Y-5865000D02*
G75*
G03*
X16406000Y-5815000I-50000J0D01*
G01*
X17571000Y-4752000D02*
X16801000Y-4752000D01*
X16456500Y-5005000D02*
X16670000Y-5001000D01*
X7264924Y-7321706D02*
X7047614Y-7321706D01*
X14936000Y-6467000D02*
X14708000Y-6467000D01*
X16406000Y-5684000D02*
G75*
G03*
X16456000Y-5634000I0J50000D01*
G01*
X16406000Y-6815000D02*
G75*
G03*
X16456000Y-6765000I0J50000D01*
G01*
X14936000Y-6155000D02*
X14711000Y-6155000D01*
X7930000Y-5408000D02*
X7930000Y-5856000D01*
X14708000Y-6467000D02*
X14707117Y-7063358D01*
X16801000Y-6702000D02*
X17571000Y-6702000D01*
X16456000Y-6765000D02*
X16456000Y-6472000D01*
X14936000Y-6515000D02*
X15236000Y-6815000D01*
X10228846Y-6169673D02*
X10229000Y-6343000D01*
X9540270Y-6341001D02*
G75*
G03*
X7930000Y-5856000I-1071970J-643429D01*
G01*
X16801000Y-6702000D02*
X16671000Y-6572000D01*
X13009823Y-2177012D02*
X14498546Y-2458215D01*
X14936000Y-4984000D02*
X15236000Y-4684000D01*
X16668000Y-5603000D02*
X16668000Y-5865000D01*
X14936000Y-5036000D02*
X14707000Y-5037000D01*
X7047614Y-7821706D02*
X7977614Y-7821706D01*
X14710000Y-5341000D02*
X14711000Y-6155000D01*
X16456000Y-5603000D02*
X16668000Y-5603000D01*
X16456000Y-6472000D02*
X16671000Y-6470000D01*
X16456000Y-5603000D02*
X16456000Y-5634000D01*
X10307386Y-7441000D02*
X10307386Y-6341000D01*
X14707117Y-7063358D02*
X13651976Y-7063358D01*
X17701000Y-6572000D02*
X17701000Y-4882000D01*
X16456000Y-5865000D02*
X16668000Y-5865000D01*
X7642000Y-5577000D02*
G75*
G03*
X7182000Y-6169673I770410J-1072800D01*
G01*
X16039000Y-5684000D02*
X16039000Y-5815000D01*
X14707000Y-5037000D02*
X14707117Y-4863358D01*
D11*
D12*
X7694630Y-5483630D02*
X7773370Y-5562370D01*
X7773370Y-5483630D02*
X7694630Y-5562370D01*
X7702630Y-5921630D02*
X7781370Y-6000370D01*
X7781370Y-5921630D02*
X7702630Y-6000370D01*
X7807630Y-5410630D02*
X7886370Y-5489370D01*
X7886370Y-5410630D02*
X7807630Y-5489370D01*
X7817630Y-5858630D02*
X7896370Y-5937370D01*
X7896370Y-5858630D02*
X7817630Y-5937370D01*
X9796630Y-6126630D02*
X9875370Y-6205370D01*
X9875370Y-6126630D02*
X9796630Y-6205370D01*
X9798630Y-6301630D02*
X9877370Y-6380370D01*
X9877370Y-6301630D02*
X9798630Y-6380370D01*
X9906630Y-6123630D02*
X9985370Y-6202370D01*
X9985370Y-6123630D02*
X9906630Y-6202370D01*
X9911630Y-6303630D02*
X9990370Y-6382370D01*
X9990370Y-6303630D02*
X9911630Y-6382370D01*
X10015630Y-6121630D02*
X10094370Y-6200370D01*
X10094370Y-6121630D02*
X10015630Y-6200370D01*
X10020630Y-6301630D02*
X10099370Y-6380370D01*
X10099370Y-6301630D02*
X10020630Y-6380370D01*
X10124630Y-6303630D02*
X10203370Y-6382370D01*
X10203370Y-6303630D02*
X10124630Y-6382370D01*
X10127630Y-6123630D02*
X10206370Y-6202370D01*
X10206370Y-6123630D02*
X10127630Y-6202370D01*
X14665630Y-5066630D02*
X14744370Y-5145370D01*
X14744370Y-5066630D02*
X14665630Y-5145370D01*
X14666630Y-6197630D02*
X14745370Y-6276370D01*
X14745370Y-6197630D02*
X14666630Y-6276370D01*
X14668630Y-5200630D02*
X14747370Y-5279370D01*
X14747370Y-5200630D02*
X14668630Y-5279370D01*
X14669630Y-6331630D02*
X14748370Y-6410370D01*
X14748370Y-6331630D02*
X14669630Y-6410370D01*
X14900630Y-5067630D02*
X14979370Y-5146370D01*
X14979370Y-5067630D02*
X14900630Y-5146370D01*
X14901630Y-5206630D02*
X14980370Y-5285370D01*
X14980370Y-5206630D02*
X14901630Y-5285370D01*
X14901630Y-6198630D02*
X14980370Y-6277370D01*
X14980370Y-6198630D02*
X14901630Y-6277370D01*
X14902630Y-6337630D02*
X14981370Y-6416370D01*
X14981370Y-6337630D02*
X14902630Y-6416370D01*
X15455630Y-5643630D02*
X15534370Y-5722370D01*
X15534370Y-5643630D02*
X15455630Y-5722370D01*
X15457630Y-5775630D02*
X15536370Y-5854370D01*
X15536370Y-5775630D02*
X15457630Y-5854370D01*
X15574630Y-5776630D02*
X15653370Y-5855370D01*
X15653370Y-5776630D02*
X15574630Y-5855370D01*
X15575630Y-5644630D02*
X15654370Y-5723370D01*
X15654370Y-5644630D02*
X15575630Y-5723370D01*
X15692630Y-5776630D02*
X15771370Y-5855370D01*
X15771370Y-5776630D02*
X15692630Y-5855370D01*
X15693630Y-5645630D02*
X15772370Y-5724370D01*
X15772370Y-5645630D02*
X15693630Y-5724370D01*
X15806630Y-5643630D02*
X15885370Y-5722370D01*
X15885370Y-5643630D02*
X15806630Y-5722370D01*
X15806630Y-5776630D02*
X15885370Y-5855370D01*
X15885370Y-5776630D02*
X15806630Y-5855370D01*
X15927630Y-5779630D02*
X16006370Y-5858370D01*
X16006370Y-5779630D02*
X15927630Y-5858370D01*
X15928630Y-5641630D02*
X16007370Y-5720370D01*
X16007370Y-5641630D02*
X15928630Y-5720370D01*
X16418630Y-6237630D02*
X16497370Y-6316370D01*
X16497370Y-6237630D02*
X16418630Y-6316370D01*
X16419630Y-5038630D02*
X16498370Y-5117370D01*
X16498370Y-5038630D02*
X16419630Y-5117370D01*
X16419630Y-5144630D02*
X16498370Y-5223370D01*
X16498370Y-5144630D02*
X16419630Y-5223370D01*
X16419630Y-6006630D02*
X16498370Y-6085370D01*
X16498370Y-6006630D02*
X16419630Y-6085370D01*
X16419630Y-6358630D02*
X16498370Y-6437370D01*
X16498370Y-6358630D02*
X16419630Y-6437370D01*
X16420630Y-5370630D02*
X16499370Y-5449370D01*
X16499370Y-5370630D02*
X16420630Y-5449370D01*
X16420630Y-5889630D02*
X16499370Y-5968370D01*
X16499370Y-5889630D02*
X16420630Y-5968370D01*
X16420630Y-6127630D02*
X16499370Y-6206370D01*
X16499370Y-6127630D02*
X16420630Y-6206370D01*
X16421630Y-5253630D02*
X16500370Y-5332370D01*
X16500370Y-5253630D02*
X16421630Y-5332370D01*
X16421630Y-5491630D02*
X16500370Y-5570370D01*
X16500370Y-5491630D02*
X16421630Y-5570370D01*
X16630630Y-5023630D02*
X16709370Y-5102370D01*
X16709370Y-5023630D02*
X16630630Y-5102370D01*
X16631630Y-5144630D02*
X16710370Y-5223370D01*
X16710370Y-5144630D02*
X16631630Y-5223370D01*
X16631630Y-6006630D02*
X16710370Y-6085370D01*
X16710370Y-6006630D02*
X16631630Y-6085370D01*
X16631630Y-6233630D02*
X16710370Y-6312370D01*
X16710370Y-6233630D02*
X16631630Y-6312370D01*
X16632630Y-5370630D02*
X16711370Y-5449370D01*
X16711370Y-5370630D02*
X16632630Y-5449370D01*
X16632630Y-5887630D02*
X16711370Y-5966370D01*
X16711370Y-5887630D02*
X16632630Y-5966370D01*
X16632630Y-6354630D02*
X16711370Y-6433370D01*
X16711370Y-6354630D02*
X16632630Y-6433370D01*
X16633630Y-5251630D02*
X16712370Y-5330370D01*
X16712370Y-5251630D02*
X16633630Y-5330370D01*
X16633630Y-5494630D02*
X16712370Y-5573370D01*
X16712370Y-5494630D02*
X16633630Y-5573370D01*
X16634630Y-6119630D02*
X16713370Y-6198370D01*
X16713370Y-6119630D02*
X16634630Y-6198370D01*
D13*
X9290000Y-4827000D02*
G75*
G03*
X9290000Y-4827000I-50000J0D01*
G01*
X11790000Y-4827000D02*
G75*
G03*
X11790000Y-4827000I-50000J0D01*
G01*
D14*
X7229000Y-7434000D02*
X7229000Y-7554000D01*
X7169000Y-7494000D02*
X7289000Y-7494000D01*
X10044000Y-6689000D02*
X10044000Y-6809000D01*
X9984000Y-6749000D02*
X10104000Y-6749000D01*
D15*
X8605569Y-6554069D02*
X8605569Y-6440931D01*
X8492431Y-6440931D01*
X8492431Y-6554069D01*
X8605569Y-6554069D01*
X8605569Y-7599069D02*
X8605569Y-7485931D01*
X8492431Y-7485931D01*
X8492431Y-7599069D01*
X8605569Y-7599069D01*
X13545569Y-3273069D02*
X13545569Y-3159931D01*
X13432431Y-3159931D01*
X13432431Y-3273069D01*
X13545569Y-3273069D01*
X13545569Y-4318069D02*
X13545569Y-4204931D01*
X13432431Y-4204931D01*
X13432431Y-4318069D01*
X13545569Y-4318069D01*
D16*
X12043000Y-7595000D02*
X12128000Y-7510000D01*
X12043000Y-7425000D01*
X11958000Y-7510000D01*
X12043000Y-7595000D01*
X12923000Y-6000000D02*
X13008000Y-5915000D01*
X12923000Y-5830000D01*
X12838000Y-5915000D01*
X12923000Y-6000000D01*
D11*
X8449000Y-6645000D02*
X8649000Y-6845000D01*
X8649000Y-6645000D02*
X8449000Y-6845000D01*
X8649000Y-6745000D02*
G75*
G03*
X8649000Y-6745000I-100000J0D01*
G01*
X8449000Y-7195000D02*
X8649000Y-7395000D01*
X8649000Y-7195000D02*
X8449000Y-7395000D01*
X8649000Y-7295000D02*
G75*
G03*
X8649000Y-7295000I-100000J0D01*
G01*
X9996000Y-7057000D02*
X10196000Y-7257000D01*
X10196000Y-7057000D02*
X9996000Y-7257000D01*
X10196000Y-7157000D02*
G75*
G03*
X10196000Y-7157000I-100000J0D01*
G01*
X13389000Y-3364000D02*
X13589000Y-3564000D01*
X13589000Y-3364000D02*
X13389000Y-3564000D01*
X13589000Y-3464000D02*
G75*
G03*
X13589000Y-3464000I-100000J0D01*
G01*
X13389000Y-3914000D02*
X13589000Y-4114000D01*
X13589000Y-3914000D02*
X13389000Y-4114000D01*
X13589000Y-4014000D02*
G75*
G03*
X13589000Y-4014000I-100000J0D01*
G01*
X15016000Y-6215000D02*
X15216000Y-6415000D01*
X15216000Y-6215000D02*
X15016000Y-6415000D01*
X15216000Y-6315000D02*
G75*
G03*
X15216000Y-6315000I-100000J0D01*
G01*
X15017000Y-5084000D02*
X15217000Y-5284000D01*
X15217000Y-5084000D02*
X15017000Y-5284000D01*
X15217000Y-5184000D02*
G75*
G03*
X15217000Y-5184000I-100000J0D01*
G01*
X15946000Y-5084000D02*
X16146000Y-5284000D01*
X16146000Y-5084000D02*
X15946000Y-5284000D01*
X16146000Y-5184000D02*
G75*
G03*
X16146000Y-5184000I-100000J0D01*
G01*
X15946000Y-6215000D02*
X16146000Y-6415000D01*
X16146000Y-6215000D02*
X15946000Y-6415000D01*
X16146000Y-6315000D02*
G75*
G03*
X16146000Y-6315000I-100000J0D01*
G01*
D17*
X6478000Y-5353000D02*
X6698000Y-5573000D01*
X6698000Y-5353000D02*
X6478000Y-5573000D01*
X6588000Y-5353000D02*
X6588000Y-5573000D01*
X6478000Y-5463000D02*
X6698000Y-5463000D01*
X10330000Y-3167000D02*
X10550000Y-3387000D01*
X10550000Y-3167000D02*
X10330000Y-3387000D01*
X10440000Y-3167000D02*
X10440000Y-3387000D01*
X10330000Y-3277000D02*
X10550000Y-3277000D01*
X14188000Y-5353000D02*
X14408000Y-5573000D01*
X14408000Y-5353000D02*
X14188000Y-5573000D01*
X14298000Y-5353000D02*
X14298000Y-5573000D01*
X14188000Y-5463000D02*
X14408000Y-5463000D01*
D11*
X5998461Y-8551315D02*
X5998461Y-8351315D01*
X6046080Y-8351315D01*
X6074651Y-8360839D01*
X6093699Y-8379887D01*
X6103222Y-8398934D01*
X6112746Y-8437030D01*
X6112746Y-8465601D01*
X6103222Y-8503696D01*
X6093699Y-8522744D01*
X6074651Y-8541791D01*
X6046080Y-8551315D01*
X5998461Y-8551315D01*
X6198461Y-8551315D02*
X6198461Y-8417982D01*
X6198461Y-8456077D02*
X6207984Y-8437030D01*
X6217508Y-8427506D01*
X6236556Y-8417982D01*
X6255603Y-8417982D01*
X6322270Y-8551315D02*
X6322270Y-8417982D01*
X6322270Y-8351315D02*
X6312746Y-8360839D01*
X6322270Y-8370363D01*
X6331794Y-8360839D01*
X6322270Y-8351315D01*
X6322270Y-8370363D01*
X6446080Y-8551315D02*
X6427032Y-8541791D01*
X6417508Y-8522744D01*
X6417508Y-8351315D01*
X6550842Y-8551315D02*
X6531794Y-8541791D01*
X6522270Y-8522744D01*
X6522270Y-8351315D01*
X6779413Y-8551315D02*
X6779413Y-8351315D01*
X6846080Y-8494172D01*
X6912746Y-8351315D01*
X6912746Y-8551315D01*
X7093699Y-8551315D02*
X7093699Y-8446553D01*
X7084175Y-8427506D01*
X7065127Y-8417982D01*
X7027032Y-8417982D01*
X7007984Y-8427506D01*
X7093699Y-8541791D02*
X7074651Y-8551315D01*
X7027032Y-8551315D01*
X7007984Y-8541791D01*
X6998461Y-8522744D01*
X6998461Y-8503696D01*
X7007984Y-8484649D01*
X7027032Y-8475125D01*
X7074651Y-8475125D01*
X7093699Y-8465601D01*
X7188937Y-8417982D02*
X7188937Y-8617982D01*
X7188937Y-8427506D02*
X7207984Y-8417982D01*
X7246080Y-8417982D01*
X7265127Y-8427506D01*
X7274651Y-8437030D01*
X7284175Y-8456077D01*
X7284175Y-8513220D01*
X7274651Y-8532268D01*
X7265127Y-8541791D01*
X7246080Y-8551315D01*
X7207984Y-8551315D01*
X7188937Y-8541791D01*
X7369889Y-8532268D02*
X7379413Y-8541791D01*
X7369889Y-8551315D01*
X7360365Y-8541791D01*
X7369889Y-8532268D01*
X7369889Y-8551315D01*
X7369889Y-8427506D02*
X7379413Y-8437030D01*
X7369889Y-8446553D01*
X7360365Y-8437030D01*
X7369889Y-8427506D01*
X7369889Y-8446553D01*
D12*
X5662102Y-8841469D02*
X5740842Y-8920209D01*
X5740842Y-8841469D02*
X5662102Y-8920209D01*
D11*
X6036556Y-8771315D02*
X6055603Y-8771315D01*
X6074651Y-8780839D01*
X6084175Y-8790363D01*
X6093699Y-8809411D01*
X6103222Y-8847506D01*
X6103222Y-8895125D01*
X6093699Y-8933220D01*
X6084175Y-8952268D01*
X6074651Y-8961791D01*
X6055603Y-8971315D01*
X6036556Y-8971315D01*
X6017508Y-8961791D01*
X6007984Y-8952268D01*
X5998461Y-8933220D01*
X5988937Y-8895125D01*
X5988937Y-8847506D01*
X5998461Y-8809411D01*
X6007984Y-8790363D01*
X6017508Y-8780839D01*
X6036556Y-8771315D01*
X6188937Y-8952268D02*
X6198461Y-8961791D01*
X6188937Y-8971315D01*
X6179413Y-8961791D01*
X6188937Y-8952268D01*
X6188937Y-8971315D01*
X6265127Y-8771315D02*
X6398461Y-8771315D01*
X6312746Y-8971315D01*
X6503222Y-8857030D02*
X6484175Y-8847506D01*
X6474651Y-8837982D01*
X6465127Y-8818934D01*
X6465127Y-8809411D01*
X6474651Y-8790363D01*
X6484175Y-8780839D01*
X6503222Y-8771315D01*
X6541318Y-8771315D01*
X6560365Y-8780839D01*
X6569889Y-8790363D01*
X6579413Y-8809411D01*
X6579413Y-8818934D01*
X6569889Y-8837982D01*
X6560365Y-8847506D01*
X6541318Y-8857030D01*
X6503222Y-8857030D01*
X6484175Y-8866553D01*
X6474651Y-8876077D01*
X6465127Y-8895125D01*
X6465127Y-8933220D01*
X6474651Y-8952268D01*
X6484175Y-8961791D01*
X6503222Y-8971315D01*
X6541318Y-8971315D01*
X6560365Y-8961791D01*
X6569889Y-8952268D01*
X6579413Y-8933220D01*
X6579413Y-8895125D01*
X6569889Y-8876077D01*
X6560365Y-8866553D01*
X6541318Y-8857030D01*
X6646080Y-8771315D02*
X6779413Y-8771315D01*
X6693699Y-8971315D01*
X6855603Y-8971315D02*
X6855603Y-8837982D01*
X6855603Y-8857030D02*
X6865127Y-8847506D01*
X6884175Y-8837982D01*
X6912746Y-8837982D01*
X6931794Y-8847506D01*
X6941318Y-8866553D01*
X6941318Y-8971315D01*
X6941318Y-8866553D02*
X6950842Y-8847506D01*
X6969889Y-8837982D01*
X6998461Y-8837982D01*
X7017508Y-8847506D01*
X7027032Y-8866553D01*
X7027032Y-8971315D01*
X7122270Y-8971315D02*
X7122270Y-8837982D01*
X7122270Y-8857030D02*
X7131794Y-8847506D01*
X7150842Y-8837982D01*
X7179413Y-8837982D01*
X7198461Y-8847506D01*
X7207984Y-8866553D01*
X7207984Y-8971315D01*
X7207984Y-8866553D02*
X7217508Y-8847506D01*
X7236556Y-8837982D01*
X7265127Y-8837982D01*
X7284175Y-8847506D01*
X7293699Y-8866553D01*
X7293699Y-8971315D01*
X7684175Y-8761791D02*
X7512746Y-9018934D01*
X7941318Y-8771315D02*
X7960365Y-8771315D01*
X7979413Y-8780839D01*
X7988937Y-8790363D01*
X7998461Y-8809411D01*
X8007984Y-8847506D01*
X8007984Y-8895125D01*
X7998461Y-8933220D01*
X7988937Y-8952268D01*
X7979413Y-8961791D01*
X7960365Y-8971315D01*
X7941318Y-8971315D01*
X7922270Y-8961791D01*
X7912746Y-8952268D01*
X7903222Y-8933220D01*
X7893699Y-8895125D01*
X7893699Y-8847506D01*
X7903222Y-8809411D01*
X7912746Y-8790363D01*
X7922270Y-8780839D01*
X7941318Y-8771315D01*
X8093699Y-8952268D02*
X8103222Y-8961791D01*
X8093699Y-8971315D01*
X8084175Y-8961791D01*
X8093699Y-8952268D01*
X8093699Y-8971315D01*
X8227032Y-8771315D02*
X8246080Y-8771315D01*
X8265127Y-8780839D01*
X8274651Y-8790363D01*
X8284175Y-8809411D01*
X8293699Y-8847506D01*
X8293699Y-8895125D01*
X8284175Y-8933220D01*
X8274651Y-8952268D01*
X8265127Y-8961791D01*
X8246080Y-8971315D01*
X8227032Y-8971315D01*
X8207984Y-8961791D01*
X8198461Y-8952268D01*
X8188937Y-8933220D01*
X8179413Y-8895125D01*
X8179413Y-8847506D01*
X8188937Y-8809411D01*
X8198461Y-8790363D01*
X8207984Y-8780839D01*
X8227032Y-8771315D01*
X8360365Y-8771315D02*
X8484175Y-8771315D01*
X8417508Y-8847506D01*
X8446080Y-8847506D01*
X8465127Y-8857030D01*
X8474651Y-8866553D01*
X8484175Y-8885601D01*
X8484175Y-8933220D01*
X8474651Y-8952268D01*
X8465127Y-8961791D01*
X8446080Y-8971315D01*
X8388937Y-8971315D01*
X8369889Y-8961791D01*
X8360365Y-8952268D01*
X8674651Y-8971315D02*
X8560365Y-8971315D01*
X8617508Y-8971315D02*
X8617508Y-8771315D01*
X8598461Y-8799887D01*
X8579413Y-8818934D01*
X8560365Y-8828458D01*
X8798461Y-8771315D02*
X8817508Y-8771315D01*
X8836556Y-8780839D01*
X8846080Y-8790363D01*
X8855604Y-8809411D01*
X8865127Y-8847506D01*
X8865127Y-8895125D01*
X8855604Y-8933220D01*
X8846080Y-8952268D01*
X8836556Y-8961791D01*
X8817508Y-8971315D01*
X8798461Y-8971315D01*
X8779413Y-8961791D01*
X8769889Y-8952268D01*
X8760365Y-8933220D01*
X8750842Y-8895125D01*
X8750842Y-8847506D01*
X8760365Y-8809411D01*
X8769889Y-8790363D01*
X8779413Y-8780839D01*
X8798461Y-8771315D01*
X8941318Y-8771315D02*
X8941318Y-8809411D01*
X9017508Y-8771315D02*
X9017508Y-8809411D01*
X9312746Y-9047506D02*
X9303223Y-9037982D01*
X9284175Y-9009411D01*
X9274651Y-8990363D01*
X9265127Y-8961791D01*
X9255604Y-8914172D01*
X9255604Y-8876077D01*
X9265127Y-8828458D01*
X9274651Y-8799887D01*
X9284175Y-8780839D01*
X9303223Y-8752268D01*
X9312746Y-8742744D01*
X9484175Y-8771315D02*
X9388937Y-8771315D01*
X9379413Y-8866553D01*
X9388937Y-8857030D01*
X9407984Y-8847506D01*
X9455604Y-8847506D01*
X9474651Y-8857030D01*
X9484175Y-8866553D01*
X9493699Y-8885601D01*
X9493699Y-8933220D01*
X9484175Y-8952268D01*
X9474651Y-8961791D01*
X9455604Y-8971315D01*
X9407984Y-8971315D01*
X9388937Y-8961791D01*
X9379413Y-8952268D01*
X9617508Y-8771315D02*
X9636556Y-8771315D01*
X9655604Y-8780839D01*
X9665127Y-8790363D01*
X9674651Y-8809411D01*
X9684175Y-8847506D01*
X9684175Y-8895125D01*
X9674651Y-8933220D01*
X9665127Y-8952268D01*
X9655604Y-8961791D01*
X9636556Y-8971315D01*
X9617508Y-8971315D01*
X9598461Y-8961791D01*
X9588937Y-8952268D01*
X9579413Y-8933220D01*
X9569889Y-8895125D01*
X9569889Y-8847506D01*
X9579413Y-8809411D01*
X9588937Y-8790363D01*
X9598461Y-8780839D01*
X9617508Y-8771315D01*
X9922270Y-8971315D02*
X9922270Y-8771315D01*
X10007984Y-8971315D02*
X10007984Y-8866553D01*
X9998461Y-8847506D01*
X9979413Y-8837982D01*
X9950842Y-8837982D01*
X9931794Y-8847506D01*
X9922270Y-8857030D01*
X10131794Y-8971315D02*
X10112746Y-8961791D01*
X10103223Y-8952268D01*
X10093699Y-8933220D01*
X10093699Y-8876077D01*
X10103223Y-8857030D01*
X10112746Y-8847506D01*
X10131794Y-8837982D01*
X10160365Y-8837982D01*
X10179413Y-8847506D01*
X10188937Y-8857030D01*
X10198461Y-8876077D01*
X10198461Y-8933220D01*
X10188937Y-8952268D01*
X10179413Y-8961791D01*
X10160365Y-8971315D01*
X10131794Y-8971315D01*
X10312746Y-8971315D02*
X10293699Y-8961791D01*
X10284175Y-8942744D01*
X10284175Y-8771315D01*
X10465127Y-8961791D02*
X10446080Y-8971315D01*
X10407984Y-8971315D01*
X10388937Y-8961791D01*
X10379413Y-8942744D01*
X10379413Y-8866553D01*
X10388937Y-8847506D01*
X10407984Y-8837982D01*
X10446080Y-8837982D01*
X10465127Y-8847506D01*
X10474651Y-8866553D01*
X10474651Y-8885601D01*
X10379413Y-8904649D01*
X10550842Y-8961791D02*
X10569889Y-8971315D01*
X10607984Y-8971315D01*
X10627032Y-8961791D01*
X10636556Y-8942744D01*
X10636556Y-8933220D01*
X10627032Y-8914172D01*
X10607984Y-8904649D01*
X10579413Y-8904649D01*
X10560365Y-8895125D01*
X10550842Y-8876077D01*
X10550842Y-8866553D01*
X10560365Y-8847506D01*
X10579413Y-8837982D01*
X10607984Y-8837982D01*
X10627032Y-8847506D01*
X10703223Y-9047506D02*
X10712746Y-9037982D01*
X10731794Y-9009411D01*
X10741318Y-8990363D01*
X10750842Y-8961791D01*
X10760365Y-8914172D01*
X10760365Y-8876077D01*
X10750842Y-8828458D01*
X10741318Y-8799887D01*
X10731794Y-8780839D01*
X10712746Y-8752268D01*
X10703223Y-8742744D01*
X11065127Y-9047506D02*
X11055604Y-9037982D01*
X11036556Y-9009411D01*
X11027032Y-8990363D01*
X11017508Y-8961791D01*
X11007984Y-8914172D01*
X11007984Y-8876077D01*
X11017508Y-8828458D01*
X11027032Y-8799887D01*
X11036556Y-8780839D01*
X11055604Y-8752268D01*
X11065127Y-8742744D01*
X11141318Y-8837982D02*
X11141318Y-8971315D01*
X11141318Y-8857030D02*
X11150842Y-8847506D01*
X11169889Y-8837982D01*
X11198461Y-8837982D01*
X11217508Y-8847506D01*
X11227032Y-8866553D01*
X11227032Y-8971315D01*
X11350841Y-8971315D02*
X11331794Y-8961791D01*
X11322270Y-8952268D01*
X11312746Y-8933220D01*
X11312746Y-8876077D01*
X11322270Y-8857030D01*
X11331794Y-8847506D01*
X11350841Y-8837982D01*
X11379413Y-8837982D01*
X11398461Y-8847506D01*
X11407984Y-8857030D01*
X11417508Y-8876077D01*
X11417508Y-8933220D01*
X11407984Y-8952268D01*
X11398461Y-8961791D01*
X11379413Y-8971315D01*
X11350841Y-8971315D01*
X11474651Y-8837982D02*
X11550841Y-8837982D01*
X11503222Y-8771315D02*
X11503222Y-8942744D01*
X11512746Y-8961791D01*
X11531794Y-8971315D01*
X11550841Y-8971315D01*
X11769889Y-8837982D02*
X11769889Y-9037982D01*
X11769889Y-8847506D02*
X11788937Y-8837982D01*
X11827032Y-8837982D01*
X11846080Y-8847506D01*
X11855603Y-8857030D01*
X11865127Y-8876077D01*
X11865127Y-8933220D01*
X11855603Y-8952268D01*
X11846080Y-8961791D01*
X11827032Y-8971315D01*
X11788937Y-8971315D01*
X11769889Y-8961791D01*
X11979413Y-8971315D02*
X11960365Y-8961791D01*
X11950841Y-8942744D01*
X11950841Y-8771315D01*
X12141318Y-8971315D02*
X12141318Y-8866553D01*
X12131794Y-8847506D01*
X12112746Y-8837982D01*
X12074651Y-8837982D01*
X12055603Y-8847506D01*
X12141318Y-8961791D02*
X12122270Y-8971315D01*
X12074651Y-8971315D01*
X12055603Y-8961791D01*
X12046080Y-8942744D01*
X12046080Y-8923696D01*
X12055603Y-8904649D01*
X12074651Y-8895125D01*
X12122270Y-8895125D01*
X12141318Y-8885601D01*
X12207984Y-8837982D02*
X12284175Y-8837982D01*
X12236556Y-8771315D02*
X12236556Y-8942744D01*
X12246080Y-8961791D01*
X12265127Y-8971315D01*
X12284175Y-8971315D01*
X12427032Y-8961791D02*
X12407984Y-8971315D01*
X12369889Y-8971315D01*
X12350841Y-8961791D01*
X12341318Y-8942744D01*
X12341318Y-8866553D01*
X12350841Y-8847506D01*
X12369889Y-8837982D01*
X12407984Y-8837982D01*
X12427032Y-8847506D01*
X12436556Y-8866553D01*
X12436556Y-8885601D01*
X12341318Y-8904649D01*
X12607984Y-8971315D02*
X12607984Y-8771315D01*
X12607984Y-8961791D02*
X12588937Y-8971315D01*
X12550841Y-8971315D01*
X12531794Y-8961791D01*
X12522270Y-8952268D01*
X12512746Y-8933220D01*
X12512746Y-8876077D01*
X12522270Y-8857030D01*
X12531794Y-8847506D01*
X12550841Y-8837982D01*
X12588937Y-8837982D01*
X12607984Y-8847506D01*
X12684175Y-9047506D02*
X12693699Y-9037982D01*
X12712746Y-9009411D01*
X12722270Y-8990363D01*
X12731794Y-8961791D01*
X12741318Y-8914172D01*
X12741318Y-8876077D01*
X12731794Y-8828458D01*
X12722270Y-8799887D01*
X12712746Y-8780839D01*
X12693699Y-8752268D01*
X12684175Y-8742744D01*
D13*
X5740842Y-9144839D02*
G75*
G03*
X5740842Y-9144839I-50000J0D01*
G01*
D11*
X6103222Y-9235315D02*
X5988937Y-9235315D01*
X6046080Y-9235315D02*
X6046080Y-9035315D01*
X6027032Y-9063887D01*
X6007984Y-9082934D01*
X5988937Y-9092458D01*
X6188937Y-9216268D02*
X6198461Y-9225791D01*
X6188937Y-9235315D01*
X6179413Y-9225791D01*
X6188937Y-9216268D01*
X6188937Y-9235315D01*
X6322270Y-9035315D02*
X6341318Y-9035315D01*
X6360365Y-9044839D01*
X6369889Y-9054363D01*
X6379413Y-9073411D01*
X6388937Y-9111506D01*
X6388937Y-9159125D01*
X6379413Y-9197220D01*
X6369889Y-9216268D01*
X6360365Y-9225791D01*
X6341318Y-9235315D01*
X6322270Y-9235315D01*
X6303222Y-9225791D01*
X6293699Y-9216268D01*
X6284175Y-9197220D01*
X6274651Y-9159125D01*
X6274651Y-9111506D01*
X6284175Y-9073411D01*
X6293699Y-9054363D01*
X6303222Y-9044839D01*
X6322270Y-9035315D01*
X6512746Y-9035315D02*
X6531794Y-9035315D01*
X6550842Y-9044839D01*
X6560365Y-9054363D01*
X6569889Y-9073411D01*
X6579413Y-9111506D01*
X6579413Y-9159125D01*
X6569889Y-9197220D01*
X6560365Y-9216268D01*
X6550842Y-9225791D01*
X6531794Y-9235315D01*
X6512746Y-9235315D01*
X6493699Y-9225791D01*
X6484175Y-9216268D01*
X6474651Y-9197220D01*
X6465127Y-9159125D01*
X6465127Y-9111506D01*
X6474651Y-9073411D01*
X6484175Y-9054363D01*
X6493699Y-9044839D01*
X6512746Y-9035315D01*
X6703222Y-9035315D02*
X6722270Y-9035315D01*
X6741318Y-9044839D01*
X6750842Y-9054363D01*
X6760365Y-9073411D01*
X6769889Y-9111506D01*
X6769889Y-9159125D01*
X6760365Y-9197220D01*
X6750842Y-9216268D01*
X6741318Y-9225791D01*
X6722270Y-9235315D01*
X6703222Y-9235315D01*
X6684175Y-9225791D01*
X6674651Y-9216268D01*
X6665127Y-9197220D01*
X6655603Y-9159125D01*
X6655603Y-9111506D01*
X6665127Y-9073411D01*
X6674651Y-9054363D01*
X6684175Y-9044839D01*
X6703222Y-9035315D01*
X6855603Y-9235315D02*
X6855603Y-9101982D01*
X6855603Y-9121030D02*
X6865127Y-9111506D01*
X6884175Y-9101982D01*
X6912746Y-9101982D01*
X6931794Y-9111506D01*
X6941318Y-9130553D01*
X6941318Y-9235315D01*
X6941318Y-9130553D02*
X6950842Y-9111506D01*
X6969889Y-9101982D01*
X6998461Y-9101982D01*
X7017508Y-9111506D01*
X7027032Y-9130553D01*
X7027032Y-9235315D01*
X7122270Y-9235315D02*
X7122270Y-9101982D01*
X7122270Y-9121030D02*
X7131794Y-9111506D01*
X7150842Y-9101982D01*
X7179413Y-9101982D01*
X7198461Y-9111506D01*
X7207984Y-9130553D01*
X7207984Y-9235315D01*
X7207984Y-9130553D02*
X7217508Y-9111506D01*
X7236556Y-9101982D01*
X7265127Y-9101982D01*
X7284175Y-9111506D01*
X7293699Y-9130553D01*
X7293699Y-9235315D01*
X7684175Y-9025791D02*
X7512746Y-9282934D01*
X7941318Y-9035315D02*
X7960365Y-9035315D01*
X7979413Y-9044839D01*
X7988937Y-9054363D01*
X7998461Y-9073411D01*
X8007984Y-9111506D01*
X8007984Y-9159125D01*
X7998461Y-9197220D01*
X7988937Y-9216268D01*
X7979413Y-9225791D01*
X7960365Y-9235315D01*
X7941318Y-9235315D01*
X7922270Y-9225791D01*
X7912746Y-9216268D01*
X7903222Y-9197220D01*
X7893699Y-9159125D01*
X7893699Y-9111506D01*
X7903222Y-9073411D01*
X7912746Y-9054363D01*
X7922270Y-9044839D01*
X7941318Y-9035315D01*
X8093699Y-9216268D02*
X8103222Y-9225791D01*
X8093699Y-9235315D01*
X8084175Y-9225791D01*
X8093699Y-9216268D01*
X8093699Y-9235315D01*
X8227032Y-9035315D02*
X8246080Y-9035315D01*
X8265127Y-9044839D01*
X8274651Y-9054363D01*
X8284175Y-9073411D01*
X8293699Y-9111506D01*
X8293699Y-9159125D01*
X8284175Y-9197220D01*
X8274651Y-9216268D01*
X8265127Y-9225791D01*
X8246080Y-9235315D01*
X8227032Y-9235315D01*
X8207984Y-9225791D01*
X8198461Y-9216268D01*
X8188937Y-9197220D01*
X8179413Y-9159125D01*
X8179413Y-9111506D01*
X8188937Y-9073411D01*
X8198461Y-9054363D01*
X8207984Y-9044839D01*
X8227032Y-9035315D01*
X8360365Y-9035315D02*
X8484175Y-9035315D01*
X8417508Y-9111506D01*
X8446080Y-9111506D01*
X8465127Y-9121030D01*
X8474651Y-9130553D01*
X8484175Y-9149601D01*
X8484175Y-9197220D01*
X8474651Y-9216268D01*
X8465127Y-9225791D01*
X8446080Y-9235315D01*
X8388937Y-9235315D01*
X8369889Y-9225791D01*
X8360365Y-9216268D01*
X8579413Y-9235315D02*
X8617508Y-9235315D01*
X8636556Y-9225791D01*
X8646080Y-9216268D01*
X8665127Y-9187696D01*
X8674651Y-9149601D01*
X8674651Y-9073411D01*
X8665127Y-9054363D01*
X8655604Y-9044839D01*
X8636556Y-9035315D01*
X8598461Y-9035315D01*
X8579413Y-9044839D01*
X8569889Y-9054363D01*
X8560365Y-9073411D01*
X8560365Y-9121030D01*
X8569889Y-9140077D01*
X8579413Y-9149601D01*
X8598461Y-9159125D01*
X8636556Y-9159125D01*
X8655604Y-9149601D01*
X8665127Y-9140077D01*
X8674651Y-9121030D01*
X8846080Y-9101982D02*
X8846080Y-9235315D01*
X8798461Y-9025791D02*
X8750842Y-9168649D01*
X8874651Y-9168649D01*
X8941318Y-9035315D02*
X8941318Y-9073411D01*
X9017508Y-9035315D02*
X9017508Y-9073411D01*
X9312746Y-9311506D02*
X9303223Y-9301982D01*
X9284175Y-9273411D01*
X9274651Y-9254363D01*
X9265127Y-9225791D01*
X9255604Y-9178172D01*
X9255604Y-9140077D01*
X9265127Y-9092458D01*
X9274651Y-9063887D01*
X9284175Y-9044839D01*
X9303223Y-9016268D01*
X9312746Y-9006744D01*
X9379413Y-9054363D02*
X9388937Y-9044839D01*
X9407984Y-9035315D01*
X9455604Y-9035315D01*
X9474651Y-9044839D01*
X9484175Y-9054363D01*
X9493699Y-9073411D01*
X9493699Y-9092458D01*
X9484175Y-9121030D01*
X9369889Y-9235315D01*
X9493699Y-9235315D01*
X9731794Y-9235315D02*
X9731794Y-9035315D01*
X9817508Y-9235315D02*
X9817508Y-9130553D01*
X9807984Y-9111506D01*
X9788937Y-9101982D01*
X9760365Y-9101982D01*
X9741318Y-9111506D01*
X9731794Y-9121030D01*
X9941318Y-9235315D02*
X9922270Y-9225791D01*
X9912746Y-9216268D01*
X9903223Y-9197220D01*
X9903223Y-9140077D01*
X9912746Y-9121030D01*
X9922270Y-9111506D01*
X9941318Y-9101982D01*
X9969889Y-9101982D01*
X9988937Y-9111506D01*
X9998461Y-9121030D01*
X10007984Y-9140077D01*
X10007984Y-9197220D01*
X9998461Y-9216268D01*
X9988937Y-9225791D01*
X9969889Y-9235315D01*
X9941318Y-9235315D01*
X10122270Y-9235315D02*
X10103223Y-9225791D01*
X10093699Y-9206744D01*
X10093699Y-9035315D01*
X10274651Y-9225791D02*
X10255604Y-9235315D01*
X10217508Y-9235315D01*
X10198461Y-9225791D01*
X10188937Y-9206744D01*
X10188937Y-9130553D01*
X10198461Y-9111506D01*
X10217508Y-9101982D01*
X10255604Y-9101982D01*
X10274651Y-9111506D01*
X10284175Y-9130553D01*
X10284175Y-9149601D01*
X10188937Y-9168649D01*
X10360365Y-9225791D02*
X10379413Y-9235315D01*
X10417508Y-9235315D01*
X10436556Y-9225791D01*
X10446080Y-9206744D01*
X10446080Y-9197220D01*
X10436556Y-9178172D01*
X10417508Y-9168649D01*
X10388937Y-9168649D01*
X10369889Y-9159125D01*
X10360365Y-9140077D01*
X10360365Y-9130553D01*
X10369889Y-9111506D01*
X10388937Y-9101982D01*
X10417508Y-9101982D01*
X10436556Y-9111506D01*
X10512746Y-9311506D02*
X10522270Y-9301982D01*
X10541318Y-9273411D01*
X10550842Y-9254363D01*
X10560365Y-9225791D01*
X10569889Y-9178172D01*
X10569889Y-9140077D01*
X10560365Y-9092458D01*
X10550842Y-9063887D01*
X10541318Y-9044839D01*
X10522270Y-9016268D01*
X10512746Y-9006744D01*
X10874651Y-9311506D02*
X10865127Y-9301982D01*
X10846080Y-9273411D01*
X10836556Y-9254363D01*
X10827032Y-9225791D01*
X10817508Y-9178172D01*
X10817508Y-9140077D01*
X10827032Y-9092458D01*
X10836556Y-9063887D01*
X10846080Y-9044839D01*
X10865127Y-9016268D01*
X10874651Y-9006744D01*
X10950842Y-9101982D02*
X10950842Y-9235315D01*
X10950842Y-9121030D02*
X10960365Y-9111506D01*
X10979413Y-9101982D01*
X11007984Y-9101982D01*
X11027032Y-9111506D01*
X11036556Y-9130553D01*
X11036556Y-9235315D01*
X11160365Y-9235315D02*
X11141318Y-9225791D01*
X11131794Y-9216268D01*
X11122270Y-9197220D01*
X11122270Y-9140077D01*
X11131794Y-9121030D01*
X11141318Y-9111506D01*
X11160365Y-9101982D01*
X11188937Y-9101982D01*
X11207984Y-9111506D01*
X11217508Y-9121030D01*
X11227032Y-9140077D01*
X11227032Y-9197220D01*
X11217508Y-9216268D01*
X11207984Y-9225791D01*
X11188937Y-9235315D01*
X11160365Y-9235315D01*
X11284175Y-9101982D02*
X11360365Y-9101982D01*
X11312746Y-9035315D02*
X11312746Y-9206744D01*
X11322270Y-9225791D01*
X11341318Y-9235315D01*
X11360365Y-9235315D01*
X11579413Y-9101982D02*
X11579413Y-9301982D01*
X11579413Y-9111506D02*
X11598461Y-9101982D01*
X11636556Y-9101982D01*
X11655603Y-9111506D01*
X11665127Y-9121030D01*
X11674651Y-9140077D01*
X11674651Y-9197220D01*
X11665127Y-9216268D01*
X11655603Y-9225791D01*
X11636556Y-9235315D01*
X11598461Y-9235315D01*
X11579413Y-9225791D01*
X11788937Y-9235315D02*
X11769889Y-9225791D01*
X11760365Y-9206744D01*
X11760365Y-9035315D01*
X11950841Y-9235315D02*
X11950841Y-9130553D01*
X11941318Y-9111506D01*
X11922270Y-9101982D01*
X11884175Y-9101982D01*
X11865127Y-9111506D01*
X11950841Y-9225791D02*
X11931794Y-9235315D01*
X11884175Y-9235315D01*
X11865127Y-9225791D01*
X11855603Y-9206744D01*
X11855603Y-9187696D01*
X11865127Y-9168649D01*
X11884175Y-9159125D01*
X11931794Y-9159125D01*
X11950841Y-9149601D01*
X12017508Y-9101982D02*
X12093699Y-9101982D01*
X12046080Y-9035315D02*
X12046080Y-9206744D01*
X12055603Y-9225791D01*
X12074651Y-9235315D01*
X12093699Y-9235315D01*
X12236556Y-9225791D02*
X12217508Y-9235315D01*
X12179413Y-9235315D01*
X12160365Y-9225791D01*
X12150841Y-9206744D01*
X12150841Y-9130553D01*
X12160365Y-9111506D01*
X12179413Y-9101982D01*
X12217508Y-9101982D01*
X12236556Y-9111506D01*
X12246080Y-9130553D01*
X12246080Y-9149601D01*
X12150841Y-9168649D01*
X12417508Y-9235315D02*
X12417508Y-9035315D01*
X12417508Y-9225791D02*
X12398461Y-9235315D01*
X12360365Y-9235315D01*
X12341318Y-9225791D01*
X12331794Y-9216268D01*
X12322270Y-9197220D01*
X12322270Y-9140077D01*
X12331794Y-9121030D01*
X12341318Y-9111506D01*
X12360365Y-9101982D01*
X12398461Y-9101982D01*
X12417508Y-9111506D01*
X12493699Y-9311506D02*
X12503222Y-9301982D01*
X12522270Y-9273411D01*
X12531794Y-9254363D01*
X12541318Y-9225791D01*
X12550841Y-9178172D01*
X12550841Y-9140077D01*
X12541318Y-9092458D01*
X12531794Y-9063887D01*
X12522270Y-9044839D01*
X12503222Y-9016268D01*
X12493699Y-9006744D01*
D14*
X5680842Y-9348839D02*
X5680842Y-9468839D01*
X5620842Y-9408839D02*
X5740842Y-9408839D01*
D11*
X6103222Y-9499315D02*
X5988937Y-9499315D01*
X6046080Y-9499315D02*
X6046080Y-9299315D01*
X6027032Y-9327887D01*
X6007984Y-9346934D01*
X5988937Y-9356458D01*
X6188937Y-9480268D02*
X6198461Y-9489791D01*
X6188937Y-9499315D01*
X6179413Y-9489791D01*
X6188937Y-9480268D01*
X6188937Y-9499315D01*
X6274651Y-9318363D02*
X6284175Y-9308839D01*
X6303222Y-9299315D01*
X6350842Y-9299315D01*
X6369889Y-9308839D01*
X6379413Y-9318363D01*
X6388937Y-9337411D01*
X6388937Y-9356458D01*
X6379413Y-9385030D01*
X6265127Y-9499315D01*
X6388937Y-9499315D01*
X6512746Y-9299315D02*
X6531794Y-9299315D01*
X6550842Y-9308839D01*
X6560365Y-9318363D01*
X6569889Y-9337411D01*
X6579413Y-9375506D01*
X6579413Y-9423125D01*
X6569889Y-9461220D01*
X6560365Y-9480268D01*
X6550842Y-9489791D01*
X6531794Y-9499315D01*
X6512746Y-9499315D01*
X6493699Y-9489791D01*
X6484175Y-9480268D01*
X6474651Y-9461220D01*
X6465127Y-9423125D01*
X6465127Y-9375506D01*
X6474651Y-9337411D01*
X6484175Y-9318363D01*
X6493699Y-9308839D01*
X6512746Y-9299315D01*
X6703222Y-9299315D02*
X6722270Y-9299315D01*
X6741318Y-9308839D01*
X6750842Y-9318363D01*
X6760365Y-9337411D01*
X6769889Y-9375506D01*
X6769889Y-9423125D01*
X6760365Y-9461220D01*
X6750842Y-9480268D01*
X6741318Y-9489791D01*
X6722270Y-9499315D01*
X6703222Y-9499315D01*
X6684175Y-9489791D01*
X6674651Y-9480268D01*
X6665127Y-9461220D01*
X6655603Y-9423125D01*
X6655603Y-9375506D01*
X6665127Y-9337411D01*
X6674651Y-9318363D01*
X6684175Y-9308839D01*
X6703222Y-9299315D01*
X6855603Y-9499315D02*
X6855603Y-9365982D01*
X6855603Y-9385030D02*
X6865127Y-9375506D01*
X6884175Y-9365982D01*
X6912746Y-9365982D01*
X6931794Y-9375506D01*
X6941318Y-9394553D01*
X6941318Y-9499315D01*
X6941318Y-9394553D02*
X6950842Y-9375506D01*
X6969889Y-9365982D01*
X6998461Y-9365982D01*
X7017508Y-9375506D01*
X7027032Y-9394553D01*
X7027032Y-9499315D01*
X7122270Y-9499315D02*
X7122270Y-9365982D01*
X7122270Y-9385030D02*
X7131794Y-9375506D01*
X7150842Y-9365982D01*
X7179413Y-9365982D01*
X7198461Y-9375506D01*
X7207984Y-9394553D01*
X7207984Y-9499315D01*
X7207984Y-9394553D02*
X7217508Y-9375506D01*
X7236556Y-9365982D01*
X7265127Y-9365982D01*
X7284175Y-9375506D01*
X7293699Y-9394553D01*
X7293699Y-9499315D01*
X7684175Y-9289791D02*
X7512746Y-9546934D01*
X7941318Y-9299315D02*
X7960365Y-9299315D01*
X7979413Y-9308839D01*
X7988937Y-9318363D01*
X7998461Y-9337411D01*
X8007984Y-9375506D01*
X8007984Y-9423125D01*
X7998461Y-9461220D01*
X7988937Y-9480268D01*
X7979413Y-9489791D01*
X7960365Y-9499315D01*
X7941318Y-9499315D01*
X7922270Y-9489791D01*
X7912746Y-9480268D01*
X7903222Y-9461220D01*
X7893699Y-9423125D01*
X7893699Y-9375506D01*
X7903222Y-9337411D01*
X7912746Y-9318363D01*
X7922270Y-9308839D01*
X7941318Y-9299315D01*
X8093699Y-9480268D02*
X8103222Y-9489791D01*
X8093699Y-9499315D01*
X8084175Y-9489791D01*
X8093699Y-9480268D01*
X8093699Y-9499315D01*
X8227032Y-9299315D02*
X8246080Y-9299315D01*
X8265127Y-9308839D01*
X8274651Y-9318363D01*
X8284175Y-9337411D01*
X8293699Y-9375506D01*
X8293699Y-9423125D01*
X8284175Y-9461220D01*
X8274651Y-9480268D01*
X8265127Y-9489791D01*
X8246080Y-9499315D01*
X8227032Y-9499315D01*
X8207984Y-9489791D01*
X8198461Y-9480268D01*
X8188937Y-9461220D01*
X8179413Y-9423125D01*
X8179413Y-9375506D01*
X8188937Y-9337411D01*
X8198461Y-9318363D01*
X8207984Y-9308839D01*
X8227032Y-9299315D01*
X8465127Y-9365982D02*
X8465127Y-9499315D01*
X8417508Y-9289791D02*
X8369889Y-9432649D01*
X8493699Y-9432649D01*
X8550842Y-9299315D02*
X8684175Y-9299315D01*
X8598461Y-9499315D01*
X8750842Y-9318363D02*
X8760365Y-9308839D01*
X8779413Y-9299315D01*
X8827032Y-9299315D01*
X8846080Y-9308839D01*
X8855604Y-9318363D01*
X8865127Y-9337411D01*
X8865127Y-9356458D01*
X8855604Y-9385030D01*
X8741318Y-9499315D01*
X8865127Y-9499315D01*
X8941318Y-9299315D02*
X8941318Y-9337411D01*
X9017508Y-9299315D02*
X9017508Y-9337411D01*
X9312746Y-9575506D02*
X9303223Y-9565982D01*
X9284175Y-9537411D01*
X9274651Y-9518363D01*
X9265127Y-9489791D01*
X9255604Y-9442172D01*
X9255604Y-9404077D01*
X9265127Y-9356458D01*
X9274651Y-9327887D01*
X9284175Y-9308839D01*
X9303223Y-9280268D01*
X9312746Y-9270744D01*
X9379413Y-9318363D02*
X9388937Y-9308839D01*
X9407984Y-9299315D01*
X9455604Y-9299315D01*
X9474651Y-9308839D01*
X9484175Y-9318363D01*
X9493699Y-9337411D01*
X9493699Y-9356458D01*
X9484175Y-9385030D01*
X9369889Y-9499315D01*
X9493699Y-9499315D01*
X9731794Y-9499315D02*
X9731794Y-9299315D01*
X9817508Y-9499315D02*
X9817508Y-9394553D01*
X9807984Y-9375506D01*
X9788937Y-9365982D01*
X9760365Y-9365982D01*
X9741318Y-9375506D01*
X9731794Y-9385030D01*
X9941318Y-9499315D02*
X9922270Y-9489791D01*
X9912746Y-9480268D01*
X9903223Y-9461220D01*
X9903223Y-9404077D01*
X9912746Y-9385030D01*
X9922270Y-9375506D01*
X9941318Y-9365982D01*
X9969889Y-9365982D01*
X9988937Y-9375506D01*
X9998461Y-9385030D01*
X10007984Y-9404077D01*
X10007984Y-9461220D01*
X9998461Y-9480268D01*
X9988937Y-9489791D01*
X9969889Y-9499315D01*
X9941318Y-9499315D01*
X10122270Y-9499315D02*
X10103223Y-9489791D01*
X10093699Y-9470744D01*
X10093699Y-9299315D01*
X10274651Y-9489791D02*
X10255604Y-9499315D01*
X10217508Y-9499315D01*
X10198461Y-9489791D01*
X10188937Y-9470744D01*
X10188937Y-9394553D01*
X10198461Y-9375506D01*
X10217508Y-9365982D01*
X10255604Y-9365982D01*
X10274651Y-9375506D01*
X10284175Y-9394553D01*
X10284175Y-9413601D01*
X10188937Y-9432649D01*
X10360365Y-9489791D02*
X10379413Y-9499315D01*
X10417508Y-9499315D01*
X10436556Y-9489791D01*
X10446080Y-9470744D01*
X10446080Y-9461220D01*
X10436556Y-9442172D01*
X10417508Y-9432649D01*
X10388937Y-9432649D01*
X10369889Y-9423125D01*
X10360365Y-9404077D01*
X10360365Y-9394553D01*
X10369889Y-9375506D01*
X10388937Y-9365982D01*
X10417508Y-9365982D01*
X10436556Y-9375506D01*
X10512746Y-9575506D02*
X10522270Y-9565982D01*
X10541318Y-9537411D01*
X10550842Y-9518363D01*
X10560365Y-9489791D01*
X10569889Y-9442172D01*
X10569889Y-9404077D01*
X10560365Y-9356458D01*
X10550842Y-9327887D01*
X10541318Y-9308839D01*
X10522270Y-9280268D01*
X10512746Y-9270744D01*
X10874651Y-9575506D02*
X10865127Y-9565982D01*
X10846080Y-9537411D01*
X10836556Y-9518363D01*
X10827032Y-9489791D01*
X10817508Y-9442172D01*
X10817508Y-9404077D01*
X10827032Y-9356458D01*
X10836556Y-9327887D01*
X10846080Y-9308839D01*
X10865127Y-9280268D01*
X10874651Y-9270744D01*
X10950842Y-9365982D02*
X10950842Y-9499315D01*
X10950842Y-9385030D02*
X10960365Y-9375506D01*
X10979413Y-9365982D01*
X11007984Y-9365982D01*
X11027032Y-9375506D01*
X11036556Y-9394553D01*
X11036556Y-9499315D01*
X11160365Y-9499315D02*
X11141318Y-9489791D01*
X11131794Y-9480268D01*
X11122270Y-9461220D01*
X11122270Y-9404077D01*
X11131794Y-9385030D01*
X11141318Y-9375506D01*
X11160365Y-9365982D01*
X11188937Y-9365982D01*
X11207984Y-9375506D01*
X11217508Y-9385030D01*
X11227032Y-9404077D01*
X11227032Y-9461220D01*
X11217508Y-9480268D01*
X11207984Y-9489791D01*
X11188937Y-9499315D01*
X11160365Y-9499315D01*
X11284175Y-9365982D02*
X11360365Y-9365982D01*
X11312746Y-9299315D02*
X11312746Y-9470744D01*
X11322270Y-9489791D01*
X11341318Y-9499315D01*
X11360365Y-9499315D01*
X11579413Y-9365982D02*
X11579413Y-9565982D01*
X11579413Y-9375506D02*
X11598461Y-9365982D01*
X11636556Y-9365982D01*
X11655603Y-9375506D01*
X11665127Y-9385030D01*
X11674651Y-9404077D01*
X11674651Y-9461220D01*
X11665127Y-9480268D01*
X11655603Y-9489791D01*
X11636556Y-9499315D01*
X11598461Y-9499315D01*
X11579413Y-9489791D01*
X11788937Y-9499315D02*
X11769889Y-9489791D01*
X11760365Y-9470744D01*
X11760365Y-9299315D01*
X11950841Y-9499315D02*
X11950841Y-9394553D01*
X11941318Y-9375506D01*
X11922270Y-9365982D01*
X11884175Y-9365982D01*
X11865127Y-9375506D01*
X11950841Y-9489791D02*
X11931794Y-9499315D01*
X11884175Y-9499315D01*
X11865127Y-9489791D01*
X11855603Y-9470744D01*
X11855603Y-9451696D01*
X11865127Y-9432649D01*
X11884175Y-9423125D01*
X11931794Y-9423125D01*
X11950841Y-9413601D01*
X12017508Y-9365982D02*
X12093699Y-9365982D01*
X12046080Y-9299315D02*
X12046080Y-9470744D01*
X12055603Y-9489791D01*
X12074651Y-9499315D01*
X12093699Y-9499315D01*
X12236556Y-9489791D02*
X12217508Y-9499315D01*
X12179413Y-9499315D01*
X12160365Y-9489791D01*
X12150841Y-9470744D01*
X12150841Y-9394553D01*
X12160365Y-9375506D01*
X12179413Y-9365982D01*
X12217508Y-9365982D01*
X12236556Y-9375506D01*
X12246080Y-9394553D01*
X12246080Y-9413601D01*
X12150841Y-9432649D01*
X12417508Y-9499315D02*
X12417508Y-9299315D01*
X12417508Y-9489791D02*
X12398461Y-9499315D01*
X12360365Y-9499315D01*
X12341318Y-9489791D01*
X12331794Y-9480268D01*
X12322270Y-9461220D01*
X12322270Y-9404077D01*
X12331794Y-9385030D01*
X12341318Y-9375506D01*
X12360365Y-9365982D01*
X12398461Y-9365982D01*
X12417508Y-9375506D01*
X12493699Y-9575506D02*
X12503222Y-9565982D01*
X12522270Y-9537411D01*
X12531794Y-9518363D01*
X12541318Y-9489791D01*
X12550841Y-9442172D01*
X12550841Y-9404077D01*
X12541318Y-9356458D01*
X12531794Y-9327887D01*
X12522270Y-9308839D01*
X12503222Y-9280268D01*
X12493699Y-9270744D01*
D15*
X5717411Y-9729408D02*
X5717411Y-9616270D01*
X5604272Y-9616270D01*
X5604272Y-9729408D01*
X5717411Y-9729408D01*
D11*
X6103222Y-9763315D02*
X5988937Y-9763315D01*
X6046080Y-9763315D02*
X6046080Y-9563315D01*
X6027032Y-9591887D01*
X6007984Y-9610934D01*
X5988937Y-9620458D01*
X6188937Y-9744268D02*
X6198461Y-9753791D01*
X6188937Y-9763315D01*
X6179413Y-9753791D01*
X6188937Y-9744268D01*
X6188937Y-9763315D01*
X6369889Y-9563315D02*
X6331794Y-9563315D01*
X6312746Y-9572839D01*
X6303222Y-9582363D01*
X6284175Y-9610934D01*
X6274651Y-9649030D01*
X6274651Y-9725220D01*
X6284175Y-9744268D01*
X6293699Y-9753791D01*
X6312746Y-9763315D01*
X6350842Y-9763315D01*
X6369889Y-9753791D01*
X6379413Y-9744268D01*
X6388937Y-9725220D01*
X6388937Y-9677601D01*
X6379413Y-9658553D01*
X6369889Y-9649030D01*
X6350842Y-9639506D01*
X6312746Y-9639506D01*
X6293699Y-9649030D01*
X6284175Y-9658553D01*
X6274651Y-9677601D01*
X6512746Y-9563315D02*
X6531794Y-9563315D01*
X6550842Y-9572839D01*
X6560365Y-9582363D01*
X6569889Y-9601411D01*
X6579413Y-9639506D01*
X6579413Y-9687125D01*
X6569889Y-9725220D01*
X6560365Y-9744268D01*
X6550842Y-9753791D01*
X6531794Y-9763315D01*
X6512746Y-9763315D01*
X6493699Y-9753791D01*
X6484175Y-9744268D01*
X6474651Y-9725220D01*
X6465127Y-9687125D01*
X6465127Y-9639506D01*
X6474651Y-9601411D01*
X6484175Y-9582363D01*
X6493699Y-9572839D01*
X6512746Y-9563315D01*
X6703222Y-9563315D02*
X6722270Y-9563315D01*
X6741318Y-9572839D01*
X6750842Y-9582363D01*
X6760365Y-9601411D01*
X6769889Y-9639506D01*
X6769889Y-9687125D01*
X6760365Y-9725220D01*
X6750842Y-9744268D01*
X6741318Y-9753791D01*
X6722270Y-9763315D01*
X6703222Y-9763315D01*
X6684175Y-9753791D01*
X6674651Y-9744268D01*
X6665127Y-9725220D01*
X6655603Y-9687125D01*
X6655603Y-9639506D01*
X6665127Y-9601411D01*
X6674651Y-9582363D01*
X6684175Y-9572839D01*
X6703222Y-9563315D01*
X6855603Y-9763315D02*
X6855603Y-9629982D01*
X6855603Y-9649030D02*
X6865127Y-9639506D01*
X6884175Y-9629982D01*
X6912746Y-9629982D01*
X6931794Y-9639506D01*
X6941318Y-9658553D01*
X6941318Y-9763315D01*
X6941318Y-9658553D02*
X6950842Y-9639506D01*
X6969889Y-9629982D01*
X6998461Y-9629982D01*
X7017508Y-9639506D01*
X7027032Y-9658553D01*
X7027032Y-9763315D01*
X7122270Y-9763315D02*
X7122270Y-9629982D01*
X7122270Y-9649030D02*
X7131794Y-9639506D01*
X7150842Y-9629982D01*
X7179413Y-9629982D01*
X7198461Y-9639506D01*
X7207984Y-9658553D01*
X7207984Y-9763315D01*
X7207984Y-9658553D02*
X7217508Y-9639506D01*
X7236556Y-9629982D01*
X7265127Y-9629982D01*
X7284175Y-9639506D01*
X7293699Y-9658553D01*
X7293699Y-9763315D01*
X7684175Y-9553791D02*
X7512746Y-9810934D01*
X7941318Y-9563315D02*
X7960365Y-9563315D01*
X7979413Y-9572839D01*
X7988937Y-9582363D01*
X7998461Y-9601411D01*
X8007984Y-9639506D01*
X8007984Y-9687125D01*
X7998461Y-9725220D01*
X7988937Y-9744268D01*
X7979413Y-9753791D01*
X7960365Y-9763315D01*
X7941318Y-9763315D01*
X7922270Y-9753791D01*
X7912746Y-9744268D01*
X7903222Y-9725220D01*
X7893699Y-9687125D01*
X7893699Y-9639506D01*
X7903222Y-9601411D01*
X7912746Y-9582363D01*
X7922270Y-9572839D01*
X7941318Y-9563315D01*
X8093699Y-9744268D02*
X8103222Y-9753791D01*
X8093699Y-9763315D01*
X8084175Y-9753791D01*
X8093699Y-9744268D01*
X8093699Y-9763315D01*
X8227032Y-9563315D02*
X8246080Y-9563315D01*
X8265127Y-9572839D01*
X8274651Y-9582363D01*
X8284175Y-9601411D01*
X8293699Y-9639506D01*
X8293699Y-9687125D01*
X8284175Y-9725220D01*
X8274651Y-9744268D01*
X8265127Y-9753791D01*
X8246080Y-9763315D01*
X8227032Y-9763315D01*
X8207984Y-9753791D01*
X8198461Y-9744268D01*
X8188937Y-9725220D01*
X8179413Y-9687125D01*
X8179413Y-9639506D01*
X8188937Y-9601411D01*
X8198461Y-9582363D01*
X8207984Y-9572839D01*
X8227032Y-9563315D01*
X8465127Y-9563315D02*
X8427032Y-9563315D01*
X8407984Y-9572839D01*
X8398461Y-9582363D01*
X8379413Y-9610934D01*
X8369889Y-9649030D01*
X8369889Y-9725220D01*
X8379413Y-9744268D01*
X8388937Y-9753791D01*
X8407984Y-9763315D01*
X8446080Y-9763315D01*
X8465127Y-9753791D01*
X8474651Y-9744268D01*
X8484175Y-9725220D01*
X8484175Y-9677601D01*
X8474651Y-9658553D01*
X8465127Y-9649030D01*
X8446080Y-9639506D01*
X8407984Y-9639506D01*
X8388937Y-9649030D01*
X8379413Y-9658553D01*
X8369889Y-9677601D01*
X8550842Y-9563315D02*
X8674651Y-9563315D01*
X8607984Y-9639506D01*
X8636556Y-9639506D01*
X8655604Y-9649030D01*
X8665127Y-9658553D01*
X8674651Y-9677601D01*
X8674651Y-9725220D01*
X8665127Y-9744268D01*
X8655604Y-9753791D01*
X8636556Y-9763315D01*
X8579413Y-9763315D01*
X8560365Y-9753791D01*
X8550842Y-9744268D01*
X8798461Y-9563315D02*
X8817508Y-9563315D01*
X8836556Y-9572839D01*
X8846080Y-9582363D01*
X8855604Y-9601411D01*
X8865127Y-9639506D01*
X8865127Y-9687125D01*
X8855604Y-9725220D01*
X8846080Y-9744268D01*
X8836556Y-9753791D01*
X8817508Y-9763315D01*
X8798461Y-9763315D01*
X8779413Y-9753791D01*
X8769889Y-9744268D01*
X8760365Y-9725220D01*
X8750842Y-9687125D01*
X8750842Y-9639506D01*
X8760365Y-9601411D01*
X8769889Y-9582363D01*
X8779413Y-9572839D01*
X8798461Y-9563315D01*
X8941318Y-9563315D02*
X8941318Y-9601411D01*
X9017508Y-9563315D02*
X9017508Y-9601411D01*
X9312746Y-9839506D02*
X9303223Y-9829982D01*
X9284175Y-9801411D01*
X9274651Y-9782363D01*
X9265127Y-9753791D01*
X9255604Y-9706172D01*
X9255604Y-9668077D01*
X9265127Y-9620458D01*
X9274651Y-9591887D01*
X9284175Y-9572839D01*
X9303223Y-9544268D01*
X9312746Y-9534744D01*
X9474651Y-9629982D02*
X9474651Y-9763315D01*
X9427032Y-9553791D02*
X9379413Y-9696649D01*
X9503223Y-9696649D01*
X9731794Y-9763315D02*
X9731794Y-9563315D01*
X9817508Y-9763315D02*
X9817508Y-9658553D01*
X9807984Y-9639506D01*
X9788937Y-9629982D01*
X9760365Y-9629982D01*
X9741318Y-9639506D01*
X9731794Y-9649030D01*
X9941318Y-9763315D02*
X9922270Y-9753791D01*
X9912746Y-9744268D01*
X9903223Y-9725220D01*
X9903223Y-9668077D01*
X9912746Y-9649030D01*
X9922270Y-9639506D01*
X9941318Y-9629982D01*
X9969889Y-9629982D01*
X9988937Y-9639506D01*
X9998461Y-9649030D01*
X10007984Y-9668077D01*
X10007984Y-9725220D01*
X9998461Y-9744268D01*
X9988937Y-9753791D01*
X9969889Y-9763315D01*
X9941318Y-9763315D01*
X10122270Y-9763315D02*
X10103223Y-9753791D01*
X10093699Y-9734744D01*
X10093699Y-9563315D01*
X10274651Y-9753791D02*
X10255604Y-9763315D01*
X10217508Y-9763315D01*
X10198461Y-9753791D01*
X10188937Y-9734744D01*
X10188937Y-9658553D01*
X10198461Y-9639506D01*
X10217508Y-9629982D01*
X10255604Y-9629982D01*
X10274651Y-9639506D01*
X10284175Y-9658553D01*
X10284175Y-9677601D01*
X10188937Y-9696649D01*
X10360365Y-9753791D02*
X10379413Y-9763315D01*
X10417508Y-9763315D01*
X10436556Y-9753791D01*
X10446080Y-9734744D01*
X10446080Y-9725220D01*
X10436556Y-9706172D01*
X10417508Y-9696649D01*
X10388937Y-9696649D01*
X10369889Y-9687125D01*
X10360365Y-9668077D01*
X10360365Y-9658553D01*
X10369889Y-9639506D01*
X10388937Y-9629982D01*
X10417508Y-9629982D01*
X10436556Y-9639506D01*
X10512746Y-9839506D02*
X10522270Y-9829982D01*
X10541318Y-9801411D01*
X10550842Y-9782363D01*
X10560365Y-9753791D01*
X10569889Y-9706172D01*
X10569889Y-9668077D01*
X10560365Y-9620458D01*
X10550842Y-9591887D01*
X10541318Y-9572839D01*
X10522270Y-9544268D01*
X10512746Y-9534744D01*
X10874651Y-9839506D02*
X10865127Y-9829982D01*
X10846080Y-9801411D01*
X10836556Y-9782363D01*
X10827032Y-9753791D01*
X10817508Y-9706172D01*
X10817508Y-9668077D01*
X10827032Y-9620458D01*
X10836556Y-9591887D01*
X10846080Y-9572839D01*
X10865127Y-9544268D01*
X10874651Y-9534744D01*
X10950842Y-9629982D02*
X10950842Y-9763315D01*
X10950842Y-9649030D02*
X10960365Y-9639506D01*
X10979413Y-9629982D01*
X11007984Y-9629982D01*
X11027032Y-9639506D01*
X11036556Y-9658553D01*
X11036556Y-9763315D01*
X11160365Y-9763315D02*
X11141318Y-9753791D01*
X11131794Y-9744268D01*
X11122270Y-9725220D01*
X11122270Y-9668077D01*
X11131794Y-9649030D01*
X11141318Y-9639506D01*
X11160365Y-9629982D01*
X11188937Y-9629982D01*
X11207984Y-9639506D01*
X11217508Y-9649030D01*
X11227032Y-9668077D01*
X11227032Y-9725220D01*
X11217508Y-9744268D01*
X11207984Y-9753791D01*
X11188937Y-9763315D01*
X11160365Y-9763315D01*
X11284175Y-9629982D02*
X11360365Y-9629982D01*
X11312746Y-9563315D02*
X11312746Y-9734744D01*
X11322270Y-9753791D01*
X11341318Y-9763315D01*
X11360365Y-9763315D01*
X11579413Y-9629982D02*
X11579413Y-9829982D01*
X11579413Y-9639506D02*
X11598461Y-9629982D01*
X11636556Y-9629982D01*
X11655603Y-9639506D01*
X11665127Y-9649030D01*
X11674651Y-9668077D01*
X11674651Y-9725220D01*
X11665127Y-9744268D01*
X11655603Y-9753791D01*
X11636556Y-9763315D01*
X11598461Y-9763315D01*
X11579413Y-9753791D01*
X11788937Y-9763315D02*
X11769889Y-9753791D01*
X11760365Y-9734744D01*
X11760365Y-9563315D01*
X11950841Y-9763315D02*
X11950841Y-9658553D01*
X11941318Y-9639506D01*
X11922270Y-9629982D01*
X11884175Y-9629982D01*
X11865127Y-9639506D01*
X11950841Y-9753791D02*
X11931794Y-9763315D01*
X11884175Y-9763315D01*
X11865127Y-9753791D01*
X11855603Y-9734744D01*
X11855603Y-9715696D01*
X11865127Y-9696649D01*
X11884175Y-9687125D01*
X11931794Y-9687125D01*
X11950841Y-9677601D01*
X12017508Y-9629982D02*
X12093699Y-9629982D01*
X12046080Y-9563315D02*
X12046080Y-9734744D01*
X12055603Y-9753791D01*
X12074651Y-9763315D01*
X12093699Y-9763315D01*
X12236556Y-9753791D02*
X12217508Y-9763315D01*
X12179413Y-9763315D01*
X12160365Y-9753791D01*
X12150841Y-9734744D01*
X12150841Y-9658553D01*
X12160365Y-9639506D01*
X12179413Y-9629982D01*
X12217508Y-9629982D01*
X12236556Y-9639506D01*
X12246080Y-9658553D01*
X12246080Y-9677601D01*
X12150841Y-9696649D01*
X12417508Y-9763315D02*
X12417508Y-9563315D01*
X12417508Y-9753791D02*
X12398461Y-9763315D01*
X12360365Y-9763315D01*
X12341318Y-9753791D01*
X12331794Y-9744268D01*
X12322270Y-9725220D01*
X12322270Y-9668077D01*
X12331794Y-9649030D01*
X12341318Y-9639506D01*
X12360365Y-9629982D01*
X12398461Y-9629982D01*
X12417508Y-9639506D01*
X12493699Y-9839506D02*
X12503222Y-9829982D01*
X12522270Y-9801411D01*
X12531794Y-9782363D01*
X12541318Y-9753791D01*
X12550841Y-9706172D01*
X12550841Y-9668077D01*
X12541318Y-9620458D01*
X12531794Y-9591887D01*
X12522270Y-9572839D01*
X12503222Y-9544268D01*
X12493699Y-9534744D01*
D16*
X5655842Y-10037839D02*
X5740842Y-9952839D01*
X5655842Y-9867839D01*
X5570842Y-9952839D01*
X5655842Y-10037839D01*
D11*
X6103222Y-10043315D02*
X5988937Y-10043315D01*
X6046080Y-10043315D02*
X6046080Y-9843315D01*
X6027032Y-9871887D01*
X6007984Y-9890934D01*
X5988937Y-9900458D01*
X6188937Y-10024268D02*
X6198461Y-10033791D01*
X6188937Y-10043315D01*
X6179413Y-10033791D01*
X6188937Y-10024268D01*
X6188937Y-10043315D01*
X6265127Y-9843315D02*
X6398461Y-9843315D01*
X6312746Y-10043315D01*
X6512746Y-9843315D02*
X6531794Y-9843315D01*
X6550842Y-9852839D01*
X6560365Y-9862363D01*
X6569889Y-9881411D01*
X6579413Y-9919506D01*
X6579413Y-9967125D01*
X6569889Y-10005220D01*
X6560365Y-10024268D01*
X6550842Y-10033791D01*
X6531794Y-10043315D01*
X6512746Y-10043315D01*
X6493699Y-10033791D01*
X6484175Y-10024268D01*
X6474651Y-10005220D01*
X6465127Y-9967125D01*
X6465127Y-9919506D01*
X6474651Y-9881411D01*
X6484175Y-9862363D01*
X6493699Y-9852839D01*
X6512746Y-9843315D01*
X6703222Y-9843315D02*
X6722270Y-9843315D01*
X6741318Y-9852839D01*
X6750842Y-9862363D01*
X6760365Y-9881411D01*
X6769889Y-9919506D01*
X6769889Y-9967125D01*
X6760365Y-10005220D01*
X6750842Y-10024268D01*
X6741318Y-10033791D01*
X6722270Y-10043315D01*
X6703222Y-10043315D01*
X6684175Y-10033791D01*
X6674651Y-10024268D01*
X6665127Y-10005220D01*
X6655603Y-9967125D01*
X6655603Y-9919506D01*
X6665127Y-9881411D01*
X6674651Y-9862363D01*
X6684175Y-9852839D01*
X6703222Y-9843315D01*
X6855603Y-10043315D02*
X6855603Y-9909982D01*
X6855603Y-9929030D02*
X6865127Y-9919506D01*
X6884175Y-9909982D01*
X6912746Y-9909982D01*
X6931794Y-9919506D01*
X6941318Y-9938553D01*
X6941318Y-10043315D01*
X6941318Y-9938553D02*
X6950842Y-9919506D01*
X6969889Y-9909982D01*
X6998461Y-9909982D01*
X7017508Y-9919506D01*
X7027032Y-9938553D01*
X7027032Y-10043315D01*
X7122270Y-10043315D02*
X7122270Y-9909982D01*
X7122270Y-9929030D02*
X7131794Y-9919506D01*
X7150842Y-9909982D01*
X7179413Y-9909982D01*
X7198461Y-9919506D01*
X7207984Y-9938553D01*
X7207984Y-10043315D01*
X7207984Y-9938553D02*
X7217508Y-9919506D01*
X7236556Y-9909982D01*
X7265127Y-9909982D01*
X7284175Y-9919506D01*
X7293699Y-9938553D01*
X7293699Y-10043315D01*
X7684175Y-9833791D02*
X7512746Y-10090934D01*
X7941318Y-9843315D02*
X7960365Y-9843315D01*
X7979413Y-9852839D01*
X7988937Y-9862363D01*
X7998461Y-9881411D01*
X8007984Y-9919506D01*
X8007984Y-9967125D01*
X7998461Y-10005220D01*
X7988937Y-10024268D01*
X7979413Y-10033791D01*
X7960365Y-10043315D01*
X7941318Y-10043315D01*
X7922270Y-10033791D01*
X7912746Y-10024268D01*
X7903222Y-10005220D01*
X7893699Y-9967125D01*
X7893699Y-9919506D01*
X7903222Y-9881411D01*
X7912746Y-9862363D01*
X7922270Y-9852839D01*
X7941318Y-9843315D01*
X8093699Y-10024268D02*
X8103222Y-10033791D01*
X8093699Y-10043315D01*
X8084175Y-10033791D01*
X8093699Y-10024268D01*
X8093699Y-10043315D01*
X8227032Y-9843315D02*
X8246080Y-9843315D01*
X8265127Y-9852839D01*
X8274651Y-9862363D01*
X8284175Y-9881411D01*
X8293699Y-9919506D01*
X8293699Y-9967125D01*
X8284175Y-10005220D01*
X8274651Y-10024268D01*
X8265127Y-10033791D01*
X8246080Y-10043315D01*
X8227032Y-10043315D01*
X8207984Y-10033791D01*
X8198461Y-10024268D01*
X8188937Y-10005220D01*
X8179413Y-9967125D01*
X8179413Y-9919506D01*
X8188937Y-9881411D01*
X8198461Y-9862363D01*
X8207984Y-9852839D01*
X8227032Y-9843315D01*
X8465127Y-9843315D02*
X8427032Y-9843315D01*
X8407984Y-9852839D01*
X8398461Y-9862363D01*
X8379413Y-9890934D01*
X8369889Y-9929030D01*
X8369889Y-10005220D01*
X8379413Y-10024268D01*
X8388937Y-10033791D01*
X8407984Y-10043315D01*
X8446080Y-10043315D01*
X8465127Y-10033791D01*
X8474651Y-10024268D01*
X8484175Y-10005220D01*
X8484175Y-9957601D01*
X8474651Y-9938553D01*
X8465127Y-9929030D01*
X8446080Y-9919506D01*
X8407984Y-9919506D01*
X8388937Y-9929030D01*
X8379413Y-9938553D01*
X8369889Y-9957601D01*
X8655604Y-9843315D02*
X8617508Y-9843315D01*
X8598461Y-9852839D01*
X8588937Y-9862363D01*
X8569889Y-9890934D01*
X8560365Y-9929030D01*
X8560365Y-10005220D01*
X8569889Y-10024268D01*
X8579413Y-10033791D01*
X8598461Y-10043315D01*
X8636556Y-10043315D01*
X8655604Y-10033791D01*
X8665127Y-10024268D01*
X8674651Y-10005220D01*
X8674651Y-9957601D01*
X8665127Y-9938553D01*
X8655604Y-9929030D01*
X8636556Y-9919506D01*
X8598461Y-9919506D01*
X8579413Y-9929030D01*
X8569889Y-9938553D01*
X8560365Y-9957601D01*
X8769889Y-10043315D02*
X8807984Y-10043315D01*
X8827032Y-10033791D01*
X8836556Y-10024268D01*
X8855604Y-9995696D01*
X8865127Y-9957601D01*
X8865127Y-9881411D01*
X8855604Y-9862363D01*
X8846080Y-9852839D01*
X8827032Y-9843315D01*
X8788937Y-9843315D01*
X8769889Y-9852839D01*
X8760365Y-9862363D01*
X8750842Y-9881411D01*
X8750842Y-9929030D01*
X8760365Y-9948077D01*
X8769889Y-9957601D01*
X8788937Y-9967125D01*
X8827032Y-9967125D01*
X8846080Y-9957601D01*
X8855604Y-9948077D01*
X8865127Y-9929030D01*
X8941318Y-9843315D02*
X8941318Y-9881411D01*
X9017508Y-9843315D02*
X9017508Y-9881411D01*
X9312746Y-10119506D02*
X9303223Y-10109982D01*
X9284175Y-10081411D01*
X9274651Y-10062363D01*
X9265127Y-10033791D01*
X9255604Y-9986172D01*
X9255604Y-9948077D01*
X9265127Y-9900458D01*
X9274651Y-9871887D01*
X9284175Y-9852839D01*
X9303223Y-9824268D01*
X9312746Y-9814744D01*
X9379413Y-9862363D02*
X9388937Y-9852839D01*
X9407984Y-9843315D01*
X9455604Y-9843315D01*
X9474651Y-9852839D01*
X9484175Y-9862363D01*
X9493699Y-9881411D01*
X9493699Y-9900458D01*
X9484175Y-9929030D01*
X9369889Y-10043315D01*
X9493699Y-10043315D01*
X9731794Y-10043315D02*
X9731794Y-9843315D01*
X9817508Y-10043315D02*
X9817508Y-9938553D01*
X9807984Y-9919506D01*
X9788937Y-9909982D01*
X9760365Y-9909982D01*
X9741318Y-9919506D01*
X9731794Y-9929030D01*
X9941318Y-10043315D02*
X9922270Y-10033791D01*
X9912746Y-10024268D01*
X9903223Y-10005220D01*
X9903223Y-9948077D01*
X9912746Y-9929030D01*
X9922270Y-9919506D01*
X9941318Y-9909982D01*
X9969889Y-9909982D01*
X9988937Y-9919506D01*
X9998461Y-9929030D01*
X10007984Y-9948077D01*
X10007984Y-10005220D01*
X9998461Y-10024268D01*
X9988937Y-10033791D01*
X9969889Y-10043315D01*
X9941318Y-10043315D01*
X10122270Y-10043315D02*
X10103223Y-10033791D01*
X10093699Y-10014744D01*
X10093699Y-9843315D01*
X10274651Y-10033791D02*
X10255604Y-10043315D01*
X10217508Y-10043315D01*
X10198461Y-10033791D01*
X10188937Y-10014744D01*
X10188937Y-9938553D01*
X10198461Y-9919506D01*
X10217508Y-9909982D01*
X10255604Y-9909982D01*
X10274651Y-9919506D01*
X10284175Y-9938553D01*
X10284175Y-9957601D01*
X10188937Y-9976649D01*
X10360365Y-10033791D02*
X10379413Y-10043315D01*
X10417508Y-10043315D01*
X10436556Y-10033791D01*
X10446080Y-10014744D01*
X10446080Y-10005220D01*
X10436556Y-9986172D01*
X10417508Y-9976649D01*
X10388937Y-9976649D01*
X10369889Y-9967125D01*
X10360365Y-9948077D01*
X10360365Y-9938553D01*
X10369889Y-9919506D01*
X10388937Y-9909982D01*
X10417508Y-9909982D01*
X10436556Y-9919506D01*
X10512746Y-10119506D02*
X10522270Y-10109982D01*
X10541318Y-10081411D01*
X10550842Y-10062363D01*
X10560365Y-10033791D01*
X10569889Y-9986172D01*
X10569889Y-9948077D01*
X10560365Y-9900458D01*
X10550842Y-9871887D01*
X10541318Y-9852839D01*
X10522270Y-9824268D01*
X10512746Y-9814744D01*
X10874651Y-10119506D02*
X10865127Y-10109982D01*
X10846080Y-10081411D01*
X10836556Y-10062363D01*
X10827032Y-10033791D01*
X10817508Y-9986172D01*
X10817508Y-9948077D01*
X10827032Y-9900458D01*
X10836556Y-9871887D01*
X10846080Y-9852839D01*
X10865127Y-9824268D01*
X10874651Y-9814744D01*
X10950842Y-9909982D02*
X10950842Y-10043315D01*
X10950842Y-9929030D02*
X10960365Y-9919506D01*
X10979413Y-9909982D01*
X11007984Y-9909982D01*
X11027032Y-9919506D01*
X11036556Y-9938553D01*
X11036556Y-10043315D01*
X11160365Y-10043315D02*
X11141318Y-10033791D01*
X11131794Y-10024268D01*
X11122270Y-10005220D01*
X11122270Y-9948077D01*
X11131794Y-9929030D01*
X11141318Y-9919506D01*
X11160365Y-9909982D01*
X11188937Y-9909982D01*
X11207984Y-9919506D01*
X11217508Y-9929030D01*
X11227032Y-9948077D01*
X11227032Y-10005220D01*
X11217508Y-10024268D01*
X11207984Y-10033791D01*
X11188937Y-10043315D01*
X11160365Y-10043315D01*
X11284175Y-9909982D02*
X11360365Y-9909982D01*
X11312746Y-9843315D02*
X11312746Y-10014744D01*
X11322270Y-10033791D01*
X11341318Y-10043315D01*
X11360365Y-10043315D01*
X11579413Y-9909982D02*
X11579413Y-10109982D01*
X11579413Y-9919506D02*
X11598461Y-9909982D01*
X11636556Y-9909982D01*
X11655603Y-9919506D01*
X11665127Y-9929030D01*
X11674651Y-9948077D01*
X11674651Y-10005220D01*
X11665127Y-10024268D01*
X11655603Y-10033791D01*
X11636556Y-10043315D01*
X11598461Y-10043315D01*
X11579413Y-10033791D01*
X11788937Y-10043315D02*
X11769889Y-10033791D01*
X11760365Y-10014744D01*
X11760365Y-9843315D01*
X11950841Y-10043315D02*
X11950841Y-9938553D01*
X11941318Y-9919506D01*
X11922270Y-9909982D01*
X11884175Y-9909982D01*
X11865127Y-9919506D01*
X11950841Y-10033791D02*
X11931794Y-10043315D01*
X11884175Y-10043315D01*
X11865127Y-10033791D01*
X11855603Y-10014744D01*
X11855603Y-9995696D01*
X11865127Y-9976649D01*
X11884175Y-9967125D01*
X11931794Y-9967125D01*
X11950841Y-9957601D01*
X12017508Y-9909982D02*
X12093699Y-9909982D01*
X12046080Y-9843315D02*
X12046080Y-10014744D01*
X12055603Y-10033791D01*
X12074651Y-10043315D01*
X12093699Y-10043315D01*
X12236556Y-10033791D02*
X12217508Y-10043315D01*
X12179413Y-10043315D01*
X12160365Y-10033791D01*
X12150841Y-10014744D01*
X12150841Y-9938553D01*
X12160365Y-9919506D01*
X12179413Y-9909982D01*
X12217508Y-9909982D01*
X12236556Y-9919506D01*
X12246080Y-9938553D01*
X12246080Y-9957601D01*
X12150841Y-9976649D01*
X12417508Y-10043315D02*
X12417508Y-9843315D01*
X12417508Y-10033791D02*
X12398461Y-10043315D01*
X12360365Y-10043315D01*
X12341318Y-10033791D01*
X12331794Y-10024268D01*
X12322270Y-10005220D01*
X12322270Y-9948077D01*
X12331794Y-9929030D01*
X12341318Y-9919506D01*
X12360365Y-9909982D01*
X12398461Y-9909982D01*
X12417508Y-9919506D01*
X12493699Y-10119506D02*
X12503222Y-10109982D01*
X12522270Y-10081411D01*
X12531794Y-10062363D01*
X12541318Y-10033791D01*
X12550841Y-9986172D01*
X12550841Y-9948077D01*
X12541318Y-9900458D01*
X12531794Y-9871887D01*
X12522270Y-9852839D01*
X12503222Y-9824268D01*
X12493699Y-9814744D01*
X5540842Y-10142839D02*
X5740842Y-10342839D01*
X5740842Y-10142839D02*
X5540842Y-10342839D01*
X5740842Y-10242839D02*
G75*
G03*
X5740842Y-10242839I-100000J0D01*
G01*
X5988937Y-10152363D02*
X5998461Y-10142839D01*
X6017508Y-10133315D01*
X6065127Y-10133315D01*
X6084175Y-10142839D01*
X6093699Y-10152363D01*
X6103222Y-10171411D01*
X6103222Y-10190458D01*
X6093699Y-10219030D01*
X5979413Y-10333315D01*
X6103222Y-10333315D01*
X6188937Y-10314268D02*
X6198461Y-10323791D01*
X6188937Y-10333315D01*
X6179413Y-10323791D01*
X6188937Y-10314268D01*
X6188937Y-10333315D01*
X6322270Y-10133315D02*
X6341318Y-10133315D01*
X6360365Y-10142839D01*
X6369889Y-10152363D01*
X6379413Y-10171411D01*
X6388937Y-10209506D01*
X6388937Y-10257125D01*
X6379413Y-10295220D01*
X6369889Y-10314268D01*
X6360365Y-10323791D01*
X6341318Y-10333315D01*
X6322270Y-10333315D01*
X6303222Y-10323791D01*
X6293699Y-10314268D01*
X6284175Y-10295220D01*
X6274651Y-10257125D01*
X6274651Y-10209506D01*
X6284175Y-10171411D01*
X6293699Y-10152363D01*
X6303222Y-10142839D01*
X6322270Y-10133315D01*
X6512746Y-10133315D02*
X6531794Y-10133315D01*
X6550842Y-10142839D01*
X6560365Y-10152363D01*
X6569889Y-10171411D01*
X6579413Y-10209506D01*
X6579413Y-10257125D01*
X6569889Y-10295220D01*
X6560365Y-10314268D01*
X6550842Y-10323791D01*
X6531794Y-10333315D01*
X6512746Y-10333315D01*
X6493699Y-10323791D01*
X6484175Y-10314268D01*
X6474651Y-10295220D01*
X6465127Y-10257125D01*
X6465127Y-10209506D01*
X6474651Y-10171411D01*
X6484175Y-10152363D01*
X6493699Y-10142839D01*
X6512746Y-10133315D01*
X6703222Y-10133315D02*
X6722270Y-10133315D01*
X6741318Y-10142839D01*
X6750842Y-10152363D01*
X6760365Y-10171411D01*
X6769889Y-10209506D01*
X6769889Y-10257125D01*
X6760365Y-10295220D01*
X6750842Y-10314268D01*
X6741318Y-10323791D01*
X6722270Y-10333315D01*
X6703222Y-10333315D01*
X6684175Y-10323791D01*
X6674651Y-10314268D01*
X6665127Y-10295220D01*
X6655603Y-10257125D01*
X6655603Y-10209506D01*
X6665127Y-10171411D01*
X6674651Y-10152363D01*
X6684175Y-10142839D01*
X6703222Y-10133315D01*
X6855603Y-10333315D02*
X6855603Y-10199982D01*
X6855603Y-10219030D02*
X6865127Y-10209506D01*
X6884175Y-10199982D01*
X6912746Y-10199982D01*
X6931794Y-10209506D01*
X6941318Y-10228553D01*
X6941318Y-10333315D01*
X6941318Y-10228553D02*
X6950842Y-10209506D01*
X6969889Y-10199982D01*
X6998461Y-10199982D01*
X7017508Y-10209506D01*
X7027032Y-10228553D01*
X7027032Y-10333315D01*
X7122270Y-10333315D02*
X7122270Y-10199982D01*
X7122270Y-10219030D02*
X7131794Y-10209506D01*
X7150842Y-10199982D01*
X7179413Y-10199982D01*
X7198461Y-10209506D01*
X7207984Y-10228553D01*
X7207984Y-10333315D01*
X7207984Y-10228553D02*
X7217508Y-10209506D01*
X7236556Y-10199982D01*
X7265127Y-10199982D01*
X7284175Y-10209506D01*
X7293699Y-10228553D01*
X7293699Y-10333315D01*
X7684175Y-10123791D02*
X7512746Y-10380934D01*
X7941318Y-10133315D02*
X7960365Y-10133315D01*
X7979413Y-10142839D01*
X7988937Y-10152363D01*
X7998461Y-10171411D01*
X8007984Y-10209506D01*
X8007984Y-10257125D01*
X7998461Y-10295220D01*
X7988937Y-10314268D01*
X7979413Y-10323791D01*
X7960365Y-10333315D01*
X7941318Y-10333315D01*
X7922270Y-10323791D01*
X7912746Y-10314268D01*
X7903222Y-10295220D01*
X7893699Y-10257125D01*
X7893699Y-10209506D01*
X7903222Y-10171411D01*
X7912746Y-10152363D01*
X7922270Y-10142839D01*
X7941318Y-10133315D01*
X8093699Y-10314268D02*
X8103222Y-10323791D01*
X8093699Y-10333315D01*
X8084175Y-10323791D01*
X8093699Y-10314268D01*
X8093699Y-10333315D01*
X8227032Y-10133315D02*
X8246080Y-10133315D01*
X8265127Y-10142839D01*
X8274651Y-10152363D01*
X8284175Y-10171411D01*
X8293699Y-10209506D01*
X8293699Y-10257125D01*
X8284175Y-10295220D01*
X8274651Y-10314268D01*
X8265127Y-10323791D01*
X8246080Y-10333315D01*
X8227032Y-10333315D01*
X8207984Y-10323791D01*
X8198461Y-10314268D01*
X8188937Y-10295220D01*
X8179413Y-10257125D01*
X8179413Y-10209506D01*
X8188937Y-10171411D01*
X8198461Y-10152363D01*
X8207984Y-10142839D01*
X8227032Y-10133315D01*
X8360365Y-10133315D02*
X8493699Y-10133315D01*
X8407984Y-10333315D01*
X8598461Y-10219030D02*
X8579413Y-10209506D01*
X8569889Y-10199982D01*
X8560365Y-10180934D01*
X8560365Y-10171411D01*
X8569889Y-10152363D01*
X8579413Y-10142839D01*
X8598461Y-10133315D01*
X8636556Y-10133315D01*
X8655604Y-10142839D01*
X8665127Y-10152363D01*
X8674651Y-10171411D01*
X8674651Y-10180934D01*
X8665127Y-10199982D01*
X8655604Y-10209506D01*
X8636556Y-10219030D01*
X8598461Y-10219030D01*
X8579413Y-10228553D01*
X8569889Y-10238077D01*
X8560365Y-10257125D01*
X8560365Y-10295220D01*
X8569889Y-10314268D01*
X8579413Y-10323791D01*
X8598461Y-10333315D01*
X8636556Y-10333315D01*
X8655604Y-10323791D01*
X8665127Y-10314268D01*
X8674651Y-10295220D01*
X8674651Y-10257125D01*
X8665127Y-10238077D01*
X8655604Y-10228553D01*
X8636556Y-10219030D01*
X8741318Y-10133315D02*
X8874651Y-10133315D01*
X8788937Y-10333315D01*
X8941318Y-10133315D02*
X8941318Y-10171411D01*
X9017508Y-10133315D02*
X9017508Y-10171411D01*
X9312746Y-10409506D02*
X9303223Y-10399982D01*
X9284175Y-10371411D01*
X9274651Y-10352363D01*
X9265127Y-10323791D01*
X9255604Y-10276172D01*
X9255604Y-10238077D01*
X9265127Y-10190458D01*
X9274651Y-10161887D01*
X9284175Y-10142839D01*
X9303223Y-10114268D01*
X9312746Y-10104744D01*
X9398461Y-10333315D02*
X9436556Y-10333315D01*
X9455604Y-10323791D01*
X9465127Y-10314268D01*
X9484175Y-10285696D01*
X9493699Y-10247601D01*
X9493699Y-10171411D01*
X9484175Y-10152363D01*
X9474651Y-10142839D01*
X9455604Y-10133315D01*
X9417508Y-10133315D01*
X9398461Y-10142839D01*
X9388937Y-10152363D01*
X9379413Y-10171411D01*
X9379413Y-10219030D01*
X9388937Y-10238077D01*
X9398461Y-10247601D01*
X9417508Y-10257125D01*
X9455604Y-10257125D01*
X9474651Y-10247601D01*
X9484175Y-10238077D01*
X9493699Y-10219030D01*
X9731794Y-10333315D02*
X9731794Y-10133315D01*
X9817508Y-10333315D02*
X9817508Y-10228553D01*
X9807984Y-10209506D01*
X9788937Y-10199982D01*
X9760365Y-10199982D01*
X9741318Y-10209506D01*
X9731794Y-10219030D01*
X9941318Y-10333315D02*
X9922270Y-10323791D01*
X9912746Y-10314268D01*
X9903223Y-10295220D01*
X9903223Y-10238077D01*
X9912746Y-10219030D01*
X9922270Y-10209506D01*
X9941318Y-10199982D01*
X9969889Y-10199982D01*
X9988937Y-10209506D01*
X9998461Y-10219030D01*
X10007984Y-10238077D01*
X10007984Y-10295220D01*
X9998461Y-10314268D01*
X9988937Y-10323791D01*
X9969889Y-10333315D01*
X9941318Y-10333315D01*
X10122270Y-10333315D02*
X10103223Y-10323791D01*
X10093699Y-10304744D01*
X10093699Y-10133315D01*
X10274651Y-10323791D02*
X10255604Y-10333315D01*
X10217508Y-10333315D01*
X10198461Y-10323791D01*
X10188937Y-10304744D01*
X10188937Y-10228553D01*
X10198461Y-10209506D01*
X10217508Y-10199982D01*
X10255604Y-10199982D01*
X10274651Y-10209506D01*
X10284175Y-10228553D01*
X10284175Y-10247601D01*
X10188937Y-10266649D01*
X10360365Y-10323791D02*
X10379413Y-10333315D01*
X10417508Y-10333315D01*
X10436556Y-10323791D01*
X10446080Y-10304744D01*
X10446080Y-10295220D01*
X10436556Y-10276172D01*
X10417508Y-10266649D01*
X10388937Y-10266649D01*
X10369889Y-10257125D01*
X10360365Y-10238077D01*
X10360365Y-10228553D01*
X10369889Y-10209506D01*
X10388937Y-10199982D01*
X10417508Y-10199982D01*
X10436556Y-10209506D01*
X10512746Y-10409506D02*
X10522270Y-10399982D01*
X10541318Y-10371411D01*
X10550842Y-10352363D01*
X10560365Y-10323791D01*
X10569889Y-10276172D01*
X10569889Y-10238077D01*
X10560365Y-10190458D01*
X10550842Y-10161887D01*
X10541318Y-10142839D01*
X10522270Y-10114268D01*
X10512746Y-10104744D01*
X10874651Y-10409506D02*
X10865127Y-10399982D01*
X10846080Y-10371411D01*
X10836556Y-10352363D01*
X10827032Y-10323791D01*
X10817508Y-10276172D01*
X10817508Y-10238077D01*
X10827032Y-10190458D01*
X10836556Y-10161887D01*
X10846080Y-10142839D01*
X10865127Y-10114268D01*
X10874651Y-10104744D01*
X10950842Y-10199982D02*
X10950842Y-10333315D01*
X10950842Y-10219030D02*
X10960365Y-10209506D01*
X10979413Y-10199982D01*
X11007984Y-10199982D01*
X11027032Y-10209506D01*
X11036556Y-10228553D01*
X11036556Y-10333315D01*
X11160365Y-10333315D02*
X11141318Y-10323791D01*
X11131794Y-10314268D01*
X11122270Y-10295220D01*
X11122270Y-10238077D01*
X11131794Y-10219030D01*
X11141318Y-10209506D01*
X11160365Y-10199982D01*
X11188937Y-10199982D01*
X11207984Y-10209506D01*
X11217508Y-10219030D01*
X11227032Y-10238077D01*
X11227032Y-10295220D01*
X11217508Y-10314268D01*
X11207984Y-10323791D01*
X11188937Y-10333315D01*
X11160365Y-10333315D01*
X11284175Y-10199982D02*
X11360365Y-10199982D01*
X11312746Y-10133315D02*
X11312746Y-10304744D01*
X11322270Y-10323791D01*
X11341318Y-10333315D01*
X11360365Y-10333315D01*
X11579413Y-10199982D02*
X11579413Y-10399982D01*
X11579413Y-10209506D02*
X11598461Y-10199982D01*
X11636556Y-10199982D01*
X11655603Y-10209506D01*
X11665127Y-10219030D01*
X11674651Y-10238077D01*
X11674651Y-10295220D01*
X11665127Y-10314268D01*
X11655603Y-10323791D01*
X11636556Y-10333315D01*
X11598461Y-10333315D01*
X11579413Y-10323791D01*
X11788937Y-10333315D02*
X11769889Y-10323791D01*
X11760365Y-10304744D01*
X11760365Y-10133315D01*
X11950841Y-10333315D02*
X11950841Y-10228553D01*
X11941318Y-10209506D01*
X11922270Y-10199982D01*
X11884175Y-10199982D01*
X11865127Y-10209506D01*
X11950841Y-10323791D02*
X11931794Y-10333315D01*
X11884175Y-10333315D01*
X11865127Y-10323791D01*
X11855603Y-10304744D01*
X11855603Y-10285696D01*
X11865127Y-10266649D01*
X11884175Y-10257125D01*
X11931794Y-10257125D01*
X11950841Y-10247601D01*
X12017508Y-10199982D02*
X12093699Y-10199982D01*
X12046080Y-10133315D02*
X12046080Y-10304744D01*
X12055603Y-10323791D01*
X12074651Y-10333315D01*
X12093699Y-10333315D01*
X12236556Y-10323791D02*
X12217508Y-10333315D01*
X12179413Y-10333315D01*
X12160365Y-10323791D01*
X12150841Y-10304744D01*
X12150841Y-10228553D01*
X12160365Y-10209506D01*
X12179413Y-10199982D01*
X12217508Y-10199982D01*
X12236556Y-10209506D01*
X12246080Y-10228553D01*
X12246080Y-10247601D01*
X12150841Y-10266649D01*
X12417508Y-10333315D02*
X12417508Y-10133315D01*
X12417508Y-10323791D02*
X12398461Y-10333315D01*
X12360365Y-10333315D01*
X12341318Y-10323791D01*
X12331794Y-10314268D01*
X12322270Y-10295220D01*
X12322270Y-10238077D01*
X12331794Y-10219030D01*
X12341318Y-10209506D01*
X12360365Y-10199982D01*
X12398461Y-10199982D01*
X12417508Y-10209506D01*
X12493699Y-10409506D02*
X12503222Y-10399982D01*
X12522270Y-10371411D01*
X12531794Y-10352363D01*
X12541318Y-10323791D01*
X12550841Y-10276172D01*
X12550841Y-10238077D01*
X12541318Y-10190458D01*
X12531794Y-10161887D01*
X12522270Y-10142839D01*
X12503222Y-10114268D01*
X12493699Y-10104744D01*
X5540842Y-10462839D02*
X5740842Y-10662839D01*
X5740842Y-10462839D02*
X5540842Y-10662839D01*
X5640842Y-10462839D02*
X5640842Y-10662839D01*
X5540842Y-10562839D02*
X5740842Y-10562839D01*
X5988937Y-10472363D02*
X5998461Y-10462839D01*
X6017508Y-10453315D01*
X6065127Y-10453315D01*
X6084175Y-10462839D01*
X6093699Y-10472363D01*
X6103222Y-10491411D01*
X6103222Y-10510458D01*
X6093699Y-10539030D01*
X5979413Y-10653315D01*
X6103222Y-10653315D01*
X6188937Y-10634268D02*
X6198461Y-10643791D01*
X6188937Y-10653315D01*
X6179413Y-10643791D01*
X6188937Y-10634268D01*
X6188937Y-10653315D01*
X6274651Y-10472363D02*
X6284175Y-10462839D01*
X6303222Y-10453315D01*
X6350842Y-10453315D01*
X6369889Y-10462839D01*
X6379413Y-10472363D01*
X6388937Y-10491411D01*
X6388937Y-10510458D01*
X6379413Y-10539030D01*
X6265127Y-10653315D01*
X6388937Y-10653315D01*
X6512746Y-10453315D02*
X6531794Y-10453315D01*
X6550842Y-10462839D01*
X6560365Y-10472363D01*
X6569889Y-10491411D01*
X6579413Y-10529506D01*
X6579413Y-10577125D01*
X6569889Y-10615220D01*
X6560365Y-10634268D01*
X6550842Y-10643791D01*
X6531794Y-10653315D01*
X6512746Y-10653315D01*
X6493699Y-10643791D01*
X6484175Y-10634268D01*
X6474651Y-10615220D01*
X6465127Y-10577125D01*
X6465127Y-10529506D01*
X6474651Y-10491411D01*
X6484175Y-10472363D01*
X6493699Y-10462839D01*
X6512746Y-10453315D01*
X6703222Y-10453315D02*
X6722270Y-10453315D01*
X6741318Y-10462839D01*
X6750842Y-10472363D01*
X6760365Y-10491411D01*
X6769889Y-10529506D01*
X6769889Y-10577125D01*
X6760365Y-10615220D01*
X6750842Y-10634268D01*
X6741318Y-10643791D01*
X6722270Y-10653315D01*
X6703222Y-10653315D01*
X6684175Y-10643791D01*
X6674651Y-10634268D01*
X6665127Y-10615220D01*
X6655603Y-10577125D01*
X6655603Y-10529506D01*
X6665127Y-10491411D01*
X6674651Y-10472363D01*
X6684175Y-10462839D01*
X6703222Y-10453315D01*
X6855603Y-10653315D02*
X6855603Y-10519982D01*
X6855603Y-10539030D02*
X6865127Y-10529506D01*
X6884175Y-10519982D01*
X6912746Y-10519982D01*
X6931794Y-10529506D01*
X6941318Y-10548553D01*
X6941318Y-10653315D01*
X6941318Y-10548553D02*
X6950842Y-10529506D01*
X6969889Y-10519982D01*
X6998461Y-10519982D01*
X7017508Y-10529506D01*
X7027032Y-10548553D01*
X7027032Y-10653315D01*
X7122270Y-10653315D02*
X7122270Y-10519982D01*
X7122270Y-10539030D02*
X7131794Y-10529506D01*
X7150842Y-10519982D01*
X7179413Y-10519982D01*
X7198461Y-10529506D01*
X7207984Y-10548553D01*
X7207984Y-10653315D01*
X7207984Y-10548553D02*
X7217508Y-10529506D01*
X7236556Y-10519982D01*
X7265127Y-10519982D01*
X7284175Y-10529506D01*
X7293699Y-10548553D01*
X7293699Y-10653315D01*
X7684175Y-10443791D02*
X7512746Y-10700934D01*
X7941318Y-10453315D02*
X7960365Y-10453315D01*
X7979413Y-10462839D01*
X7988937Y-10472363D01*
X7998461Y-10491411D01*
X8007984Y-10529506D01*
X8007984Y-10577125D01*
X7998461Y-10615220D01*
X7988937Y-10634268D01*
X7979413Y-10643791D01*
X7960365Y-10653315D01*
X7941318Y-10653315D01*
X7922270Y-10643791D01*
X7912746Y-10634268D01*
X7903222Y-10615220D01*
X7893699Y-10577125D01*
X7893699Y-10529506D01*
X7903222Y-10491411D01*
X7912746Y-10472363D01*
X7922270Y-10462839D01*
X7941318Y-10453315D01*
X8093699Y-10634268D02*
X8103222Y-10643791D01*
X8093699Y-10653315D01*
X8084175Y-10643791D01*
X8093699Y-10634268D01*
X8093699Y-10653315D01*
X8227032Y-10453315D02*
X8246080Y-10453315D01*
X8265127Y-10462839D01*
X8274651Y-10472363D01*
X8284175Y-10491411D01*
X8293699Y-10529506D01*
X8293699Y-10577125D01*
X8284175Y-10615220D01*
X8274651Y-10634268D01*
X8265127Y-10643791D01*
X8246080Y-10653315D01*
X8227032Y-10653315D01*
X8207984Y-10643791D01*
X8198461Y-10634268D01*
X8188937Y-10615220D01*
X8179413Y-10577125D01*
X8179413Y-10529506D01*
X8188937Y-10491411D01*
X8198461Y-10472363D01*
X8207984Y-10462839D01*
X8227032Y-10453315D01*
X8407984Y-10539030D02*
X8388937Y-10529506D01*
X8379413Y-10519982D01*
X8369889Y-10500934D01*
X8369889Y-10491411D01*
X8379413Y-10472363D01*
X8388937Y-10462839D01*
X8407984Y-10453315D01*
X8446080Y-10453315D01*
X8465127Y-10462839D01*
X8474651Y-10472363D01*
X8484175Y-10491411D01*
X8484175Y-10500934D01*
X8474651Y-10519982D01*
X8465127Y-10529506D01*
X8446080Y-10539030D01*
X8407984Y-10539030D01*
X8388937Y-10548553D01*
X8379413Y-10558077D01*
X8369889Y-10577125D01*
X8369889Y-10615220D01*
X8379413Y-10634268D01*
X8388937Y-10643791D01*
X8407984Y-10653315D01*
X8446080Y-10653315D01*
X8465127Y-10643791D01*
X8474651Y-10634268D01*
X8484175Y-10615220D01*
X8484175Y-10577125D01*
X8474651Y-10558077D01*
X8465127Y-10548553D01*
X8446080Y-10539030D01*
X8655604Y-10453315D02*
X8617508Y-10453315D01*
X8598461Y-10462839D01*
X8588937Y-10472363D01*
X8569889Y-10500934D01*
X8560365Y-10539030D01*
X8560365Y-10615220D01*
X8569889Y-10634268D01*
X8579413Y-10643791D01*
X8598461Y-10653315D01*
X8636556Y-10653315D01*
X8655604Y-10643791D01*
X8665127Y-10634268D01*
X8674651Y-10615220D01*
X8674651Y-10567601D01*
X8665127Y-10548553D01*
X8655604Y-10539030D01*
X8636556Y-10529506D01*
X8598461Y-10529506D01*
X8579413Y-10539030D01*
X8569889Y-10548553D01*
X8560365Y-10567601D01*
X8846080Y-10453315D02*
X8807984Y-10453315D01*
X8788937Y-10462839D01*
X8779413Y-10472363D01*
X8760365Y-10500934D01*
X8750842Y-10539030D01*
X8750842Y-10615220D01*
X8760365Y-10634268D01*
X8769889Y-10643791D01*
X8788937Y-10653315D01*
X8827032Y-10653315D01*
X8846080Y-10643791D01*
X8855604Y-10634268D01*
X8865127Y-10615220D01*
X8865127Y-10567601D01*
X8855604Y-10548553D01*
X8846080Y-10539030D01*
X8827032Y-10529506D01*
X8788937Y-10529506D01*
X8769889Y-10539030D01*
X8760365Y-10548553D01*
X8750842Y-10567601D01*
X8941318Y-10453315D02*
X8941318Y-10491411D01*
X9017508Y-10453315D02*
X9017508Y-10491411D01*
X9312746Y-10729506D02*
X9303223Y-10719982D01*
X9284175Y-10691411D01*
X9274651Y-10672363D01*
X9265127Y-10643791D01*
X9255604Y-10596172D01*
X9255604Y-10558077D01*
X9265127Y-10510458D01*
X9274651Y-10481887D01*
X9284175Y-10462839D01*
X9303223Y-10434268D01*
X9312746Y-10424744D01*
X9369889Y-10453315D02*
X9493699Y-10453315D01*
X9427032Y-10529506D01*
X9455604Y-10529506D01*
X9474651Y-10539030D01*
X9484175Y-10548553D01*
X9493699Y-10567601D01*
X9493699Y-10615220D01*
X9484175Y-10634268D01*
X9474651Y-10643791D01*
X9455604Y-10653315D01*
X9398461Y-10653315D01*
X9379413Y-10643791D01*
X9369889Y-10634268D01*
X9731794Y-10653315D02*
X9731794Y-10453315D01*
X9817508Y-10653315D02*
X9817508Y-10548553D01*
X9807984Y-10529506D01*
X9788937Y-10519982D01*
X9760365Y-10519982D01*
X9741318Y-10529506D01*
X9731794Y-10539030D01*
X9941318Y-10653315D02*
X9922270Y-10643791D01*
X9912746Y-10634268D01*
X9903223Y-10615220D01*
X9903223Y-10558077D01*
X9912746Y-10539030D01*
X9922270Y-10529506D01*
X9941318Y-10519982D01*
X9969889Y-10519982D01*
X9988937Y-10529506D01*
X9998461Y-10539030D01*
X10007984Y-10558077D01*
X10007984Y-10615220D01*
X9998461Y-10634268D01*
X9988937Y-10643791D01*
X9969889Y-10653315D01*
X9941318Y-10653315D01*
X10122270Y-10653315D02*
X10103223Y-10643791D01*
X10093699Y-10624744D01*
X10093699Y-10453315D01*
X10274651Y-10643791D02*
X10255604Y-10653315D01*
X10217508Y-10653315D01*
X10198461Y-10643791D01*
X10188937Y-10624744D01*
X10188937Y-10548553D01*
X10198461Y-10529506D01*
X10217508Y-10519982D01*
X10255604Y-10519982D01*
X10274651Y-10529506D01*
X10284175Y-10548553D01*
X10284175Y-10567601D01*
X10188937Y-10586649D01*
X10360365Y-10643791D02*
X10379413Y-10653315D01*
X10417508Y-10653315D01*
X10436556Y-10643791D01*
X10446080Y-10624744D01*
X10446080Y-10615220D01*
X10436556Y-10596172D01*
X10417508Y-10586649D01*
X10388937Y-10586649D01*
X10369889Y-10577125D01*
X10360365Y-10558077D01*
X10360365Y-10548553D01*
X10369889Y-10529506D01*
X10388937Y-10519982D01*
X10417508Y-10519982D01*
X10436556Y-10529506D01*
X10512746Y-10729506D02*
X10522270Y-10719982D01*
X10541318Y-10691411D01*
X10550842Y-10672363D01*
X10560365Y-10643791D01*
X10569889Y-10596172D01*
X10569889Y-10558077D01*
X10560365Y-10510458D01*
X10550842Y-10481887D01*
X10541318Y-10462839D01*
X10522270Y-10434268D01*
X10512746Y-10424744D01*
X10874651Y-10729506D02*
X10865127Y-10719982D01*
X10846080Y-10691411D01*
X10836556Y-10672363D01*
X10827032Y-10643791D01*
X10817508Y-10596172D01*
X10817508Y-10558077D01*
X10827032Y-10510458D01*
X10836556Y-10481887D01*
X10846080Y-10462839D01*
X10865127Y-10434268D01*
X10874651Y-10424744D01*
X10950842Y-10519982D02*
X10950842Y-10653315D01*
X10950842Y-10539030D02*
X10960365Y-10529506D01*
X10979413Y-10519982D01*
X11007984Y-10519982D01*
X11027032Y-10529506D01*
X11036556Y-10548553D01*
X11036556Y-10653315D01*
X11160365Y-10653315D02*
X11141318Y-10643791D01*
X11131794Y-10634268D01*
X11122270Y-10615220D01*
X11122270Y-10558077D01*
X11131794Y-10539030D01*
X11141318Y-10529506D01*
X11160365Y-10519982D01*
X11188937Y-10519982D01*
X11207984Y-10529506D01*
X11217508Y-10539030D01*
X11227032Y-10558077D01*
X11227032Y-10615220D01*
X11217508Y-10634268D01*
X11207984Y-10643791D01*
X11188937Y-10653315D01*
X11160365Y-10653315D01*
X11284175Y-10519982D02*
X11360365Y-10519982D01*
X11312746Y-10453315D02*
X11312746Y-10624744D01*
X11322270Y-10643791D01*
X11341318Y-10653315D01*
X11360365Y-10653315D01*
X11579413Y-10519982D02*
X11579413Y-10719982D01*
X11579413Y-10529506D02*
X11598461Y-10519982D01*
X11636556Y-10519982D01*
X11655603Y-10529506D01*
X11665127Y-10539030D01*
X11674651Y-10558077D01*
X11674651Y-10615220D01*
X11665127Y-10634268D01*
X11655603Y-10643791D01*
X11636556Y-10653315D01*
X11598461Y-10653315D01*
X11579413Y-10643791D01*
X11788937Y-10653315D02*
X11769889Y-10643791D01*
X11760365Y-10624744D01*
X11760365Y-10453315D01*
X11950841Y-10653315D02*
X11950841Y-10548553D01*
X11941318Y-10529506D01*
X11922270Y-10519982D01*
X11884175Y-10519982D01*
X11865127Y-10529506D01*
X11950841Y-10643791D02*
X11931794Y-10653315D01*
X11884175Y-10653315D01*
X11865127Y-10643791D01*
X11855603Y-10624744D01*
X11855603Y-10605696D01*
X11865127Y-10586649D01*
X11884175Y-10577125D01*
X11931794Y-10577125D01*
X11950841Y-10567601D01*
X12017508Y-10519982D02*
X12093699Y-10519982D01*
X12046080Y-10453315D02*
X12046080Y-10624744D01*
X12055603Y-10643791D01*
X12074651Y-10653315D01*
X12093699Y-10653315D01*
X12236556Y-10643791D02*
X12217508Y-10653315D01*
X12179413Y-10653315D01*
X12160365Y-10643791D01*
X12150841Y-10624744D01*
X12150841Y-10548553D01*
X12160365Y-10529506D01*
X12179413Y-10519982D01*
X12217508Y-10519982D01*
X12236556Y-10529506D01*
X12246080Y-10548553D01*
X12246080Y-10567601D01*
X12150841Y-10586649D01*
X12417508Y-10653315D02*
X12417508Y-10453315D01*
X12417508Y-10643791D02*
X12398461Y-10653315D01*
X12360365Y-10653315D01*
X12341318Y-10643791D01*
X12331794Y-10634268D01*
X12322270Y-10615220D01*
X12322270Y-10558077D01*
X12331794Y-10539030D01*
X12341318Y-10529506D01*
X12360365Y-10519982D01*
X12398461Y-10519982D01*
X12417508Y-10529506D01*
X12493699Y-10729506D02*
X12503222Y-10719982D01*
X12522270Y-10691411D01*
X12531794Y-10672363D01*
X12541318Y-10643791D01*
X12550841Y-10596172D01*
X12550841Y-10558077D01*
X12541318Y-10510458D01*
X12531794Y-10481887D01*
X12522270Y-10462839D01*
X12503222Y-10434268D01*
X12493699Y-10424744D01*
M02*
