M48
; DRILL file {KiCad (6.0.8)} date Fri Jul 21 17:03:26 2023
; FORMAT={-:-/ absolute / metric / decimal}
; #@! TF.CreationDate,2023-07-21T17:03:26-07:00
; #@! TF.GenerationSoftware,Kicad,Pcbnew,(6.0.8)
; #@! TF.FileFunction,Plated,1,2,PTH
FMAT,2
METRIC
; #@! TA.AperFunction,Plated,PTH,ComponentDrill
T1C0.350
; #@! TA.AperFunction,Plated,PTH,ViaDrill
T2C0.400
; #@! TA.AperFunction,Plated,PTH,ComponentDrill
T3C0.400
; #@! TA.AperFunction,Plated,PTH,ComponentDrill
T4C0.500
; #@! TA.AperFunction,Plated,PTH,ComponentDrill
T5C0.550
; #@! TA.AperFunction,Plated,PTH,ComponentDrill
T6C0.600
; #@! TA.AperFunction,Plated,PTH,ComponentDrill
T7C0.800
; #@! TA.AperFunction,Plated,PTH,ComponentDrill
T8C1.000
; #@! TA.AperFunction,Plated,PTH,ComponentDrill
T9C1.800
%
G90
G05
T1
X98.265Y-39.325
X98.265Y-40.6
X98.265Y-41.875
X99.54Y-39.325
X99.54Y-40.6
X99.54Y-41.875
X100.815Y-39.325
X100.815Y-40.6
X100.815Y-41.875
X155.76Y-63.1
X155.77Y-51.77
X171.62Y-51.97
X171.63Y-61.81
T2
X70.2Y-56.06
X74.31Y-31.34
X74.38Y-28.19
X80.3Y-71.61
X80.345Y-70.15
X83.0Y-29.98
X83.42Y-36.37
X85.58Y-34.255
X86.98Y-70.47
X87.19Y-36.34
X87.35Y-78.11
X88.55Y-36.94
X89.245Y-60.99
X90.02Y-46.64
X90.99Y-49.31
X91.63Y-39.185
X91.777Y-40.867
X92.555Y-36.02
X92.66Y-41.37
X93.18Y-37.04
X93.98Y-34.43
X94.18Y-42.75
X94.37Y-36.94
X94.48Y-39.74
X94.53Y-41.024
X95.94Y-48.94
X96.4Y-35.45
X96.93Y-34.42
X98.39Y-65.55
X98.53Y-42.91
X99.295Y-74.87
X99.52Y-49.56
X99.59Y-52.3
X99.97Y-45.95
X100.33Y-30.87
X100.9Y-52.33
X101.36Y-36.0
X103.81Y-44.61
X103.849Y-36.635
X104.08Y-42.42
X104.255Y-41.024
X104.674Y-39.704
X104.79Y-36.51
X105.54Y-40.72
X105.64Y-42.53
X105.64Y-50.57
X105.73Y-36.25
X105.81Y-48.6
X106.54Y-30.51
X106.57Y-36.82
X108.22Y-54.58
X109.09Y-55.68
X112.285Y-38.745
X115.35Y-42.52
X115.98Y-62.57
X116.4Y-55.37
X119.47Y-41.9
X120.9Y-55.94
X136.52Y-65.68
X140.13Y-62.54
X141.71Y-58.85
X143.16Y-63.98
X145.12Y-64.78
T3
X61.238Y-34.841
X74.23Y-26.01
X74.64Y-33.09
X82.47Y-42.92
T6
X74.89Y-68.93
X74.89Y-70.2
X74.89Y-71.47
X84.22Y-80.8
X85.49Y-80.8
X86.76Y-80.8
X104.9Y-59.03
X133.62Y-26.79
X134.89Y-26.79
X136.16Y-26.79
X145.49Y-36.12
X145.49Y-37.39
X145.49Y-38.66
T7
X64.713Y-58.674
X64.713Y-60.325
X66.364Y-58.674
X66.364Y-60.325
X68.015Y-58.674
X68.015Y-60.325
X70.075Y-24.683
X72.031Y-24.267
X83.43Y-49.655
X85.83Y-49.655
X88.23Y-49.655
X95.495Y-76.9
X97.495Y-76.9
X99.495Y-76.9
X101.495Y-76.9
X103.495Y-76.9
X105.495Y-76.9
X120.14Y-49.625
X122.54Y-49.625
X124.94Y-49.625
X162.85Y-62.13
X162.85Y-64.13
X162.92Y-50.78
X162.92Y-52.78
X174.62Y-56.135
X174.62Y-58.135
T8
X68.06Y-44.88
X70.6Y-44.88
X113.42Y-32.89
X115.42Y-32.89
X117.42Y-32.89
X119.42Y-32.89
X121.42Y-32.89
X123.42Y-32.89
X125.07Y-28.18
X132.155Y-59.78
X134.695Y-59.78
T4
X139.18Y-68.885G85X139.18Y-69.535
G05
X146.18Y-68.885G85X146.18Y-69.535
G05
T5
X140.03Y-66.51G85X140.33Y-66.51
G05
X145.03Y-66.51G85X145.33Y-66.51
G05
T7
X78.74Y-64.15G85X78.74Y-64.95
G05
X81.48Y-37.805G85X81.48Y-38.505
G05
X90.18Y-37.805G85X90.18Y-38.505
G05
X92.24Y-75.45G85X92.24Y-76.25
G05
X118.19Y-37.775G85X118.19Y-38.475
G05
X126.89Y-37.775G85X126.89Y-38.475
G05
X128.14Y-32.14G85X128.14Y-31.34
G05
X141.64Y-43.44G85X141.64Y-42.64
G05
T9
X80.138Y-75.519G85X78.982Y-75.841
G05
X91.998Y-64.559G85X90.842Y-64.881
G05
X128.382Y-43.031G85X129.538Y-42.709
G05
X140.242Y-32.071G85X141.398Y-31.749
G05
T0
M30
