G04 #@! TF.GenerationSoftware,KiCad,Pcbnew,(6.0.8)*
G04 #@! TF.CreationDate,2023-07-21T17:02:47-07:00*
G04 #@! TF.ProjectId,jesnet_proto_1,6a65736e-6574-45f7-9072-6f746f5f312e,rev?*
G04 #@! TF.SameCoordinates,Original*
G04 #@! TF.FileFunction,Soldermask,Bot*
G04 #@! TF.FilePolarity,Negative*
%FSLAX46Y46*%
G04 Gerber Fmt 4.6, Leading zero omitted, Abs format (unit mm)*
G04 Created by KiCad (PCBNEW (6.0.8)) date 2023-07-21 17:02:47*
%MOMM*%
%LPD*%
G01*
G04 APERTURE LIST*
G04 Aperture macros list*
%AMRoundRect*
0 Rectangle with rounded corners*
0 $1 Rounding radius*
0 $2 $3 $4 $5 $6 $7 $8 $9 X,Y pos of 4 corners*
0 Add a 4 corners polygon primitive as box body*
4,1,4,$2,$3,$4,$5,$6,$7,$8,$9,$2,$3,0*
0 Add four circle primitives for the rounded corners*
1,1,$1+$1,$2,$3*
1,1,$1+$1,$4,$5*
1,1,$1+$1,$6,$7*
1,1,$1+$1,$8,$9*
0 Add four rect primitives between the rounded corners*
20,1,$1+$1,$2,$3,$4,$5,0*
20,1,$1+$1,$4,$5,$6,$7,0*
20,1,$1+$1,$6,$7,$8,$9,0*
20,1,$1+$1,$8,$9,$2,$3,0*%
%AMHorizOval*
0 Thick line with rounded ends*
0 $1 width*
0 $2 $3 position (X,Y) of the first rounded end (center of the circle)*
0 $4 $5 position (X,Y) of the second rounded end (center of the circle)*
0 Add line between two ends*
20,1,$1,$2,$3,$4,$5,0*
0 Add two circle primitives to create the rounded ends*
1,1,$1,$2,$3*
1,1,$1,$4,$5*%
%AMRotRect*
0 Rectangle, with rotation*
0 The origin of the aperture is its center*
0 $1 length*
0 $2 width*
0 $3 Rotation angle, in degrees counterclockwise*
0 Add horizontal line*
21,1,$1,$2,0,0,$3*%
%AMFreePoly0*
4,1,162,-0.395661,5.240493,-0.345056,5.181347,-0.325106,5.106108,-0.339760,5.029659,-0.386115,4.967127,-0.455001,4.930884,-0.469292,4.930373,-0.689542,4.854772,-0.910067,4.743212,-1.113192,4.602437,-1.224540,4.500000,0.900000,4.500000,0.958779,4.480902,0.995106,4.430902,0.995106,4.369098,0.958779,4.319098,0.900000,4.300000,-1.406440,4.300000,-1.452262,4.244409,-1.581788,4.033933,
-1.681197,3.807670,-1.711723,3.700000,1.400000,3.700000,1.458779,3.680902,1.495106,3.630902,1.495106,3.569098,1.458779,3.519098,1.400000,3.500000,-1.758357,3.500000,-1.782745,3.325134,-1.782961,3.077996,-1.758454,2.900000,1.400000,2.900000,1.458779,2.880902,1.495106,2.830902,1.495106,2.769098,1.458779,2.719098,1.400000,2.700000,-1.711747,2.700000,-1.682256,2.595284,
-1.583242,2.368847,-1.454084,2.158145,-1.406328,2.100000,0.900000,2.100000,0.958779,2.080902,0.995106,2.030902,0.995106,1.969098,0.958779,1.919098,0.900000,1.900000,-1.224473,1.900000,-1.115640,1.799525,-0.912761,1.658396,-0.692431,1.546451,-0.472033,1.470369,-0.457435,1.469770,-0.388739,1.433167,-0.342711,1.370393,-0.328459,1.293869,-0.348802,1.218734,-0.399716,1.159854,
-0.471127,1.128879,-0.548906,1.131934,-0.549496,1.132094,-0.549715,1.132211,-0.813897,1.222390,-1.064824,1.346638,-1.297400,1.502555,-1.488802,1.670899,-1.732282,1.488289,-1.534018,1.324096,-1.284090,1.161605,-1.017142,1.028916,-0.736712,0.927790,-0.446518,0.859565,-0.150405,0.825147,0.147701,0.824991,0.443850,0.859100,0.734115,0.927021,1.014650,1.027854,1.281737,1.160263,
1.531835,1.322492,1.761629,1.512392,1.968074,1.727445,2.139589,1.953163,2.145124,1.967448,2.210057,2.028255,2.294938,2.054887,2.382970,2.042076,2.456738,1.992356,2.501648,1.915564,2.508813,1.826894,2.476817,1.743887,2.476427,1.743309,2.476270,1.743163,2.281258,1.484811,2.058726,1.248500,1.811851,1.037748,1.543552,0.855047,1.257002,0.702557,0.955590,0.582082,
0.642879,0.495045,0.585024,0.485550,0.597174,0.473315,0.687196,0.329249,0.743064,0.168820,0.762000,0.000000,0.761703,-0.021276,0.738060,-0.189502,0.677735,-0.348309,0.583726,-0.489804,0.460705,-0.606956,0.314786,-0.693941,0.153221,-0.746436,-0.015958,-0.761833,-0.184344,-0.739365,-0.343569,-0.680150,-0.485717,-0.587131,-0.603725,-0.464931,-0.691726,-0.319622,-0.745348,-0.158429,
-0.761926,0.010639,-0.740634,0.179178,-0.682532,0.338812,-0.590508,0.481606,-0.586175,0.485849,-0.645927,0.495719,-0.958548,0.583083,-1.259834,0.703873,-1.546224,0.856663,-1.814331,1.039644,-2.060986,1.250654,-2.283271,1.487198,-2.478559,1.746479,-2.478947,1.747059,-2.510566,1.830209,-2.502999,1.918847,-2.457741,1.995435,-2.383748,2.044819,-2.295658,2.057231,-2.210900,2.030214,
-2.146243,1.969113,-2.140890,1.955110,-2.069220,1.860585,-1.800958,2.061781,-1.847253,2.131256,-1.970799,2.382530,-2.060514,2.647772,-2.114864,2.922450,-2.132921,3.201871,-2.114376,3.481260,-2.059546,3.755842,-1.969368,4.020927,-1.845383,4.271984,-1.689710,4.504724,-1.505008,4.715169,-1.294433,4.899724,-1.061585,5.055235,-0.810441,5.179044,-0.545293,5.269037,-0.544703,5.269194,
-0.466909,5.271843,-0.395661,5.240493,-0.395661,5.240493,$1*%
%AMFreePoly1*
4,1,167,-0.395661,5.240493,-0.345056,5.181347,-0.325106,5.106108,-0.339760,5.029659,-0.386115,4.967127,-0.455001,4.930884,-0.469292,4.930373,-0.557778,4.900000,0.100000,4.900000,0.158779,4.880902,0.195106,4.830902,0.195106,4.769098,0.158779,4.719098,0.100000,4.700000,-0.972418,4.700000,-1.113192,4.602437,-1.295071,4.435114,-1.452262,4.244409,-1.541131,4.100000,1.200000,4.100000,
1.258779,4.080902,1.295106,4.030902,1.295106,3.969098,1.258779,3.919098,1.200000,3.900000,-1.640632,3.900000,-1.681197,3.807670,-1.748608,3.569903,-1.782745,3.325134,-1.782767,3.300000,1.400000,3.300000,1.458779,3.280902,1.495106,3.230902,1.495106,3.169098,1.458779,3.119098,1.400000,3.100000,-1.782942,3.100000,-1.782961,3.077996,-1.749252,2.833168,-1.682256,2.595284,
-1.640591,2.500000,1.200000,2.500000,1.258779,2.480902,1.295106,2.430902,1.295106,2.369098,1.258779,2.319098,1.200000,2.300000,-1.541040,2.300000,-1.454084,2.158145,-1.297227,1.967166,-1.115640,1.799525,-0.972569,1.700000,0.100000,1.700000,0.158779,1.680902,0.195106,1.630902,0.195106,1.569098,0.158779,1.519098,0.100000,1.500000,-0.557870,1.500000,-0.472033,1.470369,
-0.457435,1.469770,-0.388739,1.433167,-0.342711,1.370393,-0.328459,1.293869,-0.348802,1.218734,-0.399716,1.159854,-0.471127,1.128879,-0.548906,1.131934,-0.549496,1.132094,-0.549715,1.132211,-0.813897,1.222390,-1.064824,1.346638,-1.297400,1.502555,-1.488802,1.670899,-1.730915,1.489314,-1.518519,1.313950,-1.268589,1.151950,-1.001709,1.019722,-0.721410,0.919016,-0.431401,0.851164,
-0.135518,0.817065,0.162323,0.817169,0.458182,0.851475,0.748143,0.919529,1.028372,1.020430,1.295160,1.152845,1.544977,1.315019,1.774518,1.504809,1.980746,1.719703,2.152088,1.945216,2.157624,1.959503,2.222558,2.020310,2.307438,2.046942,2.395470,2.034131,2.469238,1.984411,2.514148,1.907619,2.521313,1.818949,2.489317,1.735942,2.488927,1.735363,2.488768,1.735215,
2.293944,1.477087,2.071644,1.240954,1.825040,1.030330,1.557042,0.847701,1.270814,0.695222,0.969734,0.574694,0.657356,0.487538,0.593504,0.477011,0.597174,0.473315,0.687196,0.329249,0.743064,0.168820,0.762000,0.000000,0.761703,-0.021276,0.738060,-0.189502,0.677735,-0.348309,0.583726,-0.489804,0.460705,-0.606956,0.314786,-0.693941,0.153221,-0.746436,-0.015958,-0.761833,
-0.184344,-0.739365,-0.343569,-0.680150,-0.485717,-0.587131,-0.603725,-0.464931,-0.691726,-0.319622,-0.745348,-0.158429,-0.761926,0.010639,-0.740634,0.179178,-0.682532,0.338812,-0.591122,0.480654,-0.630320,0.487088,-0.942759,0.574026,-1.243924,0.694344,-1.530258,0.846623,-1.798383,1.029065,-2.045135,1.239517,-2.267600,1.475495,-2.463153,1.734213,-2.463542,1.734793,-2.495307,1.817888,
-2.487894,1.906539,-2.442770,1.983205,-2.368863,2.032718,-2.280794,2.045284,-2.195989,2.018415,-2.131226,1.957427,-2.125847,1.943429,-2.065140,1.863645,-1.800958,2.061781,-1.847253,2.131256,-1.970799,2.382530,-2.060514,2.647772,-2.114864,2.922450,-2.132921,3.201871,-2.114376,3.481260,-2.059546,3.755842,-1.969368,4.020927,-1.845383,4.271984,-1.689710,4.504724,-1.505008,4.715169,
-1.294433,4.899724,-1.061585,5.055235,-0.810441,5.179044,-0.545293,5.269037,-0.544703,5.269194,-0.466909,5.271843,-0.395661,5.240493,-0.395661,5.240493,$1*%
%AMFreePoly2*
4,1,396,0.298095,7.025963,0.622659,6.973352,0.938992,6.883665,1.242873,6.758100,1.530247,6.598332,1.797282,6.406492,2.040414,6.185139,2.256400,5.937228,2.442358,5.666064,2.595807,5.375266,2.714701,5.068714,2.797453,4.750497,2.842959,4.424860,2.850611,4.096148,2.820309,3.768746,2.752455,3.447023,2.647956,3.135270,2.508206,2.837646,2.335068,2.558123,2.153620,2.329157,
2.343432,2.139387,2.384009,2.182744,2.585550,2.451341,2.756803,2.740193,2.895752,3.045899,3.000760,3.364860,3.070592,3.693321,3.104426,4.027414,3.101862,4.363206,3.062932,4.696744,2.988094,5.024100,2.878228,5.341420,2.741434,5.630583,2.730471,5.643116,2.706731,5.728850,2.722519,5.816398,2.774711,5.888438,2.852981,5.930718,2.941844,5.934874,3.023718,5.900082,
3.082405,5.833227,3.082737,5.832613,3.082792,5.832414,3.238818,5.504369,3.360115,5.161005,3.444974,4.806871,3.492473,4.445822,3.502094,4.081790,3.473733,3.718736,3.407697,3.360614,3.304707,3.011322,3.165883,2.674662,2.992736,2.354299,2.787152,2.053721,2.551368,1.776200,2.287951,1.524756,1.999769,1.302128,1.689959,1.110739,1.361893,0.952672,1.019143,0.829648,
0.665441,0.743007,0.308006,0.694151,0.321129,0.689478,0.334039,0.684881,0.477472,0.593856,0.597174,0.473315,0.687196,0.329249,0.743064,0.168820,0.762000,0.000000,0.761703,-0.021276,0.738060,-0.189502,0.677735,-0.348309,0.583726,-0.489804,0.460705,-0.606956,0.314786,-0.693941,0.153221,-0.746436,-0.015958,-0.761833,-0.184344,-0.739365,-0.343569,-0.680150,-0.485717,-0.587131,
-0.603725,-0.464931,-0.691726,-0.319622,-0.745348,-0.158429,-0.761926,0.010639,-0.740634,0.179178,-0.682532,0.338812,-0.590508,0.481606,-0.469134,0.600464,-0.324444,0.689478,-0.295116,0.699462,-0.422535,0.708771,-0.780985,0.773002,-1.130791,0.874233,-1.468146,1.011360,-1.789376,1.182892,-2.090986,1.386960,-2.091543,1.387381,-2.148579,1.455650,-2.170368,1.541901,-2.152597,1.629068,
-2.098784,1.699906,-2.019575,1.740400,-1.930641,1.742538,-1.849577,1.705898,-1.839098,1.693400,-1.574076,1.514891,-1.276876,1.358575,-0.964488,1.235380,-0.640592,1.146756,-0.309001,1.093747,0.026382,1.076977,0.361608,1.096643,0.692729,1.152513,1.015848,1.243931,1.327160,1.369819,1.623000,1.528695,1.899884,1.718690,2.060447,1.856686,1.870825,2.046266,1.640468,1.863942,
1.360839,1.690974,1.063131,1.551403,0.751315,1.447093,0.429550,1.379434,0.102131,1.349330,-0.226577,1.357181,-0.552186,1.402884,-0.870353,1.485828,-1.176833,1.604907,-1.467538,1.758533,-1.738589,1.944655,-1.986370,2.160791,-2.207575,2.404057,-2.399254,2.671207,-2.558848,2.958679,-2.684229,3.262635,-2.773724,3.579022,-2.826140,3.903618,-2.840776,4.232093,-2.817438,4.560065,
-2.756436,4.883158,-2.658586,5.197061,-2.525191,5.497587,-2.358033,5.780727,-2.309419,5.818890,-2.247659,5.821190,-2.196341,5.786749,-2.175069,5.728722,-2.191967,5.669273,-2.202356,5.661117,-2.357382,5.397107,-2.484632,5.104865,-2.575895,4.799465,-2.629852,4.485320,-2.645723,4.166971,-2.623278,3.849018,-2.562844,3.536055,-2.465291,3.232605,-2.332031,2.943054,-2.164989,2.671586,
-1.966580,2.422123,-1.739669,2.198271,-1.487537,2.003265,-1.213826,1.839923,-0.922493,1.710604,-0.617748,1.617179,-0.303994,1.560997,0.014235,1.542870,0.332339,1.563060,0.645723,1.621275,0.949856,1.716674,1.240345,1.847878,1.512990,2.012991,1.732224,2.184836,1.277196,2.639763,1.219314,2.589316,0.987802,2.437517,0.737787,2.318635,0.473919,2.234884,0.201109,2.187820,
-0.075569,2.178319,-0.350965,2.206559,-0.619956,2.272014,-0.877537,2.373466,-1.118916,2.509027,-1.339601,2.676175,-1.535487,2.871801,-1.702928,3.092264,-1.838810,3.333463,-1.940604,3.590909,-2.006416,3.859813,-2.035022,4.135171,-2.025889,4.411861,-1.979187,4.684734,-1.895786,4.948713,-1.777236,5.198886,-1.731841,5.240826,-1.670464,5.248074,-1.616549,5.217860,-1.590689,5.161727,
-1.602764,5.101114,-1.611861,5.092710,-1.718518,4.865634,-1.795086,4.614355,-1.834976,4.354715,-1.837368,4.092040,-1.802214,3.831717,-1.730234,3.579085,-1.622906,3.339326,-1.482429,3.117357,-1.311687,2.917730,-1.114179,2.744540,-0.893958,2.601340,-0.655539,2.491065,-0.403813,2.415978,-0.143943,2.377618,0.118741,2.376774,0.378853,2.413461,0.631056,2.486927,0.870179,2.595666,
1.091317,2.737447,1.138576,2.778353,0.701768,3.215063,0.596226,3.141209,0.406467,3.052494,0.204257,2.997816,-0.004351,2.978812,-0.213112,2.996051,-0.415778,3.049016,-0.606279,3.136123,-0.778915,3.254763,-0.928516,3.401385,-1.050604,3.571600,-1.141525,3.760312,-1.198555,3.961871,-1.219989,4.170243,-1.205185,4.379191,-1.154585,4.582460,-1.117441,4.631857,-1.058357,4.649987,
-0.999900,4.629925,-0.964399,4.579335,-0.965415,4.517540,-0.972312,4.508368,-1.014976,4.329932,-1.023313,4.135682,-0.994468,3.943404,-0.929500,3.760151,-0.830789,3.592643,-0.701958,3.447023,-0.547730,3.328631,-0.373762,3.241811,-0.186433,3.189745,0.007385,3.174344,0.200585,3.196172,0.386082,3.254428,0.557072,3.346977,0.564071,3.352729,0.103873,3.812825,0.000000,3.796373,
-0.124569,3.816103,-0.236944,3.873361,-0.326125,3.962542,-0.383383,4.074917,-0.403113,4.199486,-0.383383,4.324055,-0.326125,4.436430,-0.236944,4.525611,-0.124569,4.582869,0.000000,4.602599,0.124569,4.582869,0.236944,4.525611,0.326125,4.436430,0.383383,4.324055,0.403113,4.199486,0.386676,4.095708,0.842163,3.640322,0.924304,3.790933,0.983153,3.976242,1.005598,4.169372,
0.990816,4.363238,0.939349,4.550732,0.853085,4.724977,0.735188,4.879583,0.589980,5.008879,0.422788,5.108124,0.239743,5.173678,0.047559,5.203137,-0.146717,5.195421,-0.325288,5.153328,-0.334482,5.146460,-0.396280,5.145641,-0.446757,5.181303,-0.466632,5.239824,-0.448313,5.298851,-0.398798,5.335836,-0.195368,5.385786,0.013626,5.399923,0.221929,5.377823,0.423305,5.320148,
0.611725,5.228625,0.781549,5.105994,0.927692,4.955925,1.045780,4.782911,1.132277,4.592132,1.184595,4.389298,1.201167,4.180483,1.181496,3.971936,1.126172,3.769902,1.036851,3.580428,0.981150,3.501366,1.421462,3.061152,1.461958,3.107887,1.603859,3.328948,1.712727,3.568012,1.786330,3.820176,1.823158,4.080267,1.822456,4.342952,1.784237,4.602843,1.709286,4.854610,
1.599141,5.093088,1.456059,5.313387,1.282977,5.510988,1.083443,5.681839,0.861550,5.822435,0.621848,5.929894,0.369256,6.002010,0.108952,6.037305,-0.153725,6.035055,-0.413386,5.995307,-0.664706,5.918874,-0.891839,5.812341,-0.900250,5.803248,-0.960869,5.791207,-1.016988,5.817097,-1.047172,5.871029,-1.039892,5.932402,-0.997926,5.977774,-0.747689,6.096187,-0.483665,6.179446,
-0.210767,6.225999,0.065927,6.234982,0.341270,6.206228,0.610139,6.140270,0.867530,6.038337,1.108655,5.902324,1.329027,5.734764,1.524546,5.538772,1.691575,5.317996,1.827006,5.076544,1.928318,4.818908,1.993627,4.549881,2.021718,4.274470,2.012067,3.997798,1.964856,3.725013,1.880961,3.461190,1.761944,3.211239,1.610020,2.979810,1.560076,2.922568,2.015028,2.467718,
2.186096,2.685690,2.351375,2.958236,2.482755,3.248645,2.578337,3.552720,2.636742,3.866069,2.657124,4.184161,2.639190,4.502400,2.583198,4.816188,2.489957,5.120990,2.360815,5.412402,2.197638,5.686211,2.002784,5.938461,1.779070,6.165507,1.529727,6.364068,1.258360,6.531274,0.968889,6.664709,0.665499,6.762445,0.352573,6.823069,0.034633,6.845705,-0.283726,6.830027,
-0.597903,6.776260,-0.903358,6.685182,-1.195677,6.558109,-1.459782,6.403241,-1.467943,6.392859,-1.527402,6.375997,-1.585416,6.397305,-1.619827,6.448643,-1.617490,6.510402,-1.579297,6.558993,-1.296056,6.725979,-0.995449,6.859192,-0.681486,6.956852,-0.358357,7.017658,-0.030371,7.040798,0.298095,7.025963,0.298095,7.025963,$1*%
%AMFreePoly3*
4,1,342,0.155291,0.579555,0.300000,0.519615,0.424264,0.424264,0.519615,0.300000,0.579555,0.155291,0.600000,0.000000,0.579555,-0.155291,0.519615,-0.300000,0.424264,-0.424264,0.300000,-0.519615,0.155291,-0.579555,0.100000,-0.586834,0.100000,-0.799910,0.155299,-0.799678,0.507653,-0.833906,0.854759,-0.903498,1.193075,-1.007746,1.519152,-1.145586,1.829662,-1.315612,2.121439,-1.516090,
2.121993,-1.516514,2.178654,-1.585095,2.199969,-1.671464,2.181720,-1.758533,2.127520,-1.829074,2.048089,-1.869133,1.959144,-1.870783,1.878283,-1.833698,1.867831,-1.821092,1.601005,-1.639340,1.301552,-1.480058,0.986535,-1.354333,0.659700,-1.263662,0.324934,-1.209123,-0.013780,-1.191365,-0.352414,-1.210600,-0.686939,-1.266597,-1.013376,-1.358692,-1.327842,-1.485789,-1.626597,-1.646375,
-1.906087,-1.838541,-2.052447,-1.964711,-1.570297,-2.446861,-1.392771,-2.306979,-1.133072,-2.150302,-0.855925,-2.027091,-0.565622,-1.939253,-0.266658,-1.888148,0.036338,-1.874568,0.338675,-1.898722,0.635672,-1.960236,0.922731,-2.058159,1.195405,-2.190973,1.449475,-2.356623,1.681005,-2.552544,1.886411,-2.775702,2.062513,-3.022642,2.206583,-3.289541,2.316392,-3.572266,2.390239,-3.866439,
2.426981,-4.167506,2.426048,-4.470805,2.387455,-4.771640,2.311801,-5.065354,2.200255,-5.347397,2.054545,-5.613405,2.007008,-5.652901,1.945335,-5.656911,1.893083,-5.623905,1.870210,-5.566489,1.885455,-5.506595,1.895410,-5.498324,2.028796,-5.253207,2.133710,-4.981354,2.202484,-4.698192,2.233957,-4.408501,2.227598,-4.117176,2.183512,-3.829135,2.102446,-3.549243,1.985768,-3.282228,
1.835449,-3.032598,1.654026,-2.804570,1.444565,-2.601993,1.210603,-2.428291,0.956091,-2.286395,0.685326,-2.178703,0.402882,-2.107033,0.113530,-2.072595,-0.177846,-2.075972,-0.466323,-2.117106,-0.747030,-2.195302,-1.015226,-2.309240,-1.266382,-2.456995,-1.431518,-2.585640,-0.988041,-3.029116,-0.834785,-2.918597,-0.615868,-2.806612,-0.382523,-2.729052,-0.140128,-2.687702,0.105734,-2.683517,
0.349396,-2.716591,0.585246,-2.786164,0.807848,-2.890633,1.012074,-3.027589,1.193218,-3.193878,1.347107,-3.385669,1.470195,-3.598542,1.559646,-3.827592,1.613398,-4.067542,1.630214,-4.312863,1.609706,-4.557904,1.552346,-4.797017,1.459456,-5.024694,1.416101,-5.068740,1.355137,-5.078890,1.299849,-5.051267,1.271357,-4.996423,1.280544,-4.935306,1.289346,-4.926364,1.372329,-4.719007,
1.422609,-4.489122,1.434366,-4.254097,1.407279,-4.020342,1.342088,-3.794234,1.240570,-3.581938,1.105495,-3.389248,0.940546,-3.221417,0.750224,-3.083025,0.539719,-2.977846,0.314773,-2.908748,0.081522,-2.877617,-0.153671,-2.885302,-0.384392,-2.931593,-0.604347,-3.015228,-0.807537,-3.133925,-0.848852,-3.168305,-0.428332,-3.588825,-0.411133,-3.616295,-0.279571,-3.550440,-0.113852,-3.508143,
0.057071,-3.502038,0.225386,-3.532406,0.383399,-3.597857,0.523889,-3.695400,0.640433,-3.820578,0.727706,-3.967668,0.781717,-4.129948,0.800000,-4.300000,0.780902,-4.358779,0.730902,-4.395106,0.669098,-4.395106,0.619098,-4.358779,0.600000,-4.300000,0.603447,-4.289392,0.586263,-4.151538,0.531878,-4.012162,0.444943,-3.890401,0.330777,-3.793708,0.196368,-3.727999,0.049941,-3.697297,
-0.099542,-3.703479,-0.242933,-3.746169,-0.371457,-3.822752,-0.477248,-3.928543,-0.553831,-4.057067,-0.596521,-4.200458,-0.602703,-4.349941,-0.572001,-4.496368,-0.506292,-4.630777,-0.409599,-4.744943,-0.287838,-4.831878,-0.148462,-4.886263,-0.010608,-4.903447,0.000000,-4.900000,0.058779,-4.919098,0.095106,-4.969098,0.095106,-5.030902,0.058779,-5.080902,0.000000,-5.100000,-0.170052,-5.081717,
-0.332332,-5.027706,-0.479422,-4.940433,-0.604600,-4.823889,-0.702143,-4.683399,-0.767594,-4.525386,-0.797962,-4.357071,-0.791857,-4.186148,-0.749560,-4.020429,-0.683695,-3.888848,-0.711422,-3.871421,-1.131920,-3.450923,-1.142060,-3.462686,-1.264269,-3.663784,-1.351711,-3.882253,-1.402003,-4.112135,-1.413772,-4.347160,-1.386698,-4.580916,-1.321518,-4.807028,-1.220011,-5.019329,-1.084946,-5.212026,
-0.920006,-5.379865,-0.729690,-5.518267,-0.519191,-5.623457,-0.294248,-5.692566,-0.060999,-5.723709,0.174195,-5.716036,0.404918,-5.669757,0.613682,-5.590390,0.622778,-5.581743,0.684046,-5.573619,0.738387,-5.603060,0.765045,-5.658819,0.753838,-5.719598,0.709044,-5.762181,0.479789,-5.851102,0.239716,-5.904300,-0.005644,-5.920549,-0.250636,-5.899474,-0.489617,-5.841562,-0.717078,-5.748146,
-0.927781,-5.621379,-1.116869,-5.464182,-1.279987,-5.280176,-1.413375,-5.073602,-1.513961,-4.849219,-1.579427,-4.612196,-1.608264,-4.367996,-1.599808,-4.122244,-1.554255,-3.880603,-1.472652,-3.648641,-1.356882,-3.431702,-1.268849,-3.313994,-1.717541,-2.865302,-1.877055,-3.075621,-2.021549,-3.328667,-2.132008,-3.598315,-2.206567,-3.880010,-2.243965,-4.168995,-2.243572,-4.460389,-2.205394,-4.749272,
-2.130076,-5.030765,-2.018890,-5.300114,-1.873714,-5.552769,-1.696999,-5.784465,-1.491731,-5.991288,-1.261374,-6.169745,-1.009821,-6.316823,-0.741318,-6.430037,-0.460401,-6.507475,-0.171814,-6.547831,0.119569,-6.550421,0.408828,-6.515203,0.691077,-6.442772,0.961550,-6.334350,1.204922,-6.197803,1.213063,-6.187743,1.272755,-6.171725,1.330461,-6.193852,1.364141,-6.245673,1.360928,-6.307393,
1.322051,-6.355437,1.057951,-6.504576,0.777373,-6.619761,0.484663,-6.699209,0.184352,-6.741690,-0.118909,-6.746546,-0.420426,-6.713702,-0.715530,-6.643667,-0.999652,-6.537525,-1.268392,-6.396919,-1.517589,-6.224027,-1.743386,-6.021524,-1.942285,-5.792548,-2.111208,-5.540643,-2.247539,-5.269709,-2.349167,-4.983942,-2.414519,-4.687765,-2.442582,-4.385766,-2.432922,-4.082619,-2.385689,-3.783019,
-2.301613,-3.491604,-2.181998,-3.212887,-2.028694,-2.951183,-1.856329,-2.726514,-2.336584,-2.246259,-2.394243,-2.308122,-2.597102,-2.579951,-2.769153,-2.872254,-2.908347,-3.181556,-3.013031,-3.504176,-3.081957,-3.836278,-3.114308,-4.173911,-3.109697,-4.513059,-3.068180,-4.849688,-2.990251,-5.179793,-2.876836,-5.499449,-2.736235,-5.790465,-2.725123,-5.802953,-2.700658,-5.888482,-2.715703,-5.976161,
-2.767283,-6.048641,-2.845192,-6.091583,-2.934017,-6.096491,-3.016182,-6.062395,-3.075434,-5.996039,-3.075771,-5.995427,-3.075824,-5.995239,-3.230726,-5.677904,-3.353137,-5.345728,-3.441420,-5.002899,-3.494674,-4.652914,-3.512355,-4.299342,-3.494284,-3.945790,-3.440645,-3.595864,-3.351985,-3.253133,-3.229207,-2.921092,-3.073565,-2.603128,-2.886646,-2.302484,-2.670356,-2.022227,-2.426901,-1.765214,
-2.158765,-1.534068,-1.868682,-1.331146,-1.559611,-1.158518,-1.234704,-1.017943,-0.897276,-0.910857,-0.550767,-0.838351,-0.198712,-0.801165,-0.100000,-0.800750,-0.100000,-0.586834,-0.155291,-0.579555,-0.300000,-0.519615,-0.424264,-0.424264,-0.519615,-0.300000,-0.579555,-0.155291,-0.600000,0.000000,-0.579555,0.155291,-0.519615,0.300000,-0.424264,0.424264,-0.300000,0.519615,-0.155291,0.579555,
0.000000,0.600000,0.155291,0.579555,0.155291,0.579555,$1*%
%AMFreePoly4*
4,1,396,0.298095,7.025963,0.622659,6.973352,0.938992,6.883665,1.242873,6.758100,1.530247,6.598332,1.797282,6.406492,2.040414,6.185139,2.256400,5.937228,2.442358,5.666064,2.595807,5.375266,2.714701,5.068714,2.797453,4.750497,2.842959,4.424860,2.850611,4.096148,2.820309,3.768746,2.752455,3.447023,2.647956,3.135270,2.508206,2.837646,2.335068,2.558123,2.153620,2.329157,
2.343432,2.139387,2.384009,2.182744,2.585550,2.451341,2.756803,2.740193,2.895752,3.045899,3.000760,3.364860,3.070592,3.693321,3.104426,4.027414,3.101862,4.363206,3.062932,4.696744,2.988094,5.024100,2.878228,5.341420,2.741434,5.630583,2.730471,5.643116,2.706731,5.728850,2.722519,5.816398,2.774711,5.888438,2.852981,5.930718,2.941844,5.934874,3.023718,5.900082,
3.082405,5.833227,3.082737,5.832613,3.082792,5.832414,3.238818,5.504369,3.360115,5.161005,3.444974,4.806871,3.492473,4.445822,3.502094,4.081790,3.473733,3.718736,3.407697,3.360614,3.304707,3.011322,3.165883,2.674662,2.992736,2.354299,2.787152,2.053721,2.551368,1.776200,2.287951,1.524756,1.999769,1.302128,1.689959,1.110739,1.361893,0.952672,1.019143,0.829648,
0.665441,0.743007,0.308006,0.694151,0.321129,0.689478,0.334039,0.684881,0.477472,0.593856,0.597174,0.473315,0.687196,0.329249,0.743064,0.168820,0.762000,0.000000,0.761703,-0.021276,0.738060,-0.189502,0.677735,-0.348309,0.583726,-0.489804,0.460705,-0.606956,0.314786,-0.693941,0.153221,-0.746436,-0.015958,-0.761833,-0.184344,-0.739365,-0.343569,-0.680150,-0.485717,-0.587131,
-0.603725,-0.464931,-0.691726,-0.319622,-0.745348,-0.158429,-0.761926,0.010639,-0.740634,0.179178,-0.682532,0.338812,-0.590508,0.481606,-0.469134,0.600464,-0.324444,0.689478,-0.295116,0.699462,-0.422535,0.708771,-0.780985,0.773002,-1.130791,0.874233,-1.468146,1.011360,-1.789376,1.182892,-2.090986,1.386960,-2.091543,1.387381,-2.148579,1.455650,-2.170368,1.541901,-2.152597,1.629068,
-2.098784,1.699906,-2.019575,1.740400,-1.930641,1.742538,-1.849577,1.705898,-1.839098,1.693400,-1.574076,1.514891,-1.276876,1.358575,-0.964488,1.235380,-0.640592,1.146756,-0.309001,1.093747,0.026382,1.076977,0.361608,1.096643,0.692729,1.152513,1.015848,1.243931,1.327160,1.369819,1.623000,1.528695,1.899884,1.718690,2.060447,1.856686,1.870825,2.046266,1.640468,1.863942,
1.360839,1.690974,1.063131,1.551403,0.751315,1.447093,0.429550,1.379434,0.102131,1.349330,-0.226577,1.357181,-0.552186,1.402884,-0.870353,1.485828,-1.176833,1.604907,-1.467538,1.758533,-1.738589,1.944655,-1.986370,2.160791,-2.207575,2.404057,-2.399254,2.671207,-2.558848,2.958679,-2.684229,3.262635,-2.773724,3.579022,-2.826140,3.903618,-2.840776,4.232093,-2.817438,4.560065,
-2.756436,4.883158,-2.658586,5.197061,-2.525191,5.497587,-2.358033,5.780727,-2.309419,5.818890,-2.247659,5.821190,-2.196341,5.786749,-2.175069,5.728722,-2.191967,5.669273,-2.202356,5.661117,-2.357382,5.397107,-2.484632,5.104865,-2.575895,4.799465,-2.629852,4.485320,-2.645723,4.166971,-2.623278,3.849018,-2.562844,3.536055,-2.465291,3.232605,-2.332031,2.943054,-2.164989,2.671586,
-1.966580,2.422123,-1.739669,2.198271,-1.487537,2.003265,-1.213826,1.839923,-0.922493,1.710604,-0.617748,1.617179,-0.303994,1.560997,0.014235,1.542870,0.332339,1.563060,0.645723,1.621275,0.949856,1.716674,1.240345,1.847878,1.512990,2.012991,1.732224,2.184836,1.277196,2.639763,1.219314,2.589316,0.987802,2.437517,0.737787,2.318635,0.473919,2.234884,0.201109,2.187820,
-0.075569,2.178319,-0.350965,2.206559,-0.619956,2.272014,-0.877537,2.373466,-1.118916,2.509027,-1.339601,2.676175,-1.535487,2.871801,-1.702928,3.092264,-1.838810,3.333463,-1.940604,3.590909,-2.006416,3.859813,-2.035022,4.135171,-2.025889,4.411861,-1.979187,4.684734,-1.895786,4.948713,-1.777236,5.198886,-1.731841,5.240826,-1.670464,5.248074,-1.616549,5.217860,-1.590689,5.161727,
-1.602764,5.101114,-1.611861,5.092710,-1.718518,4.865634,-1.795086,4.614355,-1.834976,4.354715,-1.837368,4.092040,-1.802214,3.831717,-1.730234,3.579085,-1.622906,3.339326,-1.482429,3.117357,-1.311687,2.917730,-1.114179,2.744540,-0.893958,2.601340,-0.655539,2.491065,-0.403813,2.415978,-0.143943,2.377618,0.118741,2.376774,0.378853,2.413461,0.631056,2.486927,0.870179,2.595666,
1.091317,2.737447,1.138576,2.778353,0.701718,3.215114,0.600059,3.143430,0.410754,3.054069,0.208886,2.998653,0.000489,2.978840,-0.208205,2.995222,-0.410958,3.047309,-0.601707,3.133544,-0.774750,3.251349,-0.924912,3.397201,-1.047706,3.566740,-1.139458,3.754898,-1.197426,3.956048,-1.219878,4.164177,-1.206141,4.373062,-1.156627,4.576459,-1.119742,4.626049,-1.060753,4.644488,
-1.002192,4.624733,-0.966427,4.574329,-0.967119,4.512529,-0.973971,4.503317,-1.015681,4.324791,-1.023032,4.130626,-0.993260,3.938617,-0.927455,3.755796,-0.828028,3.588859,-0.698619,3.443921,-0.543968,3.326289,-0.369741,3.240273,-0.182318,3.189024,0.011435,3.174417,0.204423,3.196989,0.389577,3.255912,0.560115,3.349028,0.564305,3.352496,0.103873,3.812825,0.000000,3.796373,
-0.124569,3.816103,-0.236944,3.873361,-0.326125,3.962542,-0.383383,4.074917,-0.403113,4.199486,-0.383383,4.324055,-0.326125,4.436430,-0.236944,4.525611,-0.124569,4.582869,0.000000,4.602599,0.124569,4.582869,0.236944,4.525611,0.326125,4.436430,0.383383,4.324055,0.403113,4.199486,0.386676,4.095708,0.842354,3.640131,0.925593,3.793960,0.983815,3.979336,1.005656,4.172408,
0.990316,4.366105,0.938357,4.553332,0.851682,4.727233,0.733467,4.881437,0.588039,5.010296,0.420727,5.109091,0.237658,5.174204,0.045538,5.203249,-0.148597,5.195162,-0.326968,5.152775,-0.336151,5.145891,-0.397948,5.144965,-0.448486,5.180539,-0.468463,5.239025,-0.450248,5.298083,-0.400797,5.335155,-0.197589,5.385438,0.011242,5.399966,0.219455,5.378302,0.420823,5.321096,
0.609326,5.230056,0.779329,5.107906,0.925749,4.958296,1.044208,4.785701,1.131164,4.595279,1.184018,4.392725,1.201190,4.184094,1.182166,3.975624,1.127515,3.773547,1.038870,3.583906,0.981141,3.501375,1.421462,3.061152,1.461958,3.107887,1.603859,3.328948,1.712727,3.568012,1.786330,3.820176,1.823158,4.080267,1.822456,4.342952,1.784237,4.602843,1.709286,4.854610,
1.599141,5.093088,1.456059,5.313387,1.282977,5.510988,1.083443,5.681839,0.861550,5.822435,0.621848,5.929894,0.369256,6.002010,0.108952,6.037305,-0.153725,6.035055,-0.413386,5.995307,-0.664706,5.918874,-0.891839,5.812341,-0.900250,5.803248,-0.960869,5.791207,-1.016988,5.817097,-1.047172,5.871029,-1.039892,5.932402,-0.997926,5.977774,-0.747689,6.096187,-0.483665,6.179446,
-0.210767,6.225999,0.065927,6.234982,0.341270,6.206228,0.610139,6.140270,0.867530,6.038337,1.108655,5.902324,1.329027,5.734764,1.524546,5.538772,1.691575,5.317996,1.827006,5.076544,1.928318,4.818908,1.993627,4.549881,2.021718,4.274470,2.012067,3.997798,1.964856,3.725013,1.880961,3.461190,1.761944,3.211239,1.610020,2.979810,1.560076,2.922568,2.015028,2.467718,
2.186096,2.685690,2.351375,2.958236,2.482755,3.248645,2.578337,3.552720,2.636742,3.866069,2.657124,4.184161,2.639190,4.502400,2.583198,4.816188,2.489957,5.120990,2.360815,5.412402,2.197638,5.686211,2.002784,5.938461,1.779070,6.165507,1.529727,6.364068,1.258360,6.531274,0.968889,6.664709,0.665499,6.762445,0.352573,6.823069,0.034633,6.845705,-0.283726,6.830027,
-0.597903,6.776260,-0.903358,6.685182,-1.195677,6.558109,-1.459782,6.403241,-1.467943,6.392859,-1.527402,6.375997,-1.585416,6.397305,-1.619827,6.448643,-1.617490,6.510402,-1.579297,6.558993,-1.296056,6.725979,-0.995449,6.859192,-0.681486,6.956852,-0.358357,7.017658,-0.030371,7.040798,0.298095,7.025963,0.298095,7.025963,$1*%
%AMFreePoly5*
4,1,342,0.155291,0.579555,0.300000,0.519615,0.424264,0.424264,0.519615,0.300000,0.579555,0.155291,0.600000,0.000000,0.579555,-0.155291,0.519615,-0.300000,0.424264,-0.424264,0.300000,-0.519615,0.155291,-0.579555,0.100000,-0.586834,0.100000,-0.799910,0.155299,-0.799678,0.507653,-0.833906,0.854759,-0.903498,1.193075,-1.007746,1.519152,-1.145586,1.829662,-1.315612,2.121439,-1.516090,
2.121993,-1.516514,2.178654,-1.585095,2.199969,-1.671464,2.181720,-1.758533,2.127520,-1.829074,2.048089,-1.869133,1.959144,-1.870783,1.878283,-1.833698,1.867831,-1.821092,1.601005,-1.639340,1.301552,-1.480058,0.986535,-1.354333,0.659700,-1.263662,0.324934,-1.209123,-0.013780,-1.191365,-0.352414,-1.210600,-0.686939,-1.266597,-1.013376,-1.358692,-1.327842,-1.485789,-1.626597,-1.646375,
-1.906087,-1.838541,-2.052447,-1.964711,-1.570297,-2.446861,-1.392771,-2.306979,-1.133072,-2.150302,-0.855925,-2.027091,-0.565622,-1.939253,-0.266658,-1.888148,0.036338,-1.874568,0.338675,-1.898722,0.635672,-1.960236,0.922731,-2.058159,1.195405,-2.190973,1.449475,-2.356623,1.681005,-2.552544,1.886411,-2.775702,2.062513,-3.022642,2.206583,-3.289541,2.316392,-3.572266,2.390239,-3.866439,
2.426981,-4.167506,2.426048,-4.470805,2.387455,-4.771640,2.311801,-5.065354,2.200255,-5.347397,2.054545,-5.613405,2.007008,-5.652901,1.945335,-5.656911,1.893083,-5.623905,1.870210,-5.566489,1.885455,-5.506595,1.895410,-5.498324,2.028796,-5.253207,2.133710,-4.981354,2.202484,-4.698192,2.233957,-4.408501,2.227598,-4.117176,2.183512,-3.829135,2.102446,-3.549243,1.985768,-3.282228,
1.835449,-3.032598,1.654026,-2.804570,1.444565,-2.601993,1.210603,-2.428291,0.956091,-2.286395,0.685326,-2.178703,0.402882,-2.107033,0.113530,-2.072595,-0.177846,-2.075972,-0.466323,-2.117106,-0.747030,-2.195302,-1.015226,-2.309240,-1.266382,-2.456995,-1.431518,-2.585640,-0.987921,-3.029236,-0.838498,-2.920874,-0.619953,-2.808331,-0.386895,-2.730151,-0.144692,-2.688134,0.101080,-2.683249,
0.344762,-2.715606,0.580743,-2.784463,0.803588,-2.888232,1.008166,-3.024524,1.189767,-3.190201,1.344209,-3.381449,1.467936,-3.593863,1.558098,-3.822552,1.612620,-4.062250,1.630246,-4.307438,1.610570,-4.552470,1.554046,-4.791704,1.461975,-5.019632,1.418774,-5.063829,1.357845,-5.074191,1.302462,-5.046761,1.273778,-4.992017,1.282751,-4.930868,1.291523,-4.921894,1.373759,-4.714320,
1.423239,-4.484337,1.434203,-4.249346,1.406351,-4.015755,1.340443,-3.789929,1.238277,-3.578027,1.102636,-3.385823,0.937218,-3.218558,0.746533,-3.080790,0.535778,-2.976275,0.310700,-2.907863,0.077432,-2.877418,-0.157666,-2.885771,-0.388185,-2.932693,-0.607842,-3.016905,-0.810649,-3.136112,-0.848978,-3.168179,-0.428332,-3.588825,-0.411133,-3.616295,-0.279571,-3.550440,-0.113852,-3.508143,
0.057071,-3.502038,0.225386,-3.532406,0.383399,-3.597857,0.523889,-3.695400,0.640433,-3.820578,0.727706,-3.967668,0.781717,-4.129948,0.800000,-4.300000,0.780902,-4.358779,0.730902,-4.395106,0.669098,-4.395106,0.619098,-4.358779,0.600000,-4.300000,0.603447,-4.289392,0.586263,-4.151538,0.531878,-4.012162,0.444943,-3.890401,0.330777,-3.793708,0.196368,-3.727999,0.049941,-3.697297,
-0.099542,-3.703479,-0.242933,-3.746169,-0.371457,-3.822752,-0.477248,-3.928543,-0.553831,-4.057067,-0.596521,-4.200458,-0.602703,-4.349941,-0.572001,-4.496368,-0.506292,-4.630777,-0.409599,-4.744943,-0.287838,-4.831878,-0.148462,-4.886263,-0.010608,-4.903447,0.000000,-4.900000,0.058779,-4.919098,0.095106,-4.969098,0.095106,-5.030902,0.058779,-5.080902,0.000000,-5.100000,-0.170052,-5.081717,
-0.332332,-5.027706,-0.479422,-4.940433,-0.604600,-4.823889,-0.702143,-4.683399,-0.767594,-4.525386,-0.797962,-4.357071,-0.791857,-4.186148,-0.749560,-4.020429,-0.683695,-3.888848,-0.711422,-3.871421,-1.131738,-3.451105,-1.144207,-3.465647,-1.265866,-3.666991,-1.352738,-3.885610,-1.402454,-4.115543,-1.413658,-4.350522,-1.386047,-4.584142,-1.320371,-4.810035,-1.218422,-5.022042,-1.082978,-5.214385,
-0.917733,-5.381820,-0.727189,-5.519784,-0.516542,-5.624514,-0.291533,-5.693158,-0.058297,-5.723842,0.176810,-5.715731,0.407377,-5.669046,0.615933,-5.589335,0.625013,-5.580672,0.686266,-5.572442,0.740658,-5.601787,0.767414,-5.657500,0.756313,-5.718298,0.711595,-5.760960,0.482567,-5.850258,0.242665,-5.903875,-0.002588,-5.920576,-0.247544,-5.899976,-0.486563,-5.842549,-0.714141,-5.749618,
-0.925038,-5.623323,-1.114397,-5.466571,-1.277859,-5.282973,-1.411658,-5.076756,-1.512715,-4.852668,-1.578703,-4.615869,-1.608101,-4.371813,-1.600233,-4.126118,-1.555280,-3.884442,-1.474278,-3.652350,-1.359091,-3.435187,-1.268899,-3.313944,-1.717541,-2.865302,-1.877055,-3.075621,-2.021549,-3.328667,-2.132008,-3.598315,-2.206567,-3.880010,-2.243965,-4.168995,-2.243572,-4.460389,-2.205394,-4.749272,
-2.130076,-5.030765,-2.018890,-5.300114,-1.873714,-5.552769,-1.696999,-5.784465,-1.491731,-5.991288,-1.261374,-6.169745,-1.009821,-6.316823,-0.741318,-6.430037,-0.460401,-6.507475,-0.171814,-6.547831,0.119569,-6.550421,0.408828,-6.515203,0.691077,-6.442772,0.961550,-6.334350,1.204922,-6.197803,1.213063,-6.187743,1.272755,-6.171725,1.330461,-6.193852,1.364141,-6.245673,1.360928,-6.307393,
1.322051,-6.355437,1.057951,-6.504576,0.777373,-6.619761,0.484663,-6.699209,0.184352,-6.741690,-0.118909,-6.746546,-0.420426,-6.713702,-0.715530,-6.643667,-0.999652,-6.537525,-1.268392,-6.396919,-1.517589,-6.224027,-1.743386,-6.021524,-1.942285,-5.792548,-2.111208,-5.540643,-2.247539,-5.269709,-2.349167,-4.983942,-2.414519,-4.687765,-2.442582,-4.385766,-2.432922,-4.082619,-2.385689,-3.783019,
-2.301613,-3.491604,-2.181998,-3.212887,-2.028694,-2.951183,-1.856329,-2.726514,-2.336584,-2.246259,-2.394243,-2.308122,-2.597102,-2.579951,-2.769153,-2.872254,-2.908347,-3.181556,-3.013031,-3.504176,-3.081957,-3.836278,-3.114308,-4.173911,-3.109697,-4.513059,-3.068180,-4.849688,-2.990251,-5.179793,-2.876836,-5.499449,-2.736235,-5.790465,-2.725123,-5.802953,-2.700658,-5.888482,-2.715703,-5.976161,
-2.767283,-6.048641,-2.845192,-6.091583,-2.934017,-6.096491,-3.016182,-6.062395,-3.075434,-5.996039,-3.075771,-5.995427,-3.075824,-5.995239,-3.230726,-5.677904,-3.353137,-5.345728,-3.441420,-5.002899,-3.494674,-4.652914,-3.512355,-4.299342,-3.494284,-3.945790,-3.440645,-3.595864,-3.351985,-3.253133,-3.229207,-2.921092,-3.073565,-2.603128,-2.886646,-2.302484,-2.670356,-2.022227,-2.426901,-1.765214,
-2.158765,-1.534068,-1.868682,-1.331146,-1.559611,-1.158518,-1.234704,-1.017943,-0.897276,-0.910857,-0.550767,-0.838351,-0.198712,-0.801165,-0.100000,-0.800750,-0.100000,-0.586834,-0.155291,-0.579555,-0.300000,-0.519615,-0.424264,-0.424264,-0.519615,-0.300000,-0.579555,-0.155291,-0.600000,0.000000,-0.579555,0.155291,-0.519615,0.300000,-0.424264,0.424264,-0.300000,0.519615,-0.155291,0.579555,
0.000000,0.600000,0.155291,0.579555,0.155291,0.579555,$1*%
%AMFreePoly6*
4,1,345,0.155291,0.579555,0.300000,0.519615,0.424264,0.424264,0.519615,0.300000,0.579555,0.155291,0.600000,0.000000,0.579555,-0.155291,0.519615,-0.300000,0.424264,-0.424264,0.300000,-0.519615,0.155291,-0.579555,0.100000,-0.586834,0.100000,-0.799910,0.155299,-0.799678,0.507652,-0.833906,0.854758,-0.903498,1.193074,-1.007746,1.519152,-1.145586,1.829662,-1.315612,2.121438,-1.516090,
2.121993,-1.516514,2.178654,-1.585094,2.199969,-1.671465,2.181720,-1.758534,2.127520,-1.829074,2.048089,-1.869133,1.959144,-1.870783,1.878283,-1.833698,1.867830,-1.821092,1.601005,-1.639340,1.301552,-1.480058,0.986536,-1.354333,0.659700,-1.263662,0.324934,-1.209123,0.064791,-1.195484,0.030902,-1.220106,-0.030902,-1.220106,-0.066351,-1.194351,-0.352414,-1.210600,-0.686939,-1.266597,
-1.013376,-1.358692,-1.327843,-1.485789,-1.626597,-1.646375,-1.906087,-1.838541,-2.052447,-1.964711,-1.570297,-2.446861,-1.392771,-2.306979,-1.133072,-2.150302,-0.855925,-2.027091,-0.565622,-1.939253,-0.266658,-1.888148,0.036338,-1.874568,0.338675,-1.898722,0.635672,-1.960236,0.922731,-2.058159,1.195405,-2.190973,1.449475,-2.356624,1.681005,-2.552544,1.886411,-2.775702,2.062513,-3.022642,
2.206583,-3.289541,2.316392,-3.572266,2.390239,-3.866439,2.426981,-4.167506,2.426048,-4.470806,2.387456,-4.771640,2.311801,-5.065354,2.200255,-5.347397,2.054545,-5.613405,2.007008,-5.652902,1.945335,-5.656912,1.893083,-5.623905,1.870210,-5.566489,1.885455,-5.506595,1.895410,-5.498324,2.028796,-5.253207,2.133710,-4.981354,2.202484,-4.698192,2.233957,-4.408501,2.227598,-4.117176,
2.183512,-3.829135,2.102446,-3.549243,1.985768,-3.282228,1.835449,-3.032598,1.654026,-2.804569,1.444565,-2.601993,1.210604,-2.428291,0.956091,-2.286395,0.685326,-2.178703,0.402882,-2.107033,0.113530,-2.072595,-0.177846,-2.075972,-0.466323,-2.117106,-0.747030,-2.195302,-1.015226,-2.309240,-1.266382,-2.456995,-1.431519,-2.585640,-0.987921,-3.029236,-0.838498,-2.920874,-0.619953,-2.808331,
-0.386895,-2.730151,-0.144692,-2.688134,0.101080,-2.683249,0.344762,-2.715606,0.580743,-2.784463,0.803588,-2.888232,1.008166,-3.024523,1.189767,-3.190201,1.344209,-3.381449,1.467936,-3.593862,1.558098,-3.822552,1.612620,-4.062250,1.630246,-4.307439,1.610570,-4.552469,1.554046,-4.791704,1.461975,-5.019632,1.418774,-5.063829,1.357845,-5.074190,1.302462,-5.046761,1.273778,-4.992017,
1.282751,-4.930868,1.291523,-4.921894,1.373759,-4.714320,1.423239,-4.484337,1.434203,-4.249346,1.406351,-4.015755,1.340443,-3.789929,1.238277,-3.578027,1.102636,-3.385823,0.937218,-3.218558,0.746533,-3.080790,0.535778,-2.976275,0.310700,-2.907864,0.077432,-2.877418,-0.157666,-2.885771,-0.388185,-2.932693,-0.607842,-3.016905,-0.810648,-3.136112,-0.848978,-3.168179,-0.428332,-3.588825,
-0.411133,-3.616295,-0.279571,-3.550440,-0.113852,-3.508143,0.057071,-3.502038,0.225386,-3.532406,0.383399,-3.597857,0.523889,-3.695400,0.640433,-3.820578,0.727706,-3.967668,0.781717,-4.129948,0.800000,-4.300000,0.780902,-4.358779,0.730902,-4.395106,0.669098,-4.395106,0.619098,-4.358779,0.600000,-4.300000,0.603447,-4.289392,0.586263,-4.151538,0.531878,-4.012161,0.444943,-3.890401,
0.330777,-3.793708,0.196369,-3.727999,0.049941,-3.697297,-0.099542,-3.703479,-0.242933,-3.746169,-0.371457,-3.822752,-0.477248,-3.928543,-0.553831,-4.057067,-0.596521,-4.200458,-0.602703,-4.349941,-0.572001,-4.496368,-0.506292,-4.630777,-0.409599,-4.744943,-0.287838,-4.831878,-0.148462,-4.886263,-0.010608,-4.903448,0.000000,-4.900000,0.058779,-4.919099,0.095106,-4.969098,0.095106,-5.030902,
0.058779,-5.080902,0.000000,-5.100001,-0.170051,-5.081717,-0.332332,-5.027706,-0.479422,-4.940433,-0.604600,-4.823889,-0.702143,-4.683399,-0.767594,-4.525386,-0.797962,-4.357071,-0.791857,-4.186148,-0.749560,-4.020430,-0.683695,-3.888848,-0.711422,-3.871421,-1.131738,-3.451105,-1.144207,-3.465647,-1.265866,-3.666991,-1.352738,-3.885610,-1.402454,-4.115543,-1.413658,-4.350522,-1.386047,-4.584142,
-1.320371,-4.810035,-1.218422,-5.022041,-1.082978,-5.214385,-0.917733,-5.381820,-0.727189,-5.519784,-0.516542,-5.624514,-0.291533,-5.693159,-0.058297,-5.723842,0.176810,-5.715731,0.407377,-5.669046,0.615933,-5.589335,0.625013,-5.580672,0.686266,-5.572442,0.740658,-5.601787,0.767414,-5.657500,0.756313,-5.718298,0.711595,-5.760960,0.482567,-5.850259,0.242665,-5.903875,-0.002588,-5.920575,
-0.247544,-5.899976,-0.486563,-5.842549,-0.714141,-5.749618,-0.925038,-5.623323,-1.114397,-5.466571,-1.277859,-5.282973,-1.411658,-5.076757,-1.512715,-4.852667,-1.578703,-4.615869,-1.608102,-4.371813,-1.600234,-4.126118,-1.555280,-3.884442,-1.474278,-3.652349,-1.359090,-3.435187,-1.268899,-3.313944,-1.717540,-2.865302,-1.877055,-3.075621,-2.021549,-3.328667,-2.132008,-3.598315,-2.206567,-3.880010,
-2.243965,-4.168996,-2.243572,-4.460389,-2.205394,-4.749271,-2.130076,-5.030765,-2.018890,-5.300114,-1.873713,-5.552769,-1.696999,-5.784465,-1.491731,-5.991287,-1.261375,-6.169745,-1.009821,-6.316823,-0.741318,-6.430037,-0.460401,-6.507475,-0.171814,-6.547831,0.119569,-6.550421,0.408828,-6.515203,0.691077,-6.442772,0.961550,-6.334350,1.204922,-6.197803,1.213063,-6.187743,1.272755,-6.171725,
1.330461,-6.193852,1.364141,-6.245673,1.360928,-6.307393,1.322051,-6.355437,1.057951,-6.504576,0.777373,-6.619761,0.484663,-6.699210,0.184352,-6.741690,-0.118909,-6.746546,-0.420426,-6.713702,-0.715530,-6.643667,-0.999652,-6.537525,-1.268392,-6.396919,-1.517589,-6.224027,-1.743387,-6.021524,-1.942285,-5.792548,-2.111208,-5.540643,-2.247539,-5.269709,-2.349167,-4.983942,-2.414519,-4.687765,
-2.442582,-4.385766,-2.432922,-4.082619,-2.385688,-3.783019,-2.301613,-3.491604,-2.181998,-3.212887,-2.028694,-2.951183,-1.856329,-2.726514,-2.336583,-2.246259,-2.394243,-2.308122,-2.597102,-2.579951,-2.769153,-2.872254,-2.908347,-3.181556,-3.013031,-3.504176,-3.081957,-3.836278,-3.114308,-4.173911,-3.109697,-4.513059,-3.068180,-4.849688,-2.990251,-5.179793,-2.876836,-5.499449,-2.736235,-5.790465,
-2.725123,-5.802952,-2.700658,-5.888482,-2.715703,-5.976161,-2.767284,-6.048641,-2.845192,-6.091583,-2.934017,-6.096491,-3.016182,-6.062395,-3.075434,-5.996039,-3.075771,-5.995428,-3.075824,-5.995239,-3.230726,-5.677904,-3.353136,-5.345728,-3.441420,-5.002899,-3.494674,-4.652914,-3.512355,-4.299342,-3.494284,-3.945790,-3.440645,-3.595864,-3.351985,-3.253133,-3.229207,-2.921092,-3.073565,-2.603128,
-2.886646,-2.302484,-2.670356,-2.022227,-2.426901,-1.765214,-2.158764,-1.534068,-1.868682,-1.331146,-1.559611,-1.158517,-1.234704,-1.017943,-0.897276,-0.910857,-0.550767,-0.838351,-0.198712,-0.801165,-0.100000,-0.800750,-0.100000,-0.586834,-0.155291,-0.579555,-0.300000,-0.519615,-0.424264,-0.424264,-0.519615,-0.300000,-0.579555,-0.155291,-0.600000,0.000000,-0.579555,0.155291,-0.519615,0.300000,
-0.424264,0.424264,-0.300000,0.519615,-0.155291,0.579555,0.000000,0.600000,0.155291,0.579555,0.155291,0.579555,$1*%
%AMFreePoly7*
4,1,49,-1.862130,5.118703,-1.860666,5.115167,-1.860666,0.632834,-0.389000,0.632834,-0.389000,5.115167,-0.387536,5.118703,-0.384000,5.120167,0.208667,5.120167,0.212203,5.118703,0.213667,5.115167,0.213667,0.632834,1.664167,0.632834,1.664167,5.115167,1.665631,5.118703,1.669167,5.120167,2.240667,5.120167,2.244203,5.118703,2.245667,5.115167,2.245667,0.056334,2.244203,0.052798,
2.240667,0.051334,0.492648,0.051334,0.500000,0.000000,0.499851,-0.012216,0.476331,-0.152017,0.414519,-0.279596,0.319384,-0.384700,0.198574,-0.458877,0.061801,-0.496166,-0.079941,-0.493568,-0.215256,-0.451293,-0.333266,-0.372738,-0.424486,-0.264219,-0.463180,-0.176280,-0.466055,-0.172692,-0.466264,-0.171972,-0.466788,-0.171439,-0.516084,-0.049507,-0.516081,-0.049116,-0.516310,-0.048800,
-0.540331,0.051334,-2.437166,0.051334,-2.440702,0.052798,-2.442166,0.056334,-2.442166,5.115167,-2.440702,5.118703,-2.437166,5.120167,-1.865666,5.120167,-1.862130,5.118703,-1.862130,5.118703,$1*%
%AMFreePoly8*
4,1,69,0.073905,0.494508,0.209726,0.453889,0.328688,0.376782,0.421226,0.269385,0.436433,0.235940,0.458241,0.207057,0.458401,0.206442,0.458855,0.205995,0.508167,0.089653,0.508170,0.089285,0.508394,0.088993,0.530743,0.005432,0.749088,-0.007927,0.787775,-0.009847,0.884489,-0.012987,1.012625,-0.015785,1.164980,-0.018134,1.334660,-0.019937,1.514570,-0.021092,1.697721,-0.021500,
2.424667,-0.021500,2.428203,-0.022964,2.429667,-0.026500,2.429667,-5.065361,2.429646,-5.065411,2.429666,-5.065462,2.428915,-5.067177,2.428203,-5.068897,2.428153,-5.068918,2.428131,-5.068968,2.426383,-5.069651,2.424667,-5.070361,2.424617,-5.070340,2.424566,-5.070360,1.842483,-5.058582,1.840742,-5.057820,1.839057,-5.057127,1.839034,-5.057072,1.838977,-5.057047,1.838292,-5.055293,
1.837584,-5.053595,1.826819,-0.581833,0.376500,-0.581833,0.376500,-5.064166,0.375036,-5.067702,0.371500,-5.069166,-0.200000,-5.069166,-0.203536,-5.067702,-0.205000,-5.064166,-0.205000,-0.581833,-1.676666,-0.581833,-1.676666,-5.064166,-1.678130,-5.067702,-1.681666,-5.069166,-2.253166,-5.069166,-2.256702,-5.067702,-2.258166,-5.064166,-2.258166,-0.026500,-2.256702,-0.022964,-2.253166,-0.021500,
-0.496353,-0.021500,-0.497876,-0.009847,-0.499963,0.006109,-0.478152,0.146186,-0.417904,0.274511,-0.324060,0.380769,-0.204165,0.456417,-0.067858,0.495374,0.073905,0.494508,0.073905,0.494508,$1*%
G04 Aperture macros list end*
%ADD10C,2.590494*%
%ADD11C,0.810267*%
%ADD12C,0.814255*%
%ADD13C,3.560000*%
%ADD14C,0.010000*%
%ADD15C,2.200000*%
%ADD16C,0.787400*%
%ADD17C,0.700000*%
%ADD18R,1.350000X1.350000*%
%ADD19O,1.350000X1.350000*%
%ADD20C,1.200000*%
%ADD21C,2.000000*%
%ADD22C,1.000000*%
%ADD23O,1.700000X2.250000*%
%ADD24R,1.700000X2.250000*%
%ADD25RotRect,1.350000X1.350000X102.000000*%
%ADD26HorizOval,1.350000X0.000000X0.000000X0.000000X0.000000X0*%
%ADD27O,1.400000X1.600000*%
%ADD28R,1.400000X1.600000*%
%ADD29O,1.250000X0.950000*%
%ADD30O,0.890000X1.550000*%
%ADD31O,1.700000X2.000000*%
%ADD32C,1.700000*%
%ADD33O,1.600000X2.500000*%
%ADD34O,1.250000X2.500000*%
%ADD35C,1.600000*%
%ADD36O,1.600000X2.600000*%
%ADD37HorizOval,2.800000X0.577898X0.161352X-0.577898X-0.161352X0*%
%ADD38FreePoly0,0.000000*%
%ADD39FreePoly1,180.000000*%
%ADD40HorizOval,2.800000X-0.577898X-0.161352X0.577898X0.161352X0*%
%ADD41RoundRect,0.150000X0.587500X0.150000X-0.587500X0.150000X-0.587500X-0.150000X0.587500X-0.150000X0*%
%ADD42RoundRect,0.150000X-0.150000X0.587500X-0.150000X-0.587500X0.150000X-0.587500X0.150000X0.587500X0*%
%ADD43FreePoly2,0.000000*%
%ADD44C,0.800000*%
%ADD45FreePoly3,0.000000*%
%ADD46RoundRect,0.150000X0.150000X-0.587500X0.150000X0.587500X-0.150000X0.587500X-0.150000X-0.587500X0*%
%ADD47FreePoly4,90.000000*%
%ADD48FreePoly5,90.000000*%
%ADD49FreePoly2,90.000000*%
%ADD50FreePoly3,90.000000*%
%ADD51RoundRect,0.150000X-0.587500X-0.150000X0.587500X-0.150000X0.587500X0.150000X-0.587500X0.150000X0*%
%ADD52FreePoly4,135.000000*%
%ADD53FreePoly6,135.000000*%
%ADD54FreePoly7,180.000000*%
%ADD55FreePoly8,180.000000*%
G04 APERTURE END LIST*
D10*
X119625247Y-67850000D02*
G75*
G03*
X119625247Y-67850000I-1295247J0D01*
G01*
D11*
X118735133Y-64650000D02*
G75*
G03*
X118735133Y-64650000I-405133J0D01*
G01*
D12*
X118737127Y-71050000D02*
G75*
G03*
X118737127Y-71050000I-407127J0D01*
G01*
D10*
X126445247Y-61170000D02*
G75*
G03*
X126445247Y-61170000I-1295247J0D01*
G01*
D11*
X125555133Y-57970000D02*
G75*
G03*
X125555133Y-57970000I-405133J0D01*
G01*
D12*
X125557127Y-64370000D02*
G75*
G03*
X125557127Y-64370000I-407127J0D01*
G01*
D13*
X76420000Y-37390000D02*
G75*
G03*
X76420000Y-37390000I-1780000J0D01*
G01*
X80310000Y-26010000D02*
G75*
G03*
X80310000Y-26010000I-1780000J0D01*
G01*
X88550000Y-42920000D02*
G75*
G03*
X88550000Y-42920000I-1780000J0D01*
G01*
D11*
X131955133Y-64650000D02*
G75*
G03*
X131955133Y-64650000I-405133J0D01*
G01*
D10*
X132845247Y-67850000D02*
G75*
G03*
X132845247Y-67850000I-1295247J0D01*
G01*
D12*
X131957127Y-71050000D02*
G75*
G03*
X131957127Y-71050000I-407127J0D01*
G01*
D13*
X66059000Y-31800193D02*
G75*
G03*
X66059000Y-31800193I-1780000J0D01*
G01*
D12*
X125437127Y-77100000D02*
G75*
G03*
X125437127Y-77100000I-407127J0D01*
G01*
D11*
X125435133Y-70700000D02*
G75*
G03*
X125435133Y-70700000I-405133J0D01*
G01*
D10*
X126325247Y-73900000D02*
G75*
G03*
X126325247Y-73900000I-1295247J0D01*
G01*
G36*
X107068500Y-55941389D02*
G01*
X107068436Y-56226290D01*
X107068185Y-56569644D01*
X107067754Y-56899450D01*
X107067156Y-57213308D01*
X107066400Y-57508820D01*
X107065498Y-57783587D01*
X107064462Y-58035210D01*
X107063303Y-58261290D01*
X107062031Y-58459430D01*
X107060659Y-58627229D01*
X107059198Y-58762290D01*
X107057658Y-58862214D01*
X107056051Y-58924602D01*
X107054389Y-58947056D01*
X107052851Y-58947462D01*
X107020895Y-58949182D01*
X106949690Y-58950838D01*
X106841739Y-58952418D01*
X106699547Y-58953907D01*
X106525618Y-58955295D01*
X106322456Y-58956566D01*
X106092565Y-58957710D01*
X105838450Y-58958713D01*
X105562613Y-58959562D01*
X105267559Y-58960245D01*
X104955793Y-58960749D01*
X104629818Y-58961060D01*
X104292139Y-58961167D01*
X101544000Y-58961167D01*
X101544000Y-52949834D01*
X107068500Y-52949834D01*
X107068500Y-55941389D01*
G37*
D14*
X107068500Y-55941389D02*
X107068436Y-56226290D01*
X107068185Y-56569644D01*
X107067754Y-56899450D01*
X107067156Y-57213308D01*
X107066400Y-57508820D01*
X107065498Y-57783587D01*
X107064462Y-58035210D01*
X107063303Y-58261290D01*
X107062031Y-58459430D01*
X107060659Y-58627229D01*
X107059198Y-58762290D01*
X107057658Y-58862214D01*
X107056051Y-58924602D01*
X107054389Y-58947056D01*
X107052851Y-58947462D01*
X107020895Y-58949182D01*
X106949690Y-58950838D01*
X106841739Y-58952418D01*
X106699547Y-58953907D01*
X106525618Y-58955295D01*
X106322456Y-58956566D01*
X106092565Y-58957710D01*
X105838450Y-58958713D01*
X105562613Y-58959562D01*
X105267559Y-58960245D01*
X104955793Y-58960749D01*
X104629818Y-58961060D01*
X104292139Y-58961167D01*
X101544000Y-58961167D01*
X101544000Y-52949834D01*
X107068500Y-52949834D01*
X107068500Y-55941389D01*
D15*
X104400000Y-32770000D03*
D16*
X149420000Y-63770000D03*
X77420000Y-59610000D03*
X100600000Y-63410000D03*
D17*
X155760000Y-63100000D03*
D18*
X105495000Y-76900000D03*
D19*
X103495000Y-76900000D03*
X101495000Y-76900000D03*
X99495000Y-76900000D03*
X97495000Y-76900000D03*
X95495000Y-76900000D03*
D16*
X159680000Y-56810000D03*
X157330000Y-56850000D03*
D20*
X72290000Y-74940000D03*
D17*
X171630000Y-61810000D03*
D21*
X100960000Y-71570000D03*
D16*
X164600000Y-59290000D03*
X166710000Y-60460000D03*
X164610000Y-52930000D03*
D21*
X160460000Y-63150000D03*
D16*
X154970000Y-58150000D03*
X166740000Y-61590000D03*
X149410000Y-52460000D03*
X158460000Y-58160000D03*
X166730000Y-52910000D03*
D20*
X100440000Y-67490000D03*
D16*
X166720000Y-54100000D03*
X99460000Y-61630000D03*
X166710000Y-51840000D03*
X147050000Y-51060000D03*
X164590000Y-51840000D03*
D17*
X155770000Y-51770000D03*
D16*
X156150000Y-56840000D03*
X164600000Y-54100000D03*
X147060000Y-62370000D03*
D22*
X117400000Y-48270000D03*
D16*
X98360000Y-61660000D03*
X158460000Y-56830000D03*
X159670000Y-58190000D03*
X166730000Y-55340000D03*
D21*
X151160000Y-63150000D03*
D16*
X149410000Y-62380000D03*
X156140000Y-58160000D03*
X166700000Y-50630000D03*
X98380000Y-63410000D03*
X164590000Y-60460000D03*
X164610000Y-55310000D03*
D23*
X70600000Y-44880000D03*
D24*
X68060000Y-44880000D03*
D16*
X99510000Y-63430000D03*
D25*
X70074899Y-24683110D03*
D26*
X72031194Y-24267287D03*
D22*
X92400000Y-48270000D03*
D27*
X113420000Y-32890000D03*
X115420000Y-32890000D03*
X117420000Y-32890000D03*
D28*
X119420000Y-32890000D03*
X121420000Y-32890000D03*
X123420000Y-32890000D03*
D29*
X140180000Y-66510000D03*
X145180000Y-66510000D03*
D30*
X139180000Y-69210000D03*
X146180000Y-69210000D03*
D21*
X160460000Y-51840000D03*
D18*
X64713000Y-58674000D03*
D19*
X66364000Y-58674000D03*
X68015000Y-58674000D03*
X64713000Y-60325000D03*
X66364000Y-60325000D03*
X68015000Y-60325000D03*
D31*
X125070000Y-28180000D03*
D16*
X149400000Y-51070000D03*
X147090000Y-63710000D03*
X101640000Y-63430000D03*
X164600000Y-61670000D03*
D17*
X171620000Y-51970000D03*
D32*
X129230000Y-59150000D03*
X120430000Y-75100000D03*
D16*
X166720000Y-63940000D03*
X157320000Y-58160000D03*
X101670000Y-61630000D03*
X78570000Y-58980000D03*
X166720000Y-59270000D03*
D33*
X90180000Y-38155000D03*
X81480000Y-38155000D03*
D34*
X83430000Y-49655000D03*
X85830000Y-49655000D03*
X88230000Y-49655000D03*
D18*
X162920000Y-50780000D03*
D19*
X162920000Y-52780000D03*
D16*
X164590000Y-50780000D03*
D15*
X142980000Y-54630000D03*
D16*
X100550000Y-61610000D03*
X154950000Y-56830000D03*
D18*
X174620000Y-58135000D03*
D19*
X174620000Y-56135000D03*
D16*
X166710000Y-62730000D03*
D33*
X126890000Y-38125000D03*
X118190000Y-38125000D03*
D34*
X120140000Y-49625000D03*
X122540000Y-49625000D03*
X124940000Y-49625000D03*
D15*
X65880000Y-54630000D03*
D16*
X164590000Y-63980000D03*
D18*
X162850000Y-62130000D03*
D19*
X162850000Y-64130000D03*
D21*
X151170000Y-51840000D03*
D16*
X77340000Y-55230000D03*
X164580000Y-62770000D03*
X147080000Y-52400000D03*
D23*
X132155000Y-59780000D03*
D24*
X134695000Y-59780000D03*
D16*
X78470000Y-54500000D03*
D35*
X134890000Y-32165000D03*
D21*
X134890000Y-40140000D03*
D36*
X128140000Y-31740000D03*
X141640000Y-43040000D03*
D35*
X134890000Y-42615000D03*
D37*
X140820000Y-31910000D03*
X128960000Y-42870000D03*
D21*
X134890000Y-34640000D03*
D38*
X118330000Y-71050000D03*
D39*
X118330000Y-64650000D03*
D35*
X85490000Y-64975000D03*
D21*
X85490000Y-72950000D03*
D40*
X91420000Y-64720000D03*
D35*
X85490000Y-75425000D03*
D21*
X85490000Y-67450000D03*
D36*
X78740000Y-64550000D03*
X92240000Y-75850000D03*
D40*
X79560000Y-75680000D03*
D41*
X144517500Y-36440000D03*
X144517500Y-38340000D03*
X142642500Y-37390000D03*
D38*
X125150000Y-64370000D03*
D39*
X125150000Y-57970000D03*
D42*
X133960000Y-27762500D03*
X135860000Y-27762500D03*
X134910000Y-29637500D03*
D43*
X74640000Y-41590000D03*
D44*
X74640000Y-33090000D03*
D45*
X74640000Y-33090000D03*
D46*
X86435000Y-79807500D03*
X84535000Y-79807500D03*
X85485000Y-77932500D03*
D47*
X82730000Y-26010000D03*
D44*
X74230000Y-26010000D03*
D48*
X74230000Y-26010000D03*
D49*
X90970000Y-42920000D03*
D50*
X82470000Y-42920000D03*
D44*
X82470000Y-42920000D03*
D51*
X75867500Y-71130000D03*
X75867500Y-69230000D03*
X77742500Y-70180000D03*
D38*
X131550000Y-71050000D03*
D39*
X131550000Y-64650000D03*
D52*
X67248848Y-28830345D03*
D44*
X61238441Y-34840752D03*
D53*
X61238441Y-34840752D03*
D38*
X125030000Y-77100000D03*
D39*
X125030000Y-70700000D03*
D54*
X103700000Y-52830000D03*
D55*
X104900000Y-59030000D03*
D22*
X104900000Y-59030000D03*
M02*
