M48
; DRILL file {KiCad (6.0.8)} date Fri Jul 21 17:03:26 2023
; FORMAT={-:-/ absolute / metric / decimal}
; #@! TF.CreationDate,2023-07-21T17:03:26-07:00
; #@! TF.GenerationSoftware,Kicad,Pcbnew,(6.0.8)
; #@! TF.FileFunction,NonPlated,1,2,NPTH
FMAT,2
METRIC
; #@! TA.AperFunction,NonPlated,NPTH,ComponentDrill
T1C0.787
; #@! TA.AperFunction,NonPlated,NPTH,ComponentDrill
T2C1.000
; #@! TA.AperFunction,NonPlated,NPTH,ComponentDrill
T3C1.200
; #@! TA.AperFunction,NonPlated,NPTH,ComponentDrill
T4C1.600
; #@! TA.AperFunction,NonPlated,NPTH,ComponentDrill
T5C1.700
; #@! TA.AperFunction,NonPlated,NPTH,ComponentDrill
T6C2.000
; #@! TA.AperFunction,NonPlated,NPTH,ComponentDrill
T7C2.200
%
G90
G05
T1
X77.34Y-55.23
X77.42Y-59.61
X78.47Y-54.5
X78.57Y-58.98
X98.36Y-61.66
X98.38Y-63.41
X99.46Y-61.63
X99.51Y-63.43
X100.55Y-61.61
X100.6Y-63.41
X101.64Y-63.43
X101.67Y-61.63
X147.05Y-51.06
X147.06Y-62.37
X147.08Y-52.4
X147.09Y-63.71
X149.4Y-51.07
X149.41Y-52.46
X149.41Y-62.38
X149.42Y-63.77
X154.95Y-56.83
X154.97Y-58.15
X156.14Y-58.16
X156.15Y-56.84
X157.32Y-58.16
X157.33Y-56.85
X158.46Y-56.83
X158.46Y-58.16
X159.67Y-58.19
X159.68Y-56.81
X164.58Y-62.77
X164.59Y-50.78
X164.59Y-51.84
X164.59Y-60.46
X164.59Y-63.98
X164.6Y-54.1
X164.6Y-59.29
X164.6Y-61.67
X164.61Y-52.93
X164.61Y-55.31
X166.7Y-50.63
X166.71Y-51.84
X166.71Y-60.46
X166.71Y-62.73
X166.72Y-54.1
X166.72Y-59.27
X166.72Y-63.94
X166.73Y-52.91
X166.73Y-55.34
X166.74Y-61.59
T2
X92.4Y-48.27
X117.4Y-48.27
T3
X72.29Y-74.94
X100.44Y-67.49
T4
X85.49Y-64.975
X85.49Y-75.425
X134.89Y-32.165
X134.89Y-42.615
T5
X120.43Y-75.1
X129.23Y-59.15
T6
X85.49Y-67.45
X85.49Y-72.95
X100.96Y-71.57
X134.89Y-34.64
X134.89Y-40.14
X151.16Y-63.15
X151.17Y-51.84
X160.46Y-51.84
X160.46Y-63.15
T7
X65.88Y-54.63
X104.4Y-32.77
X142.98Y-54.63
T0
M30
